<?xml version="1.0" encoding="UTF-8"?>
<svg width="12px" height="12px" viewBox="0 0 12 12" version="1.1" xmlns="http://www.w3.org/2000/svg" xmlns:xlink="http://www.w3.org/1999/xlink">
    <title>03 Icons/Base/Small/Chevron-right+centre-align</title>
    <g id="Symbols" stroke="none" stroke-width="1" fill="none" fill-rule="evenodd">
        <g id="03-Icons/Base/Small/Chevron-right+centre-align" fill="#0066CC">
            <path d="M8.30273003,0.22922078 C8.60835773,-0.0764069266 9.10387815,-0.0764069266 9.40950586,0.22922078 C9.68734923,0.50706415 9.71260771,0.941843645 9.48528132,1.24822086 L9.40950586,1.33599661 L4.74469565,6 L9.40950586,10.6640034 C9.68734923,10.9418468 9.71260771,11.3766263 9.48528132,11.6830035 L9.40950586,11.7707792 C9.13166249,12.0486226 8.69688299,12.0738811 8.39050578,11.8465547 L8.30273003,11.7707792 L3.33153004,6.79957896 C3.1192712,6.58762221 3,6.29996579 3,6 C3,5.74288646 3.08762782,5.49481655 3.24608346,5.29595759 L3.33113582,5.20081498 L8.30273003,0.22922078 Z" id="Fill" transform="translate(6.319363, 6.000000) scale(-1, 1) translate(-6.319363, -6.000000) "></path>
        </g>
    </g>
</svg>