<svg xmlns="http://www.w3.org/2000/svg" viewBox="0 0 360 266.12"><defs><style>.cls-1{fill:#fefefe;}.cls-2{fill:#0101fe;}.cls-3{fill:#fcfcfe;}.cls-4{fill:#0303fe;}.cls-5{fill:#0404fe;}.cls-6{fill:#0505fe;}.cls-7{fill:#0707fe;}.cls-8{fill:#b0b0fe;}.cls-9{fill:#fbfbfe;}.cls-10{fill:#b1b1fe;}.cls-11{fill:#f4f4fe;}.cls-12{fill:#f2f2fe;}.cls-13{fill:#eeeefe;}.cls-14{fill:#b8b8fe;}.cls-15{fill:#c5c5fe;}.cls-16{fill:#8989fe;}.cls-17{fill:#7e7efe;}.cls-18{fill:#aeaefe;}</style></defs><g id="Layer_2" data-name="Layer 2"><g id="Layer_1-2" data-name="Layer 1"><path class="cls-1" d="M360,.24H0C0,.16.08,0,.12,0c.32,0,.64,0,1,0H358.92A5.21,5.21,0,0,1,360,.24Z"/><path class="cls-2" d="M87.13,35.27c4.24-1,8.45-2.1,12.72-3a163.35,163.35,0,0,1,21.5-2.78,209.81,209.81,0,0,1,29.24.1,246.46,246.46,0,0,1,26.27,3.31,256.14,256.14,0,0,1,35.14,9,232.65,232.65,0,0,1,50.73,23.65c13.72,8.61,26.27,18.64,37,30.86,8.52,9.74,15.49,20.44,19.54,32.84a57.55,57.55,0,0,1,2.36,28.24,52.86,52.86,0,0,1-11.69,24.87c-8.32,10-18.93,16.83-30.74,21.94a135.9,135.9,0,0,1-31.25,9,197.52,197.52,0,0,1-47.34,2,237.88,237.88,0,0,1-33.9-4.9,248.76,248.76,0,0,1-65.12-23.65c-16-8.53-30.67-18.79-43.5-31.61-9-9-16.64-18.87-22.13-30.37a67.92,67.92,0,0,1-6.34-21,52.49,52.49,0,0,1,9.75-38.29C46.22,55.9,55.38,49.07,65.74,43.7c1.86-1,3.82-1.77,5.74-2.64,0,.67,0,1.35,0,2v74.26H87.09V36.71C87.09,36.23,87.12,35.75,87.13,35.27Zm141.31,128.4.41.15.05,1.16,0,1.27a2.35,2.35,0,0,0,.72.27q4.89,0,9.77,0a2.31,2.31,0,0,0,.73-.27,5.73,5.73,0,0,0,.07-.58c0-6.15,0-12.3,0-18.44,0-3.19-.21-6.38-.32-9.56l-.08-1.23,0-.71-.23-1.2-1.35-2.48,0,0-.8-1.06,0-.06-.07,0L236,129.89l-.72-.46-1.2-.54-.22-.22-2.38-.59-.61.08c-.26-.14-.52-.41-.77-.41-2.13,0-4.25,0-6.37.08l-.48.25a10.27,10.27,0,0,0-2.71.69,27.57,27.57,0,0,0-4.25,3,5.77,5.77,0,0,0-1.89,5.12L214,138.6c-.06,1.33-.15,2.67-.17,4,0,.14.44.28.68.42,3.23,0,6.46.09,9.69.08a1,1,0,0,0,.7-.69c0-1.83,0-3.66,0-5.49l0-.47.05-1.41,0,0a2,2,0,0,1,2.24-.63,1.71,1.71,0,0,1,1.09,1.87v5.9l-.52.63-3.36,1.71-.47.22c-1.63.62-3.29,1.19-4.88,1.88a25,25,0,0,0-2.59,1.52h0a3.55,3.55,0,0,0-2.16,3.63l-.24,1.21v6.48l.18,1.47c.18,2.18.93,4.07,3.06,5a16,16,0,0,0,4.14,1.2,5.82,5.82,0,0,0,5.21-1.64l1.44-1.66ZM198.37,166c.32.16.64.45,1,.45,3.39,0,6.79,0,10.19,0a5.78,5.78,0,0,0,.72-.11V121c0-.24.08-.54,0-.7s-.45-.24-.69-.36c-3.31,0-6.62,0-9.93-.12-1.1,0-1.32.35-1.32,1.37q0,21.74,0,43.48C198.29,165.08,198.34,165.51,198.37,166Zm-90.44,0c.19.15.38.43.57.43,3.63,0,7.25,0,11,0V121.34c0-.4,0-.8-.06-1.19-.21-.12-.41-.34-.62-.34-3.32,0-6.64,0-9.95,0-.78,0-1.06.26-1.05,1,0,2.84,0,5.67,0,8.51,0,.29-.07.58-.12,1a4.26,4.26,0,0,1-.52-.34,9.7,9.7,0,0,0-8.38-2.26,6.63,6.63,0,0,0-5.88,6.42c-.18,5.39-.22,10.78-.23,16.17,0,3.48.11,7,.24,10.42a6.11,6.11,0,0,0,2.14,4.41c3.07,2.75,7.9,2.66,11.46-.24l1.19-1Zm23.77-46.32a9.67,9.67,0,0,1-1.18.13c-1.92,0-3.84,0-5.75,0-.83,0-1.14.24-1.1,1.09a34.7,34.7,0,0,1,0,4c0,.84.19,1.13,1,1.11,2.43,0,4.87,0,7.31,0h3.57l.24-2c6.64,2.71,13.43,2.63,20.22.81,4.51-1.21,9.35-4.95,9.24-11.88-.13-8.11,0-16.22,0-24.32q0-9.78,0-19.54c0-.61.11-1.16-.87-1.15-4.12.05-8.23,0-12.35.05a1.34,1.34,0,0,0-.94.74,24.6,24.6,0,0,0-.86,2.68l-.38.26a6,6,0,0,0-.69-1.09c-3.61-3.59-7.9-4.29-12.61-2.81A6.76,6.76,0,0,0,132,72.13a26.27,26.27,0,0,0-1.31,6.76c-.16,7-.07,14.06,0,21.09a24.62,24.62,0,0,0,.43,3.92,8.5,8.5,0,0,0,6,7.09,12.72,12.72,0,0,0,12.55-2.06c.21-.17.42-.31.68-.5,0,2.23.13,4.37,0,6.48-.14,1.66-1,2.21-2.59,2.19-1.42,0-2.15-.72-2.4-2.3-.05-.3-.12-.6-.18-.9H130.58A14.63,14.63,0,0,0,131.7,119.65Zm-6-2.29c0-.34.06-.61.06-.88,0-8.39,0-16.78,0-25.16,0-4.35-.13-8.72-.48-13-.42-5.22-3.51-8.79-8.5-10.26a29.18,29.18,0,0,0-12.23-.73c-7.24,1-11.66,5.26-12.48,12.48a66.06,66.06,0,0,0,0,7.32c4.25,0,8.53,0,12.8,0,1,0,1.2-.34,1.2-1.25,0-2.67,0-5.35.17-8,.07-1.46.62-2,1.82-2.06a2,2,0,0,1,2.26,1.85,24.54,24.54,0,0,1,.37,3.92c.06,4.71,0,4.83-4.4,6.76-3.54,1.56-7.09,3.1-10.58,4.76a5.86,5.86,0,0,0-3.49,5.23c-.19,3.46-.31,6.94-.22,10.4a9.54,9.54,0,0,0,2.24,6.55c3,3.26,9.9,4.1,13.55,1.55a28.44,28.44,0,0,0,3.3-3.14v3.7Zm53.78,10.86H168.41c-.87,0-.79.59-.79,1.15q0,20.74,0,41.49c0,.86.31,1.08,1.12,1.07,3.24,0,6.48,0,9.72,0a5.16,5.16,0,0,0,.85-.14v-8.15l.44-.3a5,5,0,0,0,.59,1,8.87,8.87,0,0,0,5.07,2.75c3.86.66,7.56-1.38,8.47-4.81a12.32,12.32,0,0,0,.48-3.19c0-8,.09-16.06,0-24.1,0-4.48-2.38-6.38-5.37-7.13a8.38,8.38,0,0,0-8.47,2.4,6.17,6.17,0,0,0-.71,1.23l-.45-.39ZM65.07,117.35V76.89h3.48v-7.8H62.42c-.42-3.68.11-4.3,3.57-4.37.86,0,1.72,0,2.6,0V57.23c-3.5,0-6.93-.12-10.34.06a13.75,13.75,0,0,0-4.59,1.21,5.49,5.49,0,0,0-3.53,5.12c-.06,1.48-.19,3-.18,4.43,0,.87-.3,1.13-1.12,1-.62-.06-1.25,0-1.93,0V77h3v40.4Zm176.75,10.86c.09.68.12,1.16.22,1.62q2.28,11.4,4.58,22.79,1.09,5.46,2.15,10.93c.25,1.31-.07,1.78-1.39,2-.66.11-1.36,0-2,.16-.3.05-.75.38-.76.6-.07,1.63-.06,3.27,0,4.91,0,.22.43.61.65.61,4.07-.11,8.16-.08,12.21-.48,3.49-.34,5.56-2.66,6.31-6,.49-2.18.83-4.4,1.1-6.62,1.09-8.68,2.13-17.37,3.18-26,.18-1.45.33-2.9.51-4.43-3.28,0-6.35,0-9.42,0-.9,0-1.16.28-1.22,1.14-.36,5.42-.77,10.84-1.16,16.26-.18,2.37-.35,4.73-.52,7.1a3.63,3.63,0,0,1-.49-1.44q-.81-5.4-1.58-10.79c-.55-3.72-1.09-7.43-1.68-11.14-.07-.4-.5-1.07-.77-1.07C248.49,128.18,245.26,128.21,241.82,128.21Zm-83.34,12.24c1.4,0,2.8,0,4.2,0,.71,0,1-.23,1-1-.07-1.23-.06-2.47-.11-3.71a7.08,7.08,0,0,0-4.5-6.53,21.07,21.07,0,0,0-5.85-1.55,16.88,16.88,0,0,0-9.93,1.49,6.45,6.45,0,0,0-3.76,4.7,34.53,34.53,0,0,0-.44,6.66,8.27,8.27,0,0,0,3.8,6.86c1.29.87,2.61,1.7,3.94,2.5,1.82,1.1,3.7,2.08,5.45,3.27a3.52,3.52,0,0,1,1.27,2,11.12,11.12,0,0,1,.09,3.21c-.13,1.46-.76,2-2.06,2-1.13,0-1.72-.65-1.8-2.09s-.1-2.87-.11-4.31c0-.64-.2-.94-.89-.94q-4.32,0-8.64,0c-.61,0-.87.22-.84.84.09,1.64.07,3.28.23,4.91a8.07,8.07,0,0,0,5.8,7.21,19.88,19.88,0,0,0,12.5.42c3.15-.93,5.61-2.81,6.14-6.21a39.93,39.93,0,0,0,.31-7.73A7,7,0,0,0,161,147c-1.35-.92-2.77-1.74-4.19-2.55-1.66-1-3.4-1.79-5-2.78-2.42-1.47-2.54-3.39-2-6.08.18-1,1-1.26,1.94-1.2a1.36,1.36,0,0,1,1.41,1.47,26.66,26.66,0,0,1,.14,3.34c-.07,1.1.34,1.38,1.36,1.32C155.92,140.38,157.2,140.45,158.48,140.45Zm135.85,0c0-1.49,0-2.84,0-4.2a7.19,7.19,0,0,0-4.55-7,18.72,18.72,0,0,0-15.25-.23,6.76,6.76,0,0,0-4.31,5.1,20.1,20.1,0,0,0-.11,8.21A8.61,8.61,0,0,0,274.4,148c2.81,1.75,5.71,3.37,8.51,5.14a3.13,3.13,0,0,1,1.36,1.81,14.21,14.21,0,0,1,.1,3.69c-.08,1.24-.76,1.75-2,1.75a1.62,1.62,0,0,1-1.78-1.68c-.11-1.56-.2-3.11-.23-4.67,0-.68-.14-1-.93-1-2.84,0-5.68,0-8.52,0-.67,0-.94.23-.89.91.1,1.55.12,3.11.26,4.66a8.23,8.23,0,0,0,6,7.47,20.27,20.27,0,0,0,11.23.65c3.24-.72,6-2.26,7-5.66a19.43,19.43,0,0,0,.37-9.49,7.84,7.84,0,0,0-4.13-5.33c-2.45-1.42-4.95-2.77-7.46-4.09a5.1,5.1,0,0,1-3-5.71,4.66,4.66,0,0,1,.21-.93,1.76,1.76,0,0,1,2-1.14,1.4,1.4,0,0,1,1.36,1.53c.05,1.5,0,3,0,4.53Zm-14.13,40c1.18,1.72,1.12,3-.13,4.36-.8.89-1.67,1.73-2.47,2.62a7.19,7.19,0,0,0-.73,1.12,1.87,1.87,0,0,0,1.37,0,33.21,33.21,0,0,0,3.08-1.6c2.84-1.71,5.64-3.49,8.49-5.19a26.11,26.11,0,0,1,2.63-1.2l.33.3c-.64,1.3-1.27,2.61-1.91,3.91a48.16,48.16,0,0,0-2.17,4.38,4.38,4.38,0,0,0,0,2.56,1.88,1.88,0,0,0,1.39,1.12c.84-.09,1-.94.79-1.71a3.15,3.15,0,0,1,.44-2.73c.95-1.53,1.95-3,2.82-4.59a11.13,11.13,0,0,0,1.31-3.18c.41-2.17-.56-3-2.63-2.29a37.24,37.24,0,0,0-4.47,2c-1.41.71-2.77,1.52-4.26,2.34-.29-1-.49-1.89-.8-2.74-.67-1.8-1.56-2.17-3.35-1.46s-3.43,1.32-5.11,2a3.38,3.38,0,0,0-1.14,1c-1.17,1.46-2.31,3-3.46,4.42-.81,1-1.65,2.06-2.4,3.14a5.11,5.11,0,0,0-.47,1.43l.44.35a35.2,35.2,0,0,0,3.11-2.25c2.17-1.95,4.22-4,6.38-6A34.81,34.81,0,0,1,280.2,180.44Zm-25.8,10.38,0-.19c.36,0,.72,0,1.07,0a18.2,18.2,0,0,0,8.91-2.44,4.82,4.82,0,0,0-.08-8.57,7.21,7.21,0,0,0-3-1c-5.21-.32-9.61,1.75-13.39,5.09-2.49,2.2-1.72,5.2,1.46,6.19A41.64,41.64,0,0,0,254.4,190.82ZM238.79,178l.09.42-1.37,2.1c-.43.66-.16,1.12.43,1.49a1.33,1.33,0,0,0,1.84-.26,7.82,7.82,0,0,0,2-4.79,1.6,1.6,0,0,0-2.18-1.61A33.92,33.92,0,0,0,229,180a14.85,14.85,0,0,0-4,4c-2,3.15-.5,6.48,3.15,7.06a30.51,30.51,0,0,0,8.21.17,51,51,0,0,0,7.83-2,3.65,3.65,0,0,0,1-.73l-.16-.27a26.07,26.07,0,0,1-9.65,2c-2.28.11-4.56.29-6.74-.63a3.53,3.53,0,0,1-1.85-5.21,7.18,7.18,0,0,1,1.22-1.62,17.65,17.65,0,0,1,7.7-4.45A18.39,18.39,0,0,1,238.79,178ZM135.57,166.37a1.9,1.9,0,0,0,.11-.4q0-18.47,0-36.91c0-.83-.42-.86-1.06-.86-3.15,0-6.31.07-9.47,0-1.13,0-1.49.23-1.48,1.43,0,12.06,0,24.12,0,36.18a3,3,0,0,0,.11.57Zm87.92,21.72a22.43,22.43,0,0,0-3.08,0c-.37.05-.95.65-.94,1a4.4,4.4,0,0,0,.68,1.82,4.41,4.41,0,0,0,1.1-.33,6.3,6.3,0,0,1,.88-.33C223.21,190.1,223.58,189.43,223.49,188.09Z"/><path class="cls-3" d="M87.13,35.27c0,.48,0,1,0,1.44v80.64H71.51V43.09c0-.68,0-1.36,0-2,0-3.35.09-6.69,0-10,0-1.07.33-1.35,1.37-1.33q6.45.07,12.92,0c1,0,1.33.28,1.29,1.28C87,32.4,87.11,33.84,87.13,35.27Z"/><path class="cls-4" d="M298.84,227.7c.35.69.72,1.37,1.06,2.06,1.76,3.54,3.55,7.06,5.27,10.62.79,1.65.25,2.17-1.55,2.51s-2.35-.29-3-1.7c-3.46-7.67-7-15.3-10.54-22.95-.38-.82-.06-1.13.7-1.37a4.51,4.51,0,0,1,5.16,1.28c3.09,3.22,6.46,6.18,9.72,9.25a1.85,1.85,0,0,0,1.05.54c-.62-1.27-1.26-2.53-1.85-3.81-1.81-4-3.57-8-5.41-12-.41-.88-.2-1.33.65-1.62.42-.15.81-.34,1.23-.49a1.62,1.62,0,0,1,2.34.9c3.65,7.68,7.36,15.33,11,23,1.17,2.49.33,3.66-2.46,3.64a2.7,2.7,0,0,1-1.47-.67c-3.61-2.9-7.19-5.84-10.78-8.76l-.82-.65Z"/><path class="cls-5" d="M252.63,232.41c-2.55,1.38-3.24,4.59-1.44,6.49a31.47,31.47,0,0,0,3.19,2.51,49.36,49.36,0,0,1,5.55,4.7,7,7,0,0,1-2,10.82,7.13,7.13,0,0,1-3.81.74,9.67,9.67,0,0,1-7.16-3.83,8.1,8.1,0,0,1-1.09-3.06c0-.19.71-.85,1-.79a9.52,9.52,0,0,1,2.51,1c1.22.67,2.33,1.53,3.57,2.17a2.14,2.14,0,0,0,3.1-2.72,9,9,0,0,0-1.83-3,49.37,49.37,0,0,0-5.13-3.93c-5.54-3.88-4.46-11.13.1-15.06,1.31-1.13,2.68-.85,4.06-.43a8.31,8.31,0,0,1,6,7.91c0,.78-.32,2-.85,2.24a3.74,3.74,0,0,1-2.69-.23,4.67,4.67,0,0,1-2.37-3.3C253.15,233.89,252.88,233.17,252.63,232.41Z"/><path class="cls-5" d="M279.63,250.23c-2.85,1.24-5.64,2.5-8.48,3.66a3.13,3.13,0,0,1-3.83-1.78c-1-2.91-1.91-5.84-2.68-8.82-1.29-5-2.47-10-3.62-15-.41-1.75-.12-2,1.62-2.14a3.88,3.88,0,0,0,1.12-.37c1.66-.68,3.29-1.44,5-2.06,1.39-.5,3.81,1.51,3.56,2.95a1.48,1.48,0,0,1-.82.9,43.81,43.81,0,0,1-4.21,1.73c-1,.34-1.46.67-1,1.86a28.82,28.82,0,0,1,.84,3.73c.1.46.26.9.43,1.45,1.49-.55,2.86-1.07,4.24-1.55a3,3,0,0,1,4,3c0,.32-.51.7-.87.84-1.58.66-3.18,1.28-4.81,1.84-1.07.37-1.44.89-1.05,2.05.52,1.54.86,3.15,1.25,4.74.36,1.43.46,1.51,1.87.92,1.06-.45,2.1-1,3.17-1.43a2.63,2.63,0,0,1,3.75,1.77C279.21,249,279.38,249.52,279.63,250.23Z"/><path class="cls-5" d="M296.35,244.34c-2.73,1.47-5.44,3-8.21,4.38a3.19,3.19,0,0,1-4-1.66c-1.3-3.12-2.55-6.28-3.68-9.48-1.52-4.32-2.91-8.7-4.34-13.06a9.09,9.09,0,0,1-.27-1.28c-.14-.93.22-1.41,1.21-1.5a5,5,0,0,0,1.65-.57q2.25-1.11,4.46-2.31c1.59-.86,3.78,1.1,4,2.47a1.48,1.48,0,0,1-.72,1.07c-1.39.78-2.82,1.5-4.27,2.17-.85.38-1.14.77-.75,1.73a38.43,38.43,0,0,1,1.29,4.11c.25.91.64,1.13,1.54.65a25.5,25.5,0,0,1,3.82-1.69c1.54-.53,3.71,1.44,3.41,3-.06.3-.48.62-.8.79-1.53.78-3.07,1.53-4.64,2.24-1,.45-1.39.95-.88,2.11a53.55,53.55,0,0,1,1.8,5.07c.26.78.63.94,1.33.55,1.19-.66,2.38-1.31,3.59-1.93a2.6,2.6,0,0,1,3.74,1.33C295.83,243.11,296.05,243.65,296.35,244.34Z"/><path class="cls-6" d="M213.06,244.41c.19-.15.31-.2.36-.29.67-1.16,1.43-2.2,3-1.84s3.21,1.14,3.77,2.95a12.17,12.17,0,0,1,.5,2.82c.23,3.58.09,7.12-1.62,10.4-1.07,2-2.6,2.94-4.51,2.65-.67-.1-1.29-.45-1.94-.59a4.08,4.08,0,0,0-1.72-.15,1.19,1.19,0,0,1-1.65-1.06,20.86,20.86,0,0,1-.35-3.69c.11-7,.28-14,.43-21,0-.76.07-1.52.07-2.28,0-1.34.14-1.49,1.53-1.43,2,.1,2.58.63,2.52,2.62C213.35,237.14,213.19,240.72,213.06,244.41Zm3.42,1.27-.45-.16c-.3.44-.65.85-.9,1.31A19.23,19.23,0,0,0,213,256.5c0,.49.48,1,.74,1.46.46-.3,1.16-.49,1.36-.91C216.8,253.41,216.58,249.54,216.48,245.68Z"/><path class="cls-5" d="M146.8,233.76a23.87,23.87,0,0,1,2.78.8,10.29,10.29,0,0,1,2.56,1.46,2.13,2.13,0,0,1,.5,2.72,1.83,1.83,0,0,1-2.37,1c-1.15-.31-2.33-.56-3.46-.93-.81-.26-1.15,0-1.38.75q-1.32,4.65-2.74,9.29c-.27.87-.39,2-1.73,1.94-.84,0-2.64-1.37-2.64-2.19a11.77,11.77,0,0,1,.58-2.89q2.9-10.42,5.81-20.85a19,19,0,0,1,.63-2.3c.14-.33.71-.74,1-.68,2.72.56,5.45,1.14,8.13,1.89a3.36,3.36,0,0,1,2.07,3.86c-.18,1-.67,1.29-1.6,1l-4.85-1.31c-1.36-.37-1.54-.21-1.79,1.2a20.6,20.6,0,0,1-.69,2.53C147.36,232,147.1,232.79,146.8,233.76Z"/><path class="cls-5" d="M167.59,249.33q2.08-5.27,4.19-10.53c.09-.23.15-.46.24-.68.71-1.63.93-1.7,2.44-.76l.31.19c1.71,1.1,1.78,1.23,1,3-2.08,4.8-4.21,9.58-6.28,14.38-1.45,3.37-2.83,6.78-4.25,10.17-.47,1.12-.75,1.21-1.78.58-1.78-1.11-2.1-1.85-1.37-3.82.83-2.2,1.75-4.37,2.68-6.52.28-.65.08-1-.26-1.57a6.3,6.3,0,0,1-1-3.09c.08-4.27.34-8.53.55-12.8.06-1,.55-1.15,1.45-.77,2.05.85,2.12.86,2,3.05-.1,2.63-.25,5.26-.37,7.89,0,.41.06.81.09,1.22Z"/><path class="cls-6" d="M234.19,249.65c.26,1.25-.2,1.82-1.52,2-1.49.19-3,.64-4.44,1a1.33,1.33,0,0,0-1.17,1.64,5.69,5.69,0,0,0,.14,1.18c.17.54.36,1.31.74,1.46a1.88,1.88,0,0,0,1.58-.49c.95-.94,1.71-2.08,2.64-3,.35-.36,1.09-.79,1.4-.64a2.37,2.37,0,0,1,1.32,1.43c.28,2.1-2.31,5.9-4.37,6.46a4.26,4.26,0,0,1-2.31-.17c-3.38-1.13-4.92-3-5.12-6.27a23.52,23.52,0,0,1,1.69-10.66c.91-2.21,1.89-2.68,4.24-2.2,3.1.64,4.24,1.87,4.82,5.26C234,247.58,234.07,248.62,234.19,249.65Zm-6.86-.54.37.41a7.78,7.78,0,0,0,2.38-1.24c.58-.65-.41-3.35-1.45-4.11C228.18,245.88,227.76,247.5,227.33,249.11Z"/><path class="cls-6" d="M153.12,251.86c.61-2.76,1.15-5.54,1.85-8.28,1.51-6,3.09-11.88,4.65-17.81.4-1.51.66-1.61,2.1-1,2,.81,2.35,1.53,1.82,3.56q-3.21,12.32-6.36,24.64c-.37,1.47-1,1.78-2.31,1.08S153.21,252.83,153.12,251.86Z"/><path class="cls-5" d="M319.05,225.89a4,4,0,0,1-.92-.66,12.8,12.8,0,0,1-1.55-2.12c-2.48-4.55-4.92-9.12-7.38-13.69-.11-.21-.18-.44-.3-.65-.95-1.83-.71-2.4,1.27-3,3-.88,2.81-.82,3.92,2,1.44,3.67,3.15,7.24,4.76,10.83.7,1.57,1.44,3.12,2.19,4.66C321.87,225,321.27,225.94,319.05,225.89Z"/><path class="cls-7" d="M186.12,247.4c2.76.3,5.57.57,8.36.95.87.13,1.52,2.55.93,3.17a.82.82,0,0,1-.53.17c-1.16,0-2.31-.08-3.46-.16-.95-.06-1.9-.22-2.85-.27C186.41,251.14,185.49,249.82,186.12,247.4Z"/><path class="cls-6" d="M322.09,226.52a3.35,3.35,0,0,1,3.58,3.35,2.66,2.66,0,0,1-2.77,2.9,3.05,3.05,0,0,1-3.23-2.72C319.67,227.33,320.24,226.51,322.09,226.52Z"/><path class="cls-3" d="M131.7,119.65a14.63,14.63,0,0,1-1.12-5.75h14.54c.06.3.13.6.18.9.25,1.58,1,2.28,2.4,2.3,1.59,0,2.45-.53,2.59-2.19.17-2.11,0-4.25,0-6.48-.26.19-.47.33-.68.5A12.72,12.72,0,0,1,137.1,111a8.5,8.5,0,0,1-6-7.09,24.62,24.62,0,0,1-.43-3.92c0-7-.13-14.06,0-21.09A26.27,26.27,0,0,1,132,72.13a6.76,6.76,0,0,1,4.68-4.48c4.71-1.48,9-.78,12.61,2.81a6,6,0,0,1,.69,1.09l.38-.26a24.6,24.6,0,0,1,.86-2.68,1.34,1.34,0,0,1,.94-.74c4.12-.05,8.23,0,12.35-.05,1,0,.87.54.87,1.15q0,9.77,0,19.54c0,8.1-.17,16.21,0,24.32.11,6.93-4.73,10.67-9.24,11.88-6.79,1.82-13.58,1.9-20.22-.81l-.23-.89c0-1,0-1.91,0-2.87a3.2,3.2,0,0,0-1-.41C133.66,119.66,132.68,119.67,131.7,119.65Zm18.42-30.52h.15c0-.56,0-1.12,0-1.67-.06-3.28-.1-6.55-.2-9.82a1.75,1.75,0,0,0-1.78-1.87A2,2,0,0,0,146,77.49a16.17,16.17,0,0,0-.33,2.85c-.05,3.15,0,6.3,0,9.46,0,3.39,0,6.79.09,10.18.09,2.29.72,3,2.16,2.93s2.1-.83,2.16-3C150.18,96.32,150.12,92.72,150.12,89.13Z"/><path class="cls-3" d="M125.72,117.36H111.05v-3.7a28.44,28.44,0,0,1-3.3,3.14c-3.65,2.55-10.51,1.71-13.55-1.55A9.54,9.54,0,0,1,92,108.7c-.09-3.46,0-6.94.22-10.4a5.86,5.86,0,0,1,3.49-5.23c3.49-1.66,7-3.2,10.58-4.76,4.36-1.93,4.46-2,4.4-6.76a24.54,24.54,0,0,0-.37-3.92A2,2,0,0,0,108,75.78c-1.2.08-1.75.6-1.82,2.06-.12,2.67-.17,5.35-.17,8,0,.91-.2,1.26-1.2,1.25-4.27-.06-8.55,0-12.8,0a66.06,66.06,0,0,1,0-7.32c.82-7.22,5.24-11.5,12.48-12.48a29.18,29.18,0,0,1,12.23.73c5,1.47,8.08,5,8.5,10.26.35,4.33.44,8.7.48,13,.07,8.38,0,16.77,0,25.16C125.78,116.75,125.74,117,125.72,117.36ZM110.57,93.77a31.5,31.5,0,0,0-3,3,5.58,5.58,0,0,0-1.23,2.78,74.57,74.57,0,0,0-.07,7.77c.06,1.55.8,2.16,2.16,2.17s2.09-.49,2.12-2.15C110.63,102.92,110.57,98.53,110.57,93.77Z"/><path class="cls-8" d="M107.93,166l-.2-2.06-1.19,1c-3.56,2.9-8.39,3-11.46.24a6.11,6.11,0,0,1-2.14-4.41c-.13-3.47-.24-6.94-.24-10.42,0-5.39,0-10.78.23-16.17a6.63,6.63,0,0,1,5.88-6.42,9.7,9.7,0,0,1,8.38,2.26,4.26,4.26,0,0,0,.52.34c.05-.4.11-.69.12-1,0-2.84,0-5.67,0-8.51,0-.78.27-1,1.05-1,3.31,0,6.63,0,9.95,0,.21,0,.41.22.62.34-1.13.19-.36,1-.37,1.41q-.06,21.54,0,43.08c0,1-.37,1.33-1.34,1.31-2.68,0-5.35,0-8,0Zm-3.54-30.24a3.08,3.08,0,0,0-.45,1.09q0,10.55,0,21.09c0,.36.31.72.47,1.07.35.68.65,1.38,1.6,1.37s1.71-.61,1.72-2c0-7.35,0-14.69,0-22,0-.92-.21-1.77-1.33-2S104.73,134.77,104.39,135.73Z"/><path class="cls-8" d="M179.5,128.22l-.15,2.85.45.39a6.17,6.17,0,0,1,.71-1.23,8.38,8.38,0,0,1,8.47-2.4c3,.75,5.32,2.65,5.37,7.13.08,8,0,16.07,0,24.1a12.32,12.32,0,0,1-.48,3.19c-.91,3.43-4.61,5.47-8.47,4.81a8.87,8.87,0,0,1-5.07-2.75,5,5,0,0,1-.59-1l-.44.3v8.15a5.16,5.16,0,0,1-.85.14c-3.24,0-6.48,0-9.72,0-.81,0-1.12-.21-1.12-1.07q0-20.74,0-41.49c0-.56-.08-1.15.79-1.15Zm3.33,19.11h0v-1.08c-.06-3.48-.11-6.95-.18-10.42a1.35,1.35,0,0,0-1.47-1.51,1.49,1.49,0,0,0-1.7,1.46,19.13,19.13,0,0,0-.19,2.26q0,9.28,0,18.57a21,21,0,0,0,.22,2.38,1.46,1.46,0,0,0,1.67,1.36,1.36,1.36,0,0,0,1.46-1.41c.05-.68.16-1.35.16-2C182.84,153.72,182.83,150.52,182.83,147.33Z"/><path class="cls-9" d="M65.07,117.35H49.91V77h-3V69.09c.68,0,1.31,0,1.93,0,.82.08,1.13-.18,1.12-1,0-1.47.12-3,.18-4.43a5.49,5.49,0,0,1,3.53-5.12,13.75,13.75,0,0,1,4.59-1.21c3.41-.18,6.84-.06,10.34-.06v7.49c-.88,0-1.74,0-2.6,0-3.46.07-4,.69-3.57,4.37h6.13v7.8H65.07Z"/><path class="cls-8" d="M241.82,128.21c3.44,0,6.67,0,9.9,0,.27,0,.7.67.77,1.07.59,3.71,1.13,7.42,1.68,11.14s1,7.19,1.58,10.79a3.63,3.63,0,0,0,.49,1.44c.17-2.37.34-4.73.52-7.1.39-5.42.8-10.84,1.16-16.26.06-.86.32-1.15,1.22-1.14,3.07.06,6.14,0,9.42,0-.18,1.53-.33,3-.51,4.43-1.05,8.68-2.09,17.37-3.18,26-.27,2.22-.61,4.44-1.1,6.62-.75,3.36-2.82,5.68-6.31,6-4,.4-8.14.37-12.21.48-.22,0-.65-.39-.65-.61-.06-1.64-.07-3.28,0-4.91,0-.22.46-.55.76-.6.66-.13,1.36,0,2-.16,1.32-.21,1.64-.68,1.39-2q-1.05-5.46-2.15-10.93-2.28-11.4-4.58-22.79C241.94,129.37,241.91,128.89,241.82,128.21Z"/><path class="cls-10" d="M233.81,128.67l.22.22c.15.73.57.86,1.2.54l.72.46c.16.7.39,1.31,1.31,1.05l.07,0,0,.06c-.32.8.16,1,.8,1.06l0,0,1.2,3.18.2.48a5.62,5.62,0,0,0-.24,1.25c.05,1.39.21,2.78.22,4.17,0,7.77,0,15.54,0,23.32,0,1.07-.45,1.54-1.38,1.45-3.09-.29-6.33.9-9.26-.93,0-.39,0-.78-.05-1.16l.21-.55-.59,0-.4.52-1.44,1.66c-1.22.32-2.43.7-3.67.94a6.7,6.7,0,0,1-8-5.1c0-.18-.52-.25-.79-.38l-.18-1.47c.18-.27.49-.53.49-.81q.08-2.43,0-4.86c0-.27-.31-.54-.48-.81l.24-1.21c.21-.07.55-.08.61-.22.55-1.13,1-2.27,1.55-3.41h0a4.85,4.85,0,0,0,1.16-.18c1.91-.84,3.81-1.71,5.7-2.59.25-.12.41-.41.61-.63l.47-.22a3.3,3.3,0,0,0,3.36-1.71l.52-.63c.28-.32.78-.63.79-.95.05-1.58,0-3.16,0-4.74a2.67,2.67,0,0,0-1.36-2.46c-1.26-.72-2.52-.24-2.71,1l0,0c-.85.44-.75.91-.05,1.41l0,.47c-.1,1.52-.19,3-.28,4.56a3.19,3.19,0,0,1-2.64.73c-1.91,0-3.83,0-5.75,0-1.68,0-1.63,0-1.7-1.71a8.81,8.81,0,0,0-.5-1.89l.31-1.68a3.38,3.38,0,0,0,.67-.87c.22-.67.21-1.44.49-2.07a9.28,9.28,0,0,1,6.93-5.23c.29-.06.51-.44.76-.67l.48-.25c.2.15.41.43.61.43,2.18,0,4.35-.06,6.53-.1l.61-.08A1.69,1.69,0,0,0,233.81,128.67Zm-5.45,19.92s-.13,0-.18,0c-2.92,1.72-4.59,7.95-2.83,10.91a2.23,2.23,0,0,0,1.78.75,1.71,1.71,0,0,0,1.18-1.18C228.4,155.58,228.36,152.09,228.36,148.59Z"/><path class="cls-8" d="M158.48,140.45c-1.28,0-2.56-.07-3.84,0-1,.06-1.43-.22-1.36-1.32a26.66,26.66,0,0,0-.14-3.34,1.36,1.36,0,0,0-1.41-1.47c-.94-.06-1.76.24-1.94,1.2-.52,2.69-.4,4.61,2,6.08,1.63,1,3.37,1.83,5,2.78,1.42.81,2.84,1.63,4.19,2.55a7,7,0,0,1,3.24,5.5,39.93,39.93,0,0,1-.31,7.73c-.53,3.4-3,5.28-6.14,6.21a19.88,19.88,0,0,1-12.5-.42,8.07,8.07,0,0,1-5.8-7.21c-.16-1.63-.14-3.27-.23-4.91,0-.62.23-.85.84-.84q4.32,0,8.64,0c.69,0,.89.3.89.94,0,1.44,0,2.88.11,4.31s.67,2.08,1.8,2.09c1.3,0,1.93-.5,2.06-2a11.12,11.12,0,0,0-.09-3.21,3.52,3.52,0,0,0-1.27-2c-1.75-1.19-3.63-2.17-5.45-3.27-1.33-.8-2.65-1.63-3.94-2.5a8.27,8.27,0,0,1-3.8-6.86,34.53,34.53,0,0,1,.44-6.66,6.45,6.45,0,0,1,3.76-4.7,16.88,16.88,0,0,1,9.93-1.49,21.07,21.07,0,0,1,5.85,1.55,7.08,7.08,0,0,1,4.5,6.53c.05,1.24,0,2.48.11,3.71,0,.74-.28,1-1,1C161.28,140.42,159.88,140.45,158.48,140.45Z"/><path class="cls-8" d="M294.33,140.4H284c0-1.53,0-3,0-4.53a1.4,1.4,0,0,0-1.36-1.53,1.76,1.76,0,0,0-2,1.14,4.66,4.66,0,0,0-.21.93,5.1,5.1,0,0,0,3,5.71c2.51,1.32,5,2.67,7.46,4.09a7.84,7.84,0,0,1,4.13,5.33,19.43,19.43,0,0,1-.37,9.49c-1.06,3.4-3.78,4.94-7,5.66a20.27,20.27,0,0,1-11.23-.65,8.23,8.23,0,0,1-6-7.47c-.14-1.55-.16-3.11-.26-4.66,0-.68.22-.91.89-.91,2.84,0,5.68,0,8.52,0,.79,0,.92.32.93,1,0,1.56.12,3.11.23,4.67a1.62,1.62,0,0,0,1.78,1.68c1.24,0,1.92-.51,2-1.75a14.21,14.21,0,0,0-.1-3.69,3.13,3.13,0,0,0-1.36-1.81c-2.8-1.77-5.7-3.39-8.51-5.14a8.61,8.61,0,0,1-4.29-5.67,20.1,20.1,0,0,1,.11-8.21,6.76,6.76,0,0,1,4.31-5.1,18.72,18.72,0,0,1,15.25.23,7.19,7.19,0,0,1,4.55,7C294.32,137.56,294.33,138.91,294.33,140.4Z"/><path class="cls-8" d="M198.37,166c0-.44-.08-.87-.08-1.31q0-21.73,0-43.48c0-1,.22-1.4,1.32-1.37,3.31.1,6.62.09,9.93.12a13.4,13.4,0,0,1,.23,1.77q0,21.42,0,42.84c0,1.12-.39,1.45-1.47,1.44C205,165.91,201.68,166,198.37,166Z"/><path class="cls-11" d="M280.2,180.44a34.81,34.81,0,0,0-2.94,2.17c-2.16,2-4.21,4-6.38,6a35.2,35.2,0,0,1-3.11,2.25l-.44-.35a5.11,5.11,0,0,1,.47-1.43c.75-1.08,1.59-2.1,2.4-3.14,1.15-1.47,2.29-3,3.46-4.42a3.38,3.38,0,0,1,1.14-1c1.68-.73,3.4-1.37,5.11-2s2.68-.34,3.35,1.46c.31.85.51,1.73.8,2.74,1.49-.82,2.85-1.63,4.26-2.34a37.24,37.24,0,0,1,4.47-2c2.07-.71,3,.12,2.63,2.29a11.13,11.13,0,0,1-1.31,3.18c-.87,1.57-1.87,3.06-2.82,4.59a3.15,3.15,0,0,0-.44,2.73c.23.77,0,1.62-.79,1.71a1.88,1.88,0,0,1-1.39-1.12,4.38,4.38,0,0,1,0-2.56,48.16,48.16,0,0,1,2.17-4.38c.64-1.3,1.27-2.61,1.91-3.91l-.33-.3a26.11,26.11,0,0,0-2.63,1.2c-2.85,1.7-5.65,3.48-8.49,5.19a33.21,33.21,0,0,1-3.08,1.6,1.87,1.87,0,0,1-1.37,0,7.19,7.19,0,0,1,.73-1.12c.8-.89,1.67-1.73,2.47-2.62C281.32,183.4,281.38,182.16,280.2,180.44Z"/><path class="cls-12" d="M254.4,190.82a41.64,41.64,0,0,1-5-.9c-3.18-1-4-4-1.46-6.19,3.78-3.34,8.18-5.41,13.39-5.09a7.21,7.21,0,0,1,3,1,4.82,4.82,0,0,1,.08,8.57,18.2,18.2,0,0,1-8.91,2.44c-.35,0-.71,0-1.07,0Zm-5.73-4.1a6.25,6.25,0,0,0,3.68,2.18,16.13,16.13,0,0,0,10.83-2.12,3.06,3.06,0,0,0,1.79-3.13c-.17-1.5-1.27-2.15-2.55-2.54a10.15,10.15,0,0,0-6.46.4A13.8,13.8,0,0,0,248.67,186.72Z"/><path class="cls-13" d="M238.79,178a18.39,18.39,0,0,0-3.08.37,17.65,17.65,0,0,0-7.7,4.45,7.18,7.18,0,0,0-1.22,1.62,3.53,3.53,0,0,0,1.85,5.21c2.18.92,4.46.74,6.74.63a26.07,26.07,0,0,0,9.65-2l.16.27a3.65,3.65,0,0,1-1,.73,51,51,0,0,1-7.83,2,30.51,30.51,0,0,1-8.21-.17c-3.65-.58-5.12-3.91-3.15-7.06a14.85,14.85,0,0,1,4-4,33.92,33.92,0,0,1,10.58-4.67,1.6,1.6,0,0,1,2.18,1.61,7.82,7.82,0,0,1-2,4.79,1.33,1.33,0,0,1-1.84.26c-.59-.37-.86-.83-.43-1.49l1.37-2.1Z"/><path class="cls-14" d="M135.57,166.37H123.81a3,3,0,0,1-.11-.57c0-12.06,0-24.12,0-36.18,0-1.2.35-1.45,1.48-1.43,3.16.08,6.32,0,9.47,0,.64,0,1.06,0,1.06.86q0,18.45,0,36.91A1.9,1.9,0,0,1,135.57,166.37Zm-11-18.85v8.15c0,3,0,5.92,0,8.87,0,.39.4,1.09.65,1.1,2.66.14,5.33.19,8,.23,1.23,0,1.61-.78,1.64-1.85V131.9c0-.48-.08-1-.12-1.43-.07-.93-.56-1.26-1.51-1.24-2.39.06-4.8.07-7.19,0-1.16,0-1.53.36-1.52,1.52C124.58,136.34,124.56,141.93,124.56,147.52Z"/><path class="cls-10" d="M135.61,123l.23.89-.24,2H132c-2.44,0-4.88,0-7.31,0-.86,0-1.1-.27-1-1.11a34.7,34.7,0,0,0,0-4c0-.85.27-1.11,1.1-1.09,1.91,0,3.83,0,5.75,0a9.67,9.67,0,0,0,1.18-.13c1,0,2,0,2.94.08a3.2,3.2,0,0,1,1,.41h-3.45c.09.45.21.63.31.63,1.51-.06,2.41.36,2.26,2.15C134.66,123.65,135.26,123.33,135.61,123Z"/><path class="cls-15" d="M198.37,166c3.31,0,6.63,0,9.94,0,1.08,0,1.47-.32,1.47-1.44q0-21.42,0-42.84a13.4,13.4,0,0,0-.23-1.77c.24.12.55.17.69.36s0,.46,0,.7v45.35a5.78,5.78,0,0,1-.72.11c-3.4,0-6.8,0-10.19,0C199,166.4,198.69,166.11,198.37,166Z"/><path class="cls-15" d="M107.93,166l1.75,0c2.68,0,5.35,0,8,0,1,0,1.34-.31,1.34-1.31q0-21.54,0-43.08c0-.43-.76-1.22.37-1.41,0,.39.06.79.06,1.19v45.08c-3.75,0-7.37,0-11,0C108.31,166.4,108.12,166.12,107.93,166Z"/><path class="cls-14" d="M228.9,165c2.93,1.83,6.17.64,9.26.93.93.09,1.39-.38,1.38-1.45,0-7.78,0-15.55,0-23.32,0-1.39-.17-2.78-.22-4.17a5.62,5.62,0,0,1,.24-1.25l.18,0,0,.71.08,1.23c.11,3.18.3,6.37.32,9.56,0,6.14,0,12.29,0,18.44a5.73,5.73,0,0,1-.07.58H228.88Z"/><path class="cls-13" d="M223.49,188.09c.09,1.34-.28,2-1.36,2.19a6.3,6.3,0,0,0-.88.33,4.41,4.41,0,0,1-1.1.33,4.4,4.4,0,0,1-.68-1.82c0-.33.57-.93.94-1A22.43,22.43,0,0,1,223.49,188.09Z"/><path class="cls-14" d="M214.22,160.94c.27.13.74.2.79.38a6.7,6.7,0,0,0,8,5.1c1.24-.24,2.45-.62,3.67-.94a5.82,5.82,0,0,1-5.21,1.64,16,16,0,0,1-4.14-1.2C215.15,165,214.4,163.12,214.22,160.94Z"/><path class="cls-14" d="M214,138.6a8.81,8.81,0,0,1,.5,1.89c.07,1.71,0,1.71,1.7,1.71,1.92,0,3.84,0,5.75,0a3.19,3.19,0,0,0,2.64-.73c.14.91-.18,1.27-1.16,1.24-2.53-.06-5.07,0-7.6,0a5.71,5.71,0,0,0-1.32.3c-.24-.14-.68-.28-.68-.42C213.89,141.27,214,139.93,214,138.6Z"/><path class="cls-16" d="M214.55,143a5.71,5.71,0,0,1,1.32-.3c2.53,0,5.07-.06,7.6,0,1,0,1.3-.33,1.16-1.24.09-1.52.18-3,.28-4.56,0,1.83.07,3.66,0,5.49a1,1,0,0,1-.7.69C221,143.11,217.78,143.06,214.55,143Z"/><path class="cls-14" d="M223.2,128.08c-.25.23-.47.61-.76.67a9.28,9.28,0,0,0-6.93,5.23c-.28.63-.27,1.4-.49,2.07a3.38,3.38,0,0,1-.67.87,5.77,5.77,0,0,1,1.89-5.12,27.57,27.57,0,0,1,4.25-3A10.27,10.27,0,0,1,223.2,128.08Z"/><path class="cls-14" d="M224.92,135.06c.19-1.25,1.45-1.73,2.71-1a2.67,2.67,0,0,1,1.36,2.46c0,1.58.1,3.16,0,4.74,0,.32-.51.63-.79.95v-5.9a1.71,1.71,0,0,0-1.09-1.87A2,2,0,0,0,224.92,135.06Z"/><path class="cls-17" d="M228.88,166.25H240.1a2.31,2.31,0,0,1-.73.27q-4.87,0-9.77,0A2.35,2.35,0,0,1,228.88,166.25Z"/><path class="cls-14" d="M214.05,153c.17.27.48.54.48.81q.08,2.43,0,4.86c0,.28-.31.54-.49.81Z"/><path class="cls-14" d="M223.9,144.76c-.2.22-.36.51-.61.63-1.89.88-3.79,1.75-5.7,2.59a4.85,4.85,0,0,1-1.16.18,25,25,0,0,1,2.59-1.52C220.61,146,222.27,145.38,223.9,144.76Z"/><path class="cls-14" d="M230.82,128.16c-2.18,0-4.35.09-6.53.1-.2,0-.41-.28-.61-.43,2.12,0,4.24-.08,6.37-.08C230.3,127.75,230.56,128,230.82,128.16Z"/><path class="cls-14" d="M216.45,148.15c-.51,1.14-1,2.28-1.55,3.41-.06.14-.4.15-.61.22A3.55,3.55,0,0,1,216.45,148.15Z"/><path class="cls-14" d="M227.73,142.83a3.3,3.3,0,0,1-3.36,1.71Z"/><path class="cls-14" d="M239.33,135.24l-1.2-3.18,1.35,2.48Z"/><path class="cls-14" d="M233.81,128.67a1.69,1.69,0,0,1-2.38-.59Z"/><path class="cls-14" d="M237.26,130.94c-.92.26-1.15-.35-1.31-1.05Z"/><path class="cls-14" d="M224.89,136.45c-.7-.5-.8-1,.05-1.41C224.92,135.51,224.91,136,224.89,136.45Z"/><path class="cls-14" d="M238.15,132.08c-.64-.07-1.12-.26-.8-1.06Z"/><path class="cls-16" d="M239.83,137.68l-.08-1.23Z"/><path class="cls-14" d="M235.23,129.43c-.63.32-1,.19-1.2-.54Z"/><path class="cls-17" d="M228.47,163.3l.59,0-.21.55-.41-.15Z"/><path class="cls-16" d="M239.33,135.24l.15-.7.23,1.2-.18,0C239.46,135.56,239.39,135.4,239.33,135.24Z"/><path class="cls-14" d="M228.47,163.3l0,.37-.37.15Z"/><path class="cls-18" d="M216.48,245.68c.1,3.86.32,7.73-1.42,11.37-.2.42-.9.61-1.36.91-.26-.49-.72-1-.74-1.46a19.23,19.23,0,0,1,2.17-9.67c.25-.46.6-.87.9-1.31Z"/><path class="cls-18" d="M227.33,249.11c.43-1.61.85-3.23,1.3-4.94,1,.76,2,3.46,1.45,4.11a7.78,7.78,0,0,1-2.38,1.24Z"/><path class="cls-7" d="M150.12,89.13c0,3.59.06,7.19,0,10.78-.06,2.17-.73,3-2.16,3s-2.07-.64-2.16-2.93c-.13-3.39-.08-6.79-.09-10.18,0-3.16,0-6.31,0-9.46a16.17,16.17,0,0,1,.33-2.85,2,2,0,0,1,2.24-1.72,1.75,1.75,0,0,1,1.78,1.87c.1,3.27.14,6.54.2,9.82,0,.55,0,1.11,0,1.67Z"/><path class="cls-8" d="M135.61,123c-.35.32-1,.64-.89-.09.15-1.79-.75-2.21-2.26-2.15-.1,0-.22-.18-.31-.63h3.45C135.61,121.1,135.61,122.05,135.61,123Z"/><path class="cls-6" d="M110.57,93.77c0,4.76.06,9.15,0,13.53,0,1.66-.69,2.15-2.12,2.15s-2.1-.62-2.16-2.17a74.57,74.57,0,0,1,.07-7.77,5.58,5.58,0,0,1,1.23-2.78A31.5,31.5,0,0,1,110.57,93.77Z"/><path class="cls-5" d="M104.39,135.73c.34-1,.92-1.58,2-1.38s1.33,1.05,1.33,2c0,7.34,0,14.68,0,22,0,1.39-.63,2-1.72,2s-1.25-.69-1.6-1.37Q104.4,147.35,104.39,135.73Z"/><path class="cls-15" d="M104.39,135.73q0,11.63,0,23.25c-.16-.35-.47-.71-.47-1.07q0-10.54,0-21.09A3.08,3.08,0,0,1,104.39,135.73Z"/><path class="cls-7" d="M182.83,147.33c0,3.19,0,6.39,0,9.58,0,.68-.11,1.35-.16,2a1.36,1.36,0,0,1-1.46,1.41,1.46,1.46,0,0,1-1.67-1.36,21,21,0,0,1-.22-2.38q0-9.29,0-18.57a19.13,19.13,0,0,1,.19-2.26,1.49,1.49,0,0,1,1.7-1.46,1.35,1.35,0,0,1,1.47,1.51c.07,3.47.12,6.94.18,10.42v1.08Z"/><path class="cls-7" d="M228.36,148.59c0,3.5,0,7-.05,10.48a1.71,1.71,0,0,1-1.18,1.18,2.23,2.23,0,0,1-1.78-.75c-1.76-3-.09-9.19,2.83-10.91C228.23,148.56,228.32,148.59,228.36,148.59Z"/><path class="cls-6" d="M248.67,186.72a13.8,13.8,0,0,1,7.29-5.21,10.15,10.15,0,0,1,6.46-.4c1.28.39,2.38,1,2.55,2.54a3.06,3.06,0,0,1-1.79,3.13,16.13,16.13,0,0,1-10.83,2.12A6.25,6.25,0,0,1,248.67,186.72Z"/><path class="cls-8" d="M124.56,147.52c0-5.59,0-11.18,0-16.77,0-1.16.36-1.55,1.52-1.52,2.39.07,4.8.06,7.19,0,.95,0,1.44.31,1.51,1.24,0,.48.12.95.12,1.43V164c0,1.07-.41,1.86-1.64,1.85-2.67,0-5.34-.09-8-.23-.25,0-.64-.71-.65-1.1,0-2.95,0-5.91,0-8.87Z"/></g></g></svg>