<svg xmlns="http://www.w3.org/2000/svg" viewBox="0 0 296.65 236.59"><defs><style>.cls-1{fill:#fcfbfc;}.cls-2{fill:#044ea2;}.cls-3{fill:#b2b1fc;}</style></defs><g id="Layer_2" data-name="Layer 2"><g id="Layer_1-2" data-name="Layer 1"><path class="cls-1" d="M42.75,11.84V1H57.86V6.2c2.74-.67,5.34-1.41,8-1.93,4.72-.92,9.44-1.95,14.22-2.5C86.81,1,93.59.32,100.36.1a185.93,185.93,0,0,1,19.89.4c8.07.61,16.11,1.65,24.14,2.73A127.46,127.46,0,0,1,157,5.75c6.46,1.55,12.91,3.18,19.3,5a219.31,219.31,0,0,1,24.06,8.59,224,224,0,0,1,37.45,19.84,167.7,167.7,0,0,1,30.06,25.1,104.82,104.82,0,0,1,19.3,28.05c4.2,9.22,6.63,18.88,6.22,29.09a52,52,0,0,1-7.34,24.83,64,64,0,0,1-17.45,18.85,99.56,99.56,0,0,1-26.37,13.52,146.08,146.08,0,0,1-27.16,6.55,187.45,187.45,0,0,1-40.17,1.51c-6.72-.46-13.47-1-20.12-2-8-1.24-16-2.8-23.91-4.7-7.49-1.8-14.91-4-22.25-6.38a221.76,221.76,0,0,1-27.52-11.23,213.53,213.53,0,0,1-26.66-15.23,176.17,176.17,0,0,1-21.12-16.64,126,126,0,0,1-21.42-25.34,79.68,79.68,0,0,1-9.84-22C-1.33,70.16-.7,57.49,5,45.26A59.72,59.72,0,0,1,22.58,23.64,88.92,88.92,0,0,1,41.39,12.33C41.78,12.15,42.2,12,42.75,11.84ZM261.52,164.09l.41-.33c.65-.38,1.34-.71,1.95-1.15a78.23,78.23,0,0,0,10.52-9,54.05,54.05,0,0,0,8.46-11.4c5.6-10.15,6.94-21,5-32.34-1.55-8.92-5.24-17-9.9-24.71A107.43,107.43,0,0,0,264.78,68a142.74,142.74,0,0,0-17.71-16.25A201.81,201.81,0,0,0,225,36.89a237.25,237.25,0,0,0-26.84-13.28,242.68,242.68,0,0,0-35-11.61,217.75,217.75,0,0,0-32.23-5.8c-6-.56-12-1.17-18-1.28-7-.14-14.07,0-21.08.47-6,.39-12,1.16-17.92,2.13-4.8.78-9.48,2.2-14.25,3.16-1.36.27-1.56.81-1.56,2Q58,49,58,85.29v3H42.48V17.06c-1.95,1-3.74,2-5.51,2.91A70,70,0,0,0,18,34.62a50.73,50.73,0,0,0-8.8,13.17A45.35,45.35,0,0,0,5,63.43,56.81,56.81,0,0,0,5.49,76.2,62.79,62.79,0,0,0,9.83,90.71a86.63,86.63,0,0,0,10.82,18.67,115.51,115.51,0,0,0,18.63,19.89c4.77,4,9.6,7.91,14.61,11.57A156.55,156.55,0,0,0,75.38,154c6.66,3.39,13.42,6.64,20.31,9.54,6.31,2.65,12.79,4.92,19.31,7,6.26,2,12.62,3.75,19,5.35a188.74,188.74,0,0,0,25.65,4.57c4.36.47,8.71,1.12,13.08,1.36a220.75,220.75,0,0,0,30.43-.17,174.42,174.42,0,0,0,20.37-2.82,125,125,0,0,0,22-6.58A94.09,94.09,0,0,0,261.52,164.09Z"/><path class="cls-1" d="M277,197.07,271.07,184a2.14,2.14,0,0,1-.2-.44c-.19-.73-.67-2-.49-2.1a9.75,9.75,0,0,1,3.19-1.1c.33-.05.91.68,1.15,1.16,1.67,3.35,3.28,6.73,4.9,10.11q2.94,6.15,5.86,12.3l.09.22c1.22,2.8.95,3.35-2,3.84a2.2,2.2,0,0,1-1.53-.41c-3.32-2.63-6.59-5.31-9.89-8a16.87,16.87,0,0,0-1.62-1l-.26.24c.17.38.32.76.5,1.12,1.78,3.57,3.6,7.12,5.33,10.71.9,1.85.38,2.31-1.66,2.69-1.6.3-2.13-.33-2.69-1.56-2.91-6.29-5.89-12.55-8.82-18.83-.66-1.41-1.21-2.87-1.82-4.3-.34-.77-.1-1.14.71-1.39a4.52,4.52,0,0,1,5.14,1.3c2.71,2.87,5.66,5.52,8.54,8.23a5.71,5.71,0,0,0,1.3.68Z"/><path class="cls-1" d="M223.56,202.76c-3.05,2.18-3.18,5.4-.47,7.48,1.86,1.43,3.86,2.69,5.71,4.15a10.94,10.94,0,0,1,3.82,5.11,4.28,4.28,0,0,1,.23.92c.46,5.21-5.45,9.4-10.18,7.19-1.9-.89-4-1.67-5-3.68a9.92,9.92,0,0,1-.81-2.8c0-.19.61-.73.87-.68a8.2,8.2,0,0,1,2.31.79c1.32.73,2.54,1.64,3.87,2.34a2.11,2.11,0,0,0,2.58-.12,2.54,2.54,0,0,0,.54-2.67,7.1,7.1,0,0,0-2.93-4c-1.37-1-2.83-2-4.18-3a8.6,8.6,0,0,1-2.58-11.2,17.74,17.74,0,0,1,2-3,4,4,0,0,1,4.94-1.21,8.42,8.42,0,0,1,6,8.07c.11,2-.91,2.84-2.83,2.23a4.68,4.68,0,0,1-3-3.44C224.18,204.49,223.88,203.69,223.56,202.76Z"/><path class="cls-1" d="M250.6,220.69c-2.71,1.19-5.35,2.39-8,3.51a3.24,3.24,0,0,1-4.41-1.95q-1.8-5.76-3.37-11.59c-.92-3.38-1.71-6.8-2.53-10.2a18.8,18.8,0,0,1-.38-2.48,1.14,1.14,0,0,1,1.19-1.42,8,8,0,0,0,2.14-.56c1.45-.56,2.85-1.24,4.3-1.76s3.86,1.19,3.76,2.79a1.38,1.38,0,0,1-.73.93c-1.49.68-3,1.33-4.53,1.88-.85.3-1.12.62-.85,1.56.5,1.7.81,3.46,1.23,5.33.56-.15,1-.24,1.45-.39.78-.28,1.55-.63,2.33-.9,2.69-.92,3.41-.52,4.38,2.15.32.87,0,1.27-.7,1.56-1.64.62-3.27,1.25-4.93,1.83-1,.36-1.32.91-1,2,.54,1.66.95,3.37,1.34,5.08.21.88.61,1.13,1.44.75,1.2-.54,2.41-1.06,3.62-1.56a2.61,2.61,0,0,1,3.61,1.6C250.17,219.4,250.35,220,250.6,220.69Z"/><path class="cls-1" d="M267.33,214.78c-2.64,1.44-5.2,2.89-7.81,4.24a3.12,3.12,0,0,1-4.4-1.53q-2.72-6.83-5.19-13.74c-1-2.88-1.91-5.82-2.84-8.75a9.71,9.71,0,0,1-.29-1.52c-.1-.73.27-1.07,1-1.26a15.8,15.8,0,0,0,2.29-.86c1.44-.68,2.84-1.44,4.29-2.11s3.65,1.28,3.79,2.59c0,.31-.37.79-.69,1-1.43.8-2.87,1.57-4.36,2.23-.84.36-1.07.71-.72,1.62.54,1.4.92,2.88,1.34,4.33.23.82.62,1,1.4.57a30.85,30.85,0,0,1,3.8-1.71c1.61-.57,3.82,1.32,3.55,3-.05.3-.47.63-.79.8-1.6.81-3.21,1.58-4.84,2.35-.84.39-1.2.84-.77,1.85.66,1.53,1.15,3.14,1.68,4.72s.53,1.6,2,.81c1-.53,2-1.13,3-1.66a2.61,2.61,0,0,1,3.79,1.41C266.83,213.62,267.05,214.12,267.33,214.78Z"/><path class="cls-1" d="M184.62,214.17a2.61,2.61,0,0,1,3.26-1.34,4.68,4.68,0,0,1,3.59,3.9,22.37,22.37,0,0,1-.72,10.53,10.85,10.85,0,0,1-1,2.15c-1.29,2.08-3,2.61-5.34,1.9-.95-.29-2-.23-3-.48a1.73,1.73,0,0,1-1.1-1,19.67,19.67,0,0,1-.45-4c.12-7.31.32-14.62.49-21.93,0-.2,0-.4,0-.6,0-.91-.41-2,1.25-1.93,2,.09,2.82.59,2.79,2.14-.07,3.07-.21,6.15-.3,9.22a8.19,8.19,0,0,0,.13,1.31Zm-.36,14c1.84-.53,1.84-.53,2.27-1.72a5.31,5.31,0,0,0,.2-.56,30.83,30.83,0,0,0,.73-9.38,1.21,1.21,0,0,0-.16-.42C184.84,217.46,183.21,226.07,184.26,228.19Z"/><path class="cls-1" d="M117.79,204.26a19.15,19.15,0,0,1,2.92.8,9.69,9.69,0,0,1,2.64,1.72,1.93,1.93,0,0,1,.24,2.45,1.73,1.73,0,0,1-2.15,1c-1.18-.34-2.4-.56-3.57-.93-.83-.26-1.23-.09-1.47.77-.87,3.06-1.79,6.11-2.69,9.17-.54,1.83-1.11,2.33-2.26,1.95a2.79,2.79,0,0,1-1.92-3.4c1.52-5.6,3-11.21,4.53-16.82.71-2.61,1.48-5.21,2.19-7.82.17-.65.47-1,1.18-.82,2.55.58,5.13,1.08,7.66,1.76a3.56,3.56,0,0,1,2.48,3.87c-.18,1.07-.73,1.44-1.75,1.16-1.54-.41-3.08-.83-4.61-1.26s-1.66-.22-2,1.26C118.89,200.79,118.33,202.41,117.79,204.26Z"/><path class="cls-1" d="M138.53,219.82c1.43-3.57,2.88-7.12,4.27-10.7.9-2.3,1-2.36,3-1,1.66,1.07,1.7,1.09.91,2.94-2.14,5-4.34,9.92-6.48,14.9q-2.13,4.94-4.16,9.9c-.33.81-.79,1-1.46.48a5.41,5.41,0,0,1-1.53-1.3,2.42,2.42,0,0,1-.3-1.82c.9-2.51,2-4.95,2.94-7.44.13-.34.17-1,0-1.12a3.6,3.6,0,0,1-1.23-3.13c.09-4.34.32-8.68.52-13,0-1,.45-1.31,1.49-.87,2,.86,2.09.83,2,3-.11,2.67-.25,5.34-.36,8a6.65,6.65,0,0,0,.13,1.17Z"/><path class="cls-1" d="M194,223.61a23.94,23.94,0,0,1,1.73-9.63c.83-2,1.58-2.58,3.77-2.24,3.47.55,4.15,1.17,4.93,4a35.72,35.72,0,0,1,.73,5.08c.1.74-.3,1-1,1.18-1.68.33-3.33.76-5,1.12a1.26,1.26,0,0,0-1.1,1.55l.15,1.43c.16,1.44,1,1.9,2.08,1s1.92-2.21,2.94-3.26c.32-.34,1-.77,1.28-.64a2.72,2.72,0,0,1,1.35,1.41,2.68,2.68,0,0,1-.3,1.93,18.46,18.46,0,0,1-2.59,3.68c-1.48,1.52-2.79,1.46-5.56,0A6.5,6.5,0,0,1,194,223.61Zm6.33-8.82h-.72c-.4,1.59-.81,3.18-1.24,4.84,1.58,0,2.8-.5,2.72-1.1C200.93,217.28,200.59,216,200.33,214.79Z"/><path class="cls-1" d="M124.24,221.73c.48-2.2,1-5,1.71-7.71,1.5-5.93,3.09-11.85,4.66-17.77.4-1.54.57-1.6,2.06-1.07,2,.72,2.38,1.58,1.87,3.54q-3.24,12.35-6.4,24.7c-.35,1.39-1,1.76-2.22,1.09A2.52,2.52,0,0,1,124.24,221.73Z"/><path class="cls-1" d="M290.05,196.33a3.91,3.91,0,0,1-1.19-1c-1.49-2.35-3-4.72-4.32-7.16-1.75-3.18-3.35-6.43-5-9.64-.4-.77-.38-1.46.45-1.8a15.8,15.8,0,0,1,3.4-1c.35-.06,1.08.54,1.21,1,1.85,5.92,4.94,11.3,7.45,16.93C292.85,195.53,292.57,196.19,290.05,196.33Z"/><path class="cls-1" d="M164.87,222.14c-2.22-.17-4.28-.29-6.34-.5-1-.1-2.12-2.38-1.61-3.27a1.06,1.06,0,0,1,.89-.36c2.46.21,4.93.43,7.38.72,1.05.13,2,2.52,1.21,3.18C166,222.23,165.29,222.09,164.87,222.14Z"/><path class="cls-1" d="M293,197a3.32,3.32,0,0,1,3.62,3.29c0,1.94-.79,2.75-2.73,2.92a3,3,0,0,1-3.27-2.65C290.63,197.82,291.17,197,293,197Z"/><path class="cls-2" d="M261.52,164.09a94.09,94.09,0,0,1-16,8.19,125,125,0,0,1-22,6.58,174.42,174.42,0,0,1-20.37,2.82,220.75,220.75,0,0,1-30.43.17c-4.37-.24-8.72-.89-13.08-1.36A188.74,188.74,0,0,1,134,175.92c-6.38-1.6-12.74-3.33-19-5.35-6.52-2.1-13-4.37-19.31-7C88.8,160.65,82,157.4,75.38,154a156.55,156.55,0,0,1-21.49-13.17c-5-3.66-9.84-7.6-14.61-11.57a115.51,115.51,0,0,1-18.63-19.89A86.63,86.63,0,0,1,9.83,90.71,62.79,62.79,0,0,1,5.49,76.2,56.81,56.81,0,0,1,5,63.43,45.35,45.35,0,0,1,9.15,47.79,50.73,50.73,0,0,1,18,34.62,70,70,0,0,1,37,20c1.77-.95,3.56-1.88,5.51-2.91V88.29H58v-3Q58,49,58,12.7c0-1.21.2-1.75,1.56-2,4.77-1,9.45-2.38,14.25-3.16,5.93-1,11.92-1.74,17.92-2.13,7-.45,14.06-.61,21.08-.47,6,.11,12,.72,18,1.28A217.75,217.75,0,0,1,163.08,12a242.68,242.68,0,0,1,35,11.61A237.25,237.25,0,0,1,225,36.89a201.81,201.81,0,0,1,22.1,14.87A142.74,142.74,0,0,1,264.78,68a107.43,107.43,0,0,1,13.14,17.17c4.66,7.69,8.35,15.79,9.9,24.71,2,11.32.64,22.19-5,32.34a54.05,54.05,0,0,1-8.46,11.4,78.23,78.23,0,0,1-10.52,9c-.61.44-1.3.77-1.95,1.15l-.27-.26c0-.31.21-.66.12-.92-.51-1.51.12-2.74.87-4s1.81-2.63,2.53-4a11.15,11.15,0,0,0,1.17-3.58c.18-1.36-.6-2-1.93-1.63a19.54,19.54,0,0,0-3.66,1.39c-1.91,1-3.76,2-5.78,3.14-.14-.49-.25-.86-.36-1.22a15.32,15.32,0,0,0-.78-2.25,1.64,1.64,0,0,0-2.47-.92c-3.14,1.36-6.79,2-8.41,5.63-.06.14-.21.24-.31.37-1.17,1.41-2.37,2.8-3.49,4.26a8,8,0,0,0-.8,1.72l.33.27a11,11,0,0,0,1.91-1.06c1.36-1.17,2.62-2.47,4-3.66,1.94-1.71,3.92-3.39,5.9-5.07.65-.55,1.12-.42,1.39.44a3.07,3.07,0,0,1-.45,3.15c-.89,1-1.84,2-2.74,3a9.77,9.77,0,0,0-.8,1.32,4.46,4.46,0,0,0,1-.2c1.56-.8,3.13-1.58,4.65-2.45,2.93-1.69,5.83-3.46,8.76-5.16a8.65,8.65,0,0,1,1.63-.53,16.65,16.65,0,0,1-.65,1.81c-.92,1.72-2,3.38-2.78,5.15a10.61,10.61,0,0,0-.93,3.53,1.58,1.58,0,0,0,1.8,1.82ZM107.09,95a52.9,52.9,0,0,0,6,1.59,31,31,0,0,0,14.66-1.1c4.84-1.66,8.5-5.73,8.45-11.59-.14-14.64,0-29.27.05-43.9a7.77,7.77,0,0,0-.13-1l-.7,0c-4.08,0-8.16,0-12.24,0a1.4,1.4,0,0,0-1,.75c-.37.88-.6,1.83-.89,2.76a2.62,2.62,0,0,1-.36-.13,5.55,5.55,0,0,1-.42-.42,10.74,10.74,0,0,0-7.61-3.81c-5.39-.34-9.62,1.58-10.7,7.51a41.53,41.53,0,0,0-.65,6.3c-.09,4.79,0,9.59,0,14.39,0,2.28.11,4.55.26,6.83.27,4,1.85,7.19,5.73,8.64,4.62,1.72,9.08,1.31,13.08-1.87.22-.18.47-.33.74-.53,0,2.34.13,4.53,0,6.7-.12,1.59-1.16,2.26-2.74,2.19a2.39,2.39,0,0,1-2.41-2.35c0-.27-.07-.54-.12-.87h-14.7l1.38,5.87a7.34,7.34,0,0,1-.93.1c-2,0-4,0-6,0-.34,0-1,.42-1,.67-.08,1.67,0,3.34,0,5.1h11.43ZM62.92,57.93a1.87,1.87,0,0,0,.4.12c4,0,8.08,0,12.11,0,1.15,0,1.49-.29,1.48-1.45,0-2.63.07-5.27.18-7.91a1.82,1.82,0,0,1,2-2,2,2,0,0,1,2.2,1.93c.21,2.41.23,4.85.22,7.28A2.34,2.34,0,0,1,80,58.07L74.7,60.49c-2.78,1.28-5.59,2.51-8.32,3.88a5.91,5.91,0,0,0-3.2,5.28c-.18,3.14-.31,6.3-.24,9.45.14,5.86,2.2,8.56,7.51,9.86,4,1,8.75.08,11-4.1a3.28,3.28,0,0,0,.17-.58l.42.27V88.3H96.91c-.22-13-.35-25.85-.69-38.7-.16-5.89-4-9.11-8.15-10.38a25.48,25.48,0,0,0-15.78,0c-3.86,1.28-7.07,3.54-8.42,7.68C62.69,50.48,62.89,54.2,62.92,57.93Zm27.49,79.44V99.74c0-2.51,0-5,0-7.55,0-1-.31-1.23-1.24-1.22-3,0-6.08,0-9.12,0-.82,0-1.12.22-1.1,1.09,0,2.27,0,4.55,0,6.83v2.6a3.07,3.07,0,0,1-.54,0,1.67,1.67,0,0,1-.4-.25,9.31,9.31,0,0,0-7.89-2.28c-2.8.36-6.05,2.42-6.07,6.17q-.08,13.31,0,26.6a6,6,0,0,0,3.51,5.46c3.19,1.73,7.15,1.13,10.23-1.54.29-.26.64-.46,1.18-.84v2.61ZM35.94,47.88h3.59V40.2c-1.81,0-3.56,0-5.31,0-.33,0-.87-.16-1-.39a2.86,2.86,0,0,1,2.41-4c1.27-.09,2.54-.12,3.83-.18V28.09c-1.07,0-2-.05-3,0a95.73,95.73,0,0,0-9.89.76,6.2,6.2,0,0,0-5.5,6.62C21.18,36.76,21,38,21,39.32c0,.66-.21,1-.9.9s-1.4,0-2.1,0V48h3V88.33h15Zm114.23,86.31c1.07,1,1.78,1.71,2.6,2.32,3.26,2.42,8.1,2.06,10.62-.72,1.51-1.67,1.75-3.77,1.79-5.83.13-6.15.12-12.31.13-18.47,0-1.88,0-3.76-.15-5.63a6.92,6.92,0,0,0-1.53-4.55c-3.28-3.56-9-3.37-12.43.45a12,12,0,0,1-1.08.93c.07-.91.06-1.47.15-2,.18-1-.17-1.29-1.21-1.26-2.91.08-5.84,0-8.76,0-1.55,0-1.55,0-1.55,1.57v6.23c0,11.4,0,22.8,0,34.2,0,1.18.35,1.47,1.48,1.44,2.92-.07,5.84,0,8.76,0,.35,0,.7,0,1.21-.07ZM184.82,114c3.66,0,6.93,0,10.2-.05.24,0,.65-.61.67-.95.11-2,.13-3.92.17-5.87,0-1,.27-1.74,1.44-1.8s1.93.38,2.07,1.63c.17,1.46.17,3,.24,4.42a3.24,3.24,0,0,1-2.34,3.34c-3,1.24-5.93,2.57-8.87,3.91a5,5,0,0,0-3.13,4.47c-.14,2.51-.28,5-.17,7.54.16,3.23,1.29,5.9,4.78,7,3.18,1,7.14.63,9.22-2.54.13-.2.38-.31.84-.67v2.94h11a3.17,3.17,0,0,0,.08-.46q0-11.8,0-23.63,0-.36,0-.72c-.13-1.76-.27-3.51-.4-5.27a9.49,9.49,0,0,0-.15-1.42,8.33,8.33,0,0,0-5.83-6.14,19.92,19.92,0,0,0-11.24-.38c-3.74.93-6.85,2.91-7.71,7A69.24,69.24,0,0,0,184.82,114Zm30.88,22.84c0,1.75,0,3.3,0,4.85,0,.93.35,1.15,1.2,1.12,3.24-.1,6.47-.1,9.71-.23,4.92-.21,7.72-2.81,8.38-7.7.52-3.88,1-7.75,1.5-11.64q1.28-10.16,2.52-20.32c.14-1.13.22-2.26.33-3.45-.42,0-.69-.08-1-.08-2.68,0-5.36.08-8,0-.86,0-1.22.16-1.27,1.07-.15,2.63-.37,5.25-.56,7.88q-.5,7.17-1,14.35a4.5,4.5,0,0,1-.45,1.1,6.36,6.36,0,0,1-.41-1c-.3-2-.56-4-.86-6-.81-5.48-1.64-11-2.43-16.46-.11-.71-.39-.93-1.09-.92-2.11.06-4.23.06-6.35.08H213c0,.38,0,.66.08.92l3.81,19q1.5,7.56,3,15.14c.31,1.57-.14,2.17-1.72,2.31C217.37,136.91,216.58,136.85,215.7,136.85Zm-91.36-25.47c3.28,0,6.36,0,9.43,0,.24,0,.66-.53.67-.82,0-1.31,0-2.63-.07-4a6.84,6.84,0,0,0-2.85-5.18A11.38,11.38,0,0,0,125.47,99c-3.42-.39-6.86-.43-10.15.92a7.16,7.16,0,0,0-4.89,6.1c-.16,1.39-.22,2.79-.28,4.18a9.45,9.45,0,0,0,5.18,9.15c2.66,1.54,5.31,3.11,7.92,4.72.51.31,1.15.85,1.21,1.36a22.32,22.32,0,0,1,.18,4.62c-.09,1.17-.92,1.57-2.3,1.49a1.58,1.58,0,0,1-1.64-1.68c-.1-1.52-.19-3-.2-4.55,0-.77-.21-1.07-1-1.06-2.71,0-5.43,0-8.15,0-.67,0-1,.21-.92.9,0,1.16,0,2.32.07,3.48.25,3.91,1.87,6.88,5.77,8.26a19.42,19.42,0,0,0,13.48.11,7.24,7.24,0,0,0,4.7-4.48,23.27,23.27,0,0,0,.88-4.56c.59-5.21-1.11-9.24-6.08-11.58-2.1-1-4.12-2.12-6.13-3.29a5.08,5.08,0,0,1-2.61-6c.33-1.44.85-1.87,2.22-1.78,1.2.08,1.55.47,1.62,2C124.38,108.63,124.34,109.91,124.34,111.38Zm116.89,13c0,1.35-.07,2.59,0,3.82.3,5.16,2.13,7.65,6.81,9.1a19.9,19.9,0,0,0,11.11.21c3.92-1,6.3-3.55,6.73-7.64a42,42,0,0,0,.07-5.5,7.44,7.44,0,0,0-3.69-6.48c-2.42-1.47-4.91-2.83-7.43-4.11-2.68-1.36-4.08-3.31-3.62-6.43.2-1.35.82-2,2.17-2s1.65.45,1.71,1.94,0,2.68,0,4h10.07c0-1.55.05-3,0-4.49a6.73,6.73,0,0,0-3.66-5.94,18,18,0,0,0-16.58-.35,5.77,5.77,0,0,0-3.51,4.57,46.13,46.13,0,0,0-.41,6.54,8,8,0,0,0,3.61,6.69c1,.68,2,1.36,3,2,2.09,1.26,4.23,2.42,6.29,3.72a3,3,0,0,1,1.4,1.64,18.09,18.09,0,0,1,.17,4.16,1.75,1.75,0,0,1-2,1.75c-1.21,0-1.91-.45-2-1.67-.07-.71-.16-1.43-.18-2.14,0-1.11,0-2.22,0-3.4Zm-71.78,13.1c.76,0,1.4,0,2,0l9.55-.17c0-3.15.11-6.3.12-9.45q0-12.24,0-24.47c0-3.76,0-7.52,0-11.28,0-.68,0-1.12-.95-1.11-3.28,0-6.56,0-9.84,0-.71,0-1,.2-1,1q0,21.71,0,43.43Zm-62.87-.09V114.61c0-4.67,0-9.35,0-14,0-.93-.24-1.2-1.24-1.17-3.07.09-6.15.1-9.23,0-1.1,0-1.33.27-1.32,1.31q0,17.51,0,35v1.62Zm118.94,24.49a20.37,20.37,0,0,0,9.88-2.62,4.7,4.7,0,0,0,1.2-7.38,6.4,6.4,0,0,0-4.57-2.06c-5-.16-9.26,1.81-12.95,5-2.56,2.19-1.84,5.28,1.39,6.23A41.88,41.88,0,0,0,225.52,161.85ZM209.89,149l.18.44c-.23.31-.46.61-.68.93a13,13,0,0,0-.72,1.1,1.11,1.11,0,0,0,1,1.78,1.59,1.59,0,0,0,1.18-.68,22.78,22.78,0,0,0,1.7-4.39,1.44,1.44,0,0,0-2.06-1.61c-2.83,1-5.7,2.05-8.43,3.34a13,13,0,0,0-6.15,5.32c-1.56,2.88-.55,5.63,2.52,6.74a10.44,10.44,0,0,0,2.68.53,31.43,31.43,0,0,0,9.86-.77c1.55-.37,3-1,4.54-1.5l-.16-.47a19,19,0,0,1-3.25,1c-3,.35-6.12.57-9.18.77a7.9,7.9,0,0,1-2.25-.29c-3.67-.91-4.71-4-2.21-6.88a16.87,16.87,0,0,1,8.4-5A18.61,18.61,0,0,1,209.89,149Zm-18.74,13.18a10.87,10.87,0,0,1,2-.85c1.06-.23,1.34-.85,1.25-2-1,0-1.9,0-2.84,0s-1.14.67-1,1.44A9.22,9.22,0,0,0,191.15,162.17Z"/><path class="cls-2" d="M261.93,163.76l-.41.33-.2-.23.34-.36Z"/><path class="cls-1" d="M102.75,90.92l-1.38-5.87h14.7c.05.33.08.6.12.87a2.39,2.39,0,0,0,2.41,2.35c1.58.07,2.62-.6,2.74-2.19.17-2.17,0-4.36,0-6.7-.27.2-.52.35-.74.53-4,3.18-8.46,3.59-13.08,1.87-3.88-1.45-5.46-4.69-5.73-8.64-.15-2.28-.25-4.55-.26-6.83,0-4.8-.08-9.6,0-14.39a41.53,41.53,0,0,1,.65-6.3c1.08-5.93,5.31-7.85,10.7-7.51a10.74,10.74,0,0,1,7.61,3.81,5.55,5.55,0,0,0,.42.42,2.62,2.62,0,0,0,.36.13c.29-.93.52-1.88.89-2.76a1.4,1.4,0,0,1,1-.75c4.08-.05,8.16,0,12.24,0l.7,0a7.77,7.77,0,0,1,.13,1c0,14.63-.19,29.26-.05,43.9.05,5.86-3.61,9.93-8.45,11.59a31,31,0,0,1-14.66,1.1,52.9,52.9,0,0,1-6-1.59,9.86,9.86,0,0,1-.44-1.9c-.07-2.32.2-2.15-2.11-2.16ZM121,60.39h0c0-3.91,0-7.83,0-11.74a1.73,1.73,0,0,0-1.78-1.86,2,2,0,0,0-2.21,1.59,13.5,13.5,0,0,0-.39,3q0,9.28,0,18.58a16.56,16.56,0,0,0,.3,2.62A1.65,1.65,0,0,0,118.62,74c1.41.14,2.34-.6,2.39-2.33C121.11,67.9,121,64.15,121,60.39Z"/><path class="cls-1" d="M62.92,57.93c0-3.73-.23-7.45.95-11,1.35-4.14,4.56-6.4,8.42-7.68a25.48,25.48,0,0,1,15.78,0c4.16,1.27,8,4.49,8.15,10.38.34,12.85.47,25.72.69,38.7H82.09V84.55l-.42-.27a3.28,3.28,0,0,1-.17.58c-2.3,4.18-7,5.1-11,4.1-5.31-1.3-7.37-4-7.51-9.86-.07-3.15.06-6.31.24-9.45a5.91,5.91,0,0,1,3.2-5.28c2.73-1.37,5.54-2.6,8.32-3.88L80,58.07A2.34,2.34,0,0,0,81.55,56c0-2.43,0-4.87-.22-7.28a2,2,0,0,0-2.2-1.93,1.82,1.82,0,0,0-2,2c-.11,2.64-.21,5.28-.18,7.91,0,1.16-.33,1.48-1.48,1.45-4-.07-8.07,0-12.11,0A1.87,1.87,0,0,1,62.92,57.93Zm18.75,7.19c-1.89,1.28-4,2.42-4.24,4.65a68.27,68.27,0,0,0-.18,9,2.27,2.27,0,0,0,1.24,1.55c1.78.77,3.08-.19,3.12-2.26.06-3.39,0-6.78.06-10.17Z"/><path class="cls-3" d="M90.41,137.37H79v-2.61c-.54.38-.89.58-1.18.84-3.08,2.67-7,3.27-10.23,1.54a6,6,0,0,1-3.51-5.46q-.08-13.29,0-26.6c0-3.75,3.27-5.81,6.07-6.17A9.31,9.31,0,0,1,78,101.19a1.67,1.67,0,0,0,.4.25,3.07,3.07,0,0,0,.54,0v-2.6c0-2.28,0-4.56,0-6.83,0-.87.28-1.1,1.1-1.09,3,0,6.08,0,9.12,0,.93,0,1.27.25,1.24,1.22-.05,2.52,0,5,0,7.55v37.63ZM75.35,118.46h0c0,3.35,0,6.71,0,10.06a7,7,0,0,0,.23,1.89,1.41,1.41,0,0,0,2,1c1-.29,1.17-1.12,1.18-2,.05-5.71.1-11.42.12-17.13,0-1.72,0-3.44-.12-5.15-.06-1.22-.64-1.74-1.7-1.72s-1.67.7-1.68,2.28C75.34,111.26,75.35,114.86,75.35,118.46Z"/><path class="cls-1" d="M35.94,47.88V88.33H21V48H18V40.21c.7,0,1.4,0,2.1,0s.9-.24.9-.9c0-1.28.2-2.56.14-3.84a6.2,6.2,0,0,1,5.5-6.62,95.73,95.73,0,0,1,9.89-.76c1-.06,1.91,0,3,0v7.48c-1.29.06-2.56.09-3.83.18a2.86,2.86,0,0,0-2.41,4c.1.23.64.38,1,.39,1.75,0,3.5,0,5.31,0v7.68Z"/><path class="cls-3" d="M150.17,134.19v8.6c-.51,0-.86.07-1.21.07-2.92,0-5.84,0-8.76,0-1.13,0-1.48-.26-1.48-1.44.05-11.4,0-22.8,0-34.2V101c0-1.6,0-1.58,1.55-1.57,2.92,0,5.85,0,8.76,0,1,0,1.39.24,1.21,1.26-.09.54-.08,1.1-.15,2a12,12,0,0,0,1.08-.93c3.46-3.82,9.15-4,12.43-.45a6.92,6.92,0,0,1,1.53,4.55c.13,1.87.16,3.75.15,5.63,0,6.16,0,12.32-.13,18.47,0,2.06-.28,4.16-1.79,5.83-2.52,2.78-7.36,3.14-10.62.72C152,135.9,151.24,135.15,150.17,134.19Zm3.52-15.73h0c0-3.87,0-7.75,0-11.62a1.33,1.33,0,0,0-1.41-1.45,1.46,1.46,0,0,0-1.73,1.27,14.92,14.92,0,0,0-.25,2.5q0,8.86,0,17.74c0,.95.1,1.91.18,2.86s.58,1.74,1.73,1.71,1.51-.75,1.52-1.75Z"/><path class="cls-3" d="M184.82,114a69.24,69.24,0,0,1,.81-7.69c.86-4.08,4-6.06,7.71-7a19.92,19.92,0,0,1,11.24.38,8.33,8.33,0,0,1,5.83,6.14,9.49,9.49,0,0,1,.15,1.42c.13,1.76.27,3.51.4,5.27q0,.36,0,.72,0,11.82,0,23.63a3.17,3.17,0,0,1-.08.46h-11v-2.94c-.46.36-.71.47-.84.67-2.08,3.17-6,3.51-9.22,2.54-3.49-1.07-4.62-3.74-4.78-7-.11-2.51,0-5,.17-7.54a5,5,0,0,1,3.13-4.47c2.94-1.34,5.89-2.67,8.87-3.91a3.24,3.24,0,0,0,2.34-3.34c-.07-1.47-.07-3-.24-4.42-.14-1.25-.83-1.69-2.07-1.63s-1.42.81-1.44,1.8c0,2-.06,3.91-.17,5.87,0,.34-.43.95-.67.95C191.75,114,188.48,114,184.82,114Zm14.69,5.43c-1.68,1.2-3.2,2.21-3.39,4.1a53.59,53.59,0,0,0-.1,6.21,1.63,1.63,0,0,0,1.73,1.75c1.08,0,1.64-.52,1.68-1.88.08-2.59.06-5.19.08-7.78C199.52,121.14,199.51,120.44,199.51,119.44Z"/><path class="cls-3" d="M215.7,136.85c.88,0,1.67.06,2.45,0,1.58-.14,2-.74,1.72-2.31q-1.47-7.58-3-15.14l-3.81-19c-.05-.26-.05-.54-.08-.92h2.89c2.12,0,4.24,0,6.35-.08.7,0,1,.21,1.09.92.79,5.49,1.62,11,2.43,16.46.3,2,.56,4,.86,6a6.36,6.36,0,0,0,.41,1,4.5,4.5,0,0,0,.45-1.1q.53-7.17,1-14.35c.19-2.63.41-5.25.56-7.88,0-.91.41-1.09,1.27-1.07,2.68.06,5.36,0,8,0,.27,0,.54,0,1,.08-.11,1.19-.19,2.32-.33,3.45q-1.25,10.17-2.52,20.32c-.49,3.89-1,7.76-1.5,11.64-.66,4.89-3.46,7.49-8.38,7.7-3.24.13-6.47.13-9.71.23-.85,0-1.24-.19-1.2-1.12C215.74,140.15,215.7,138.6,215.7,136.85Z"/><path class="cls-3" d="M124.34,111.38c0-1.47,0-2.75,0-4-.07-1.55-.42-1.94-1.62-2-1.37-.09-1.89.34-2.22,1.78a5.08,5.08,0,0,0,2.61,6c2,1.17,4,2.3,6.13,3.29,5,2.34,6.67,6.37,6.08,11.58a23.27,23.27,0,0,1-.88,4.56,7.24,7.24,0,0,1-4.7,4.48,19.42,19.42,0,0,1-13.48-.11c-3.9-1.38-5.52-4.35-5.77-8.26-.07-1.16,0-2.32-.07-3.48,0-.69.25-.9.92-.9,2.72,0,5.44,0,8.15,0,.81,0,1,.29,1,1.06,0,1.51.1,3,.2,4.55a1.58,1.58,0,0,0,1.64,1.68c1.38.08,2.21-.32,2.3-1.49a22.32,22.32,0,0,0-.18-4.62c-.06-.51-.7-1-1.21-1.36-2.61-1.61-5.26-3.18-7.92-4.72a9.45,9.45,0,0,1-5.18-9.15c.06-1.39.12-2.79.28-4.18a7.16,7.16,0,0,1,4.89-6.1c3.29-1.35,6.73-1.31,10.15-.92a11.38,11.38,0,0,1,6.05,2.38,6.84,6.84,0,0,1,2.85,5.18c0,1.32.11,2.64.07,4,0,.29-.43.81-.67.82C130.7,111.39,127.62,111.38,124.34,111.38Z"/><path class="cls-3" d="M241.23,124.35h10c0,1.18,0,2.29,0,3.4,0,.71.11,1.43.18,2.14.13,1.22.83,1.69,2,1.67a1.75,1.75,0,0,0,2-1.75,18.09,18.09,0,0,0-.17-4.16,3,3,0,0,0-1.4-1.64c-2.06-1.3-4.2-2.46-6.29-3.72-1-.61-2-1.29-3-2a8,8,0,0,1-3.61-6.69,46.13,46.13,0,0,1,.41-6.54,5.77,5.77,0,0,1,3.51-4.57,18,18,0,0,1,16.58.35,6.73,6.73,0,0,1,3.66,5.94c.06,1.47,0,2.94,0,4.49H255.11c0-1.34,0-2.68,0-4s-.47-1.9-1.71-1.94-2,.63-2.17,2c-.46,3.12.94,5.07,3.62,6.43,2.52,1.28,5,2.64,7.43,4.11a7.44,7.44,0,0,1,3.69,6.48,42,42,0,0,1-.07,5.5c-.43,4.09-2.81,6.59-6.73,7.64a19.9,19.9,0,0,1-11.11-.21c-4.68-1.45-6.51-3.94-6.81-9.1C241.16,126.94,241.23,125.7,241.23,124.35Z"/><path class="cls-3" d="M169.45,137.45v-2.08q0-21.72,0-43.43c0-.76.25-1,1-1,3.28,0,6.56,0,9.84,0,.9,0,.95.43.95,1.11,0,3.76,0,7.52,0,11.28q0,12.24,0,24.47c0,3.15-.08,6.3-.12,9.45l-9.55.17C170.85,137.46,170.21,137.45,169.45,137.45Z"/><path class="cls-3" d="M106.58,137.36H94.82v-1.62q0-17.51,0-35c0-1,.22-1.35,1.32-1.31,3.08.09,6.16.08,9.23,0,1,0,1.25.24,1.24,1.17,0,4.68,0,9.36,0,14v22.75Z"/><path class="cls-1" d="M261.66,163.5l-.34.36a1.58,1.58,0,0,1-1.8-1.82,10.61,10.61,0,0,1,.93-3.53c.81-1.77,1.86-3.43,2.78-5.15a16.65,16.65,0,0,0,.65-1.81,8.65,8.65,0,0,0-1.63.53c-2.93,1.7-5.83,3.47-8.76,5.16-1.52.87-3.09,1.65-4.65,2.45a4.46,4.46,0,0,1-1,.2,9.77,9.77,0,0,1,.8-1.32c.9-1,1.85-2,2.74-3a3.07,3.07,0,0,0,.45-3.15c-.27-.86-.74-1-1.39-.44-2,1.68-4,3.36-5.9,5.07-1.34,1.19-2.6,2.49-4,3.66a11,11,0,0,1-1.91,1.06l-.33-.27a8,8,0,0,1,.8-1.72c1.12-1.46,2.32-2.85,3.49-4.26.1-.13.25-.23.31-.37,1.62-3.64,5.27-4.27,8.41-5.63a1.64,1.64,0,0,1,2.47.92,15.32,15.32,0,0,1,.78,2.25c.11.36.22.73.36,1.22,2-1.11,3.87-2.19,5.78-3.14a19.54,19.54,0,0,1,3.66-1.39c1.33-.35,2.11.27,1.93,1.63a11.15,11.15,0,0,1-1.17,3.58c-.72,1.42-1.69,2.7-2.53,4s-1.38,2.44-.87,4C261.87,162.84,261.71,163.19,261.66,163.5Z"/><path class="cls-1" d="M225.52,161.85a41.88,41.88,0,0,1-5.05-.84c-3.23-.95-3.95-4-1.39-6.23,3.69-3.18,7.95-5.15,12.95-5a6.4,6.4,0,0,1,4.57,2.06,4.7,4.7,0,0,1-1.2,7.38A20.37,20.37,0,0,1,225.52,161.85Zm-6.14-3.71a17,17,0,0,0,3.73,1.88,15.45,15.45,0,0,0,11.22-2.15,3,3,0,0,0-.83-5.65,10.76,10.76,0,0,0-6.79.43A14.15,14.15,0,0,0,219.38,158.14Z"/><path class="cls-1" d="M209.89,149a18.61,18.61,0,0,0-3,.32,16.87,16.87,0,0,0-8.4,5c-2.5,2.83-1.46,6,2.21,6.88a7.9,7.9,0,0,0,2.25.29c3.06-.2,6.13-.42,9.18-.77a19,19,0,0,0,3.25-1l.16.47c-1.51.51-3,1.13-4.54,1.5a31.43,31.43,0,0,1-9.86.77,10.44,10.44,0,0,1-2.68-.53c-3.07-1.11-4.08-3.86-2.52-6.74a13,13,0,0,1,6.15-5.32c2.73-1.29,5.6-2.3,8.43-3.34a1.44,1.44,0,0,1,2.06,1.61,22.78,22.78,0,0,1-1.7,4.39,1.59,1.59,0,0,1-1.18.68,1.11,1.11,0,0,1-1-1.78,13,13,0,0,1,.72-1.1c.22-.32.45-.62.68-.93Z"/><path class="cls-3" d="M102.75,90.92l1.79,0c2.31,0,2-.16,2.11,2.16a9.86,9.86,0,0,0,.44,1.9c-.25.54-.5,1.09-.83,1.79H94.83c0-1.76,0-3.43,0-5.1,0-.25.62-.66,1-.67,2,0,4,0,6,0A7.34,7.34,0,0,0,102.75,90.92Z"/><path class="cls-1" d="M191.15,162.17a9.22,9.22,0,0,1-.59-1.41c-.18-.77.05-1.39,1-1.44s1.88,0,2.84,0c.09,1.16-.19,1.78-1.25,2A10.87,10.87,0,0,0,191.15,162.17Z"/><path class="cls-2" d="M121,60.39c0,3.76.07,7.51,0,11.26-.05,1.73-1,2.47-2.39,2.33A1.65,1.65,0,0,1,117,72.54a16.56,16.56,0,0,1-.3-2.62q0-9.29,0-18.58a13.5,13.5,0,0,1,.39-3,2,2,0,0,1,2.21-1.59A1.73,1.73,0,0,1,121,48.65c0,3.91,0,7.83,0,11.74Z"/><path class="cls-2" d="M81.67,65.12v2.82c0,3.39,0,6.78-.06,10.17,0,2.07-1.34,3-3.12,2.26a2.27,2.27,0,0,1-1.24-1.55,68.27,68.27,0,0,1,.18-9C77.69,67.54,79.78,66.4,81.67,65.12Z"/><path class="cls-2" d="M75.35,118.46c0-3.6,0-7.2,0-10.79,0-1.58.55-2.27,1.68-2.28s1.64.5,1.7,1.72c.09,1.71.13,3.43.12,5.15,0,5.71-.07,11.42-.12,17.13,0,.87-.17,1.7-1.18,2a1.41,1.41,0,0,1-2-1,7,7,0,0,1-.23-1.89c0-3.35,0-6.71,0-10.06Z"/><path class="cls-2" d="M153.69,118.46v11.26c0,1-.39,1.72-1.52,1.75s-1.65-.65-1.73-1.71-.18-1.91-.18-2.86q0-8.88,0-17.74a14.92,14.92,0,0,1,.25-2.5,1.46,1.46,0,0,1,1.73-1.27,1.33,1.33,0,0,1,1.41,1.45c0,3.87,0,7.75,0,11.62Z"/><path class="cls-2" d="M199.51,119.44c0,1,0,1.7,0,2.4,0,2.59,0,5.19-.08,7.78,0,1.36-.6,1.91-1.68,1.88a1.63,1.63,0,0,1-1.73-1.75,53.59,53.59,0,0,1,.1-6.21C196.31,121.65,197.83,120.64,199.51,119.44Z"/><path class="cls-2" d="M219.38,158.14a14.15,14.15,0,0,1,7.33-5.49,10.76,10.76,0,0,1,6.79-.43,3,3,0,0,1,.83,5.65A15.45,15.45,0,0,1,223.11,160,17,17,0,0,1,219.38,158.14Z"/></g></g></svg>