<svg xmlns="http://www.w3.org/2000/svg" viewBox="0 0 296.39 237.03"><defs><style>.cls-1{fill:#044ea2;}.cls-2{fill:#b2b1fc;}.cls-3{fill:#fefefe;}</style></defs><g id="Layer_2" data-name="Layer 2"><g id="Layer_1-2" data-name="Layer 1"><path class="cls-1" d="M42.44,11.84v76.3H57.89v-82c3.5-.86,6.88-1.77,10.29-2.5C71.37,3,74.59,2.37,77.83,2,82.57,1.33,87.32.69,92.09.45c6.85-.34,13.73-.55,20.59-.4,6,.13,12,.76,18,1.31a216,216,0,0,1,26.25,4.31A254.87,254.87,0,0,1,193.47,16.6a228.89,228.89,0,0,1,35.66,17.17,181,181,0,0,1,29.56,21.62,127.37,127.37,0,0,1,22,25.43,80.58,80.58,0,0,1,10.53,23.39,56.58,56.58,0,0,1,1.75,20,53,53,0,0,1-11.38,28A67.67,67.67,0,0,1,269,164.45a97.88,97.88,0,0,1-26.24,13.7,120.87,120.87,0,0,1-21.79,5.69c-6.41,1-12.85,2.1-19.31,2.47-8,.46-16.13.32-24.19.23-4.34,0-8.68-.42-13-.84-4.12-.4-8.24-.91-12.31-1.64-7-1.24-13.93-2.54-20.83-4.11A226.19,226.19,0,0,1,104.58,172,235.94,235.94,0,0,1,70,156.44a193.06,193.06,0,0,1-32.15-22.07c-10.05-8.61-19-18.21-26-29.46A79.51,79.51,0,0,1,2.09,83,57.43,57.43,0,0,1,.36,61.44,53.73,53.73,0,0,1,14.71,30.82,75.15,75.15,0,0,1,34,16c2.4-1.33,4.9-2.48,7.35-3.71C41.66,12.1,42,12,42.44,11.84Zm60.18,79a5.46,5.46,0,0,1-.69.1c-2.08,0-4.15-.07-6.23,0-.33,0-.93.42-.94.67-.09,1.67-.05,3.34-.05,5.1h11.43l.82-1.8a48.85,48.85,0,0,0,6,1.59,31,31,0,0,0,14.66-1.09c4.84-1.66,8.5-5.74,8.44-11.59-.13-14.58,0-29.16.05-43.74a8.43,8.43,0,0,0-.12-1.18c-4.4,0-8.67,0-12.94,0a1.38,1.38,0,0,0-1,.76,29.14,29.14,0,0,0-.93,2.86,6.75,6.75,0,0,1-.66-.58A10.82,10.82,0,0,0,112.92,38c-5.46-.41-9.75,1.58-10.81,7.49a40.28,40.28,0,0,0-.64,6.29c-.1,4.72-.06,9.43,0,14.15,0,2.35.11,4.71.26,7.05.26,3.91,1.83,7.12,5.63,8.59a12.67,12.67,0,0,0,13.08-1.77c.25-.2.52-.38.79-.57,0,2.37.13,4.6,0,6.81-.12,1.5-1.18,2.13-2.71,2.06a2.39,2.39,0,0,1-2.38-2.25c0-.31-.08-.62-.13-1H101.25C101.73,87,102.17,88.88,102.62,90.8ZM82,88.19H96.48a2.13,2.13,0,0,0,.11-.41c-.15-12.69-.22-25.39-.47-38.09a11,11,0,0,0-8-10.52,26.52,26.52,0,0,0-14.51-.5c-4.25,1-7.9,3.17-9.63,7.46-1.52,3.74-1.24,7.73-1.18,11.74.4,0,.71.08,1,.08,3.91,0,7.83,0,11.74,0,1,0,1.19-.35,1.2-1.24,0-2.71.07-5.43.19-8.14a1.9,1.9,0,0,1,2.42-1.94,2,2,0,0,1,1.84,1.93,63.06,63.06,0,0,1,.15,7.27,3,3,0,0,1-1.42,2c-1.69,1-3.51,1.69-5.28,2.5-2.78,1.28-5.59,2.49-8.33,3.85a5.94,5.94,0,0,0-3.28,5.34c-.17,3.15-.32,6.3-.24,9.45.15,5.79,2.12,8.39,7.31,9.77,4.15,1.1,9,.1,11.33-4.16.06-.11.22-.17.48-.36Zm-3.09,13.27a3.71,3.71,0,0,1-.9-.41,9.61,9.61,0,0,0-8-2.31c-3.06.32-5.93,2.91-6,5.77-.09,9-.07,18,0,27.05a5.94,5.94,0,0,0,3.46,5.36c3.21,1.75,7.12,1.17,10.21-1.48.31-.27.64-.5,1.21-.94a11.57,11.57,0,0,1,0,1.6c-.15,1,.26,1.2,1.2,1.19,3.07-.06,6.15,0,9.23,0,.81,0,1.08-.26,1-1,0-.4,0-.8,0-1.2V103.55c0-3.84,0-7.67,0-11.51,0-1-.29-1.24-1.24-1.22-3.07.05-6.15,0-9.23,0-.81,0-1,.3-1,1.06,0,1.67,0,3.35,0,5ZM39.46,28c-1.18,0-2.29-.06-3.39,0a88.52,88.52,0,0,0-9.52.75,6.22,6.22,0,0,0-5.49,6.63,26.12,26.12,0,0,1-.18,4,1.12,1.12,0,0,1-.75.73c-2.3.22-2.3.19-2.3,2.47v5.33h3.1v40.3h15V47.81h3.53V40.1c-1.81,0-3.56,0-5.3,0-.34,0-.87-.16-1-.4a2.84,2.84,0,0,1,2.43-4c1.27-.09,2.53-.12,3.85-.18ZM150.14,99.28c-3.57,0-6.92,0-10.27,0-1.05,0-1.3.31-1.29,1.28,0,3.68,0,7.35,0,11,0,10,0,19.9,0,29.85,0,1,.21,1.35,1.25,1.28,1.31-.1,2.64,0,4,0h6.29v-8.61c1,.91,1.71,1.66,2.53,2.27,3.27,2.44,8.19,2.05,10.68-.81,1.54-1.75,1.68-3.95,1.73-6.09.14-5,.16-10.06.17-15.09q0-4-.16-8c-.08-1.82-.2-3.66-1.56-5.14a8.39,8.39,0,0,0-12.5.51,13,13,0,0,1-1,.87Zm34.77,14.56c3.38,0,6.61,0,9.84,0,.69,0,.75-.38.76-.92,0-2,.12-3.91.15-5.87,0-1,.24-1.83,1.49-1.87s1.89.44,2.08,1.78a20.9,20.9,0,0,1,.21,2.5c.07,3.92,0,4.06-3.6,5.62-2.56,1.12-5.13,2.22-7.66,3.4a4.9,4.9,0,0,0-3.08,4.36c-.13,2.55-.29,5.11-.18,7.65.14,3.19,1.26,5.82,4.69,6.9s7.24.64,9.32-2.52c.12-.2.37-.31.82-.64v3h11c0-.22.07-.33.07-.45q0-11.8,0-23.61c0-.28,0-.56-.06-.83-.14-1.64-.28-3.27-.41-4.9a12.9,12.9,0,0,0-.12-1.76,8.27,8.27,0,0,0-5.74-6.06,20.07,20.07,0,0,0-11.23-.42c-3.4.79-6.26,2.54-7.52,6C184.71,107.9,184.76,110.8,184.91,113.84Zm30.59,22.8c0,1.74.05,3.29,0,4.84,0,.91.28,1.17,1.17,1.14,3.43-.11,6.86-.11,10.29-.25a7.42,7.42,0,0,0,7.27-5.55,53.9,53.9,0,0,0,1.26-6.8c.58-4.47,1.05-9,1.58-13.42.57-4.7,1.17-9.41,1.75-14.11.12-1,.19-2.1.29-3.21-3.08,0-6,0-8.9,0-1,0-1.33.22-1.39,1.21-.22,3.74-.52,7.48-.78,11.22-.25,3.58-.48,7.16-.75,10.74a6.28,6.28,0,0,1-.43,1.28,6.29,6.29,0,0,1-.44-1.08c-.41-2.79-.81-5.6-1.22-8.39-.69-4.69-1.39-9.38-2.06-14.08-.1-.67-.32-1-1.05-.94-2.92,0-5.83,0-8.75,0a2.55,2.55,0,0,0-.57.15c0,.3.07.54.11.77q1.51,7.62,3,15.23,1.91,9.56,3.81,19.1c.27,1.37-.21,2-1.64,2.14C217.23,136.7,216.4,136.64,215.5,136.64Zm-91.29-25.43c3.25,0,6.28,0,9.31,0,.66,0,.83-.3.81-.88-.05-1.32-.05-2.63-.1-4a6.79,6.79,0,0,0-2.67-5,11.22,11.22,0,0,0-6.23-2.54c-3.37-.36-6.77-.43-10,.89-2.85,1.15-4.71,3.09-5,6.25-.14,1.43-.21,2.86-.26,4.29-.14,4,1.68,6.86,5,8.85,2.68,1.58,5.37,3.14,8,4.76.51.31,1.16.85,1.22,1.35a25.78,25.78,0,0,1,.16,4.73c-.08,1.34-1.21,1.41-2.25,1.4a1.56,1.56,0,0,1-1.66-1.66c-.09-1.55-.17-3.11-.2-4.66,0-.63-.15-1-.86-1-2.8,0-5.6,0-8.39,0-.64,0-.86.23-.84.84,0,1.16,0,2.32.07,3.48.24,3.9,1.83,6.89,5.72,8.28a19.41,19.41,0,0,0,13.58.11,7.33,7.33,0,0,0,4.67-4.51,19.78,19.78,0,0,0,.83-4.2c.61-5.25-.89-9.42-6-11.84a75.24,75.24,0,0,1-6.7-3.69c-2.06-1.24-2.44-2.73-2.08-5.52.21-1.59.86-2,2.36-1.86s1.4,1.21,1.46,2.17C124.26,108.58,124.21,109.81,124.21,111.21ZM265,111.14V107.4a7.43,7.43,0,0,0-4.83-7.3,18.83,18.83,0,0,0-14.66-.15,6.4,6.4,0,0,0-4.33,5,41.7,41.7,0,0,0-.45,5.58,9.05,9.05,0,0,0,4.68,8.33c.41.25.8.52,1.22.76,2.37,1.4,4.77,2.75,7.1,4.2a2.88,2.88,0,0,1,1.35,1.55,16.46,16.46,0,0,1,.19,4.15c-.12,1.39-.72,1.76-2.05,1.81a1.7,1.7,0,0,1-2-1.7c-.07-.71-.14-1.42-.16-2.14,0-1.1,0-2.21,0-3.42H241c0,1.38-.06,2.65,0,3.91.28,5.09,2.14,7.62,6.83,9.07a19.74,19.74,0,0,0,11.09.2c3.79-1,6.17-3.4,6.68-7.39.17-1.3.18-2.63.24-3.94a9.2,9.2,0,0,0-5.31-9.26c-2-1-3.94-2.1-5.93-3.13-2.45-1.27-4-3-3.63-6,.22-1.64.65-2.36,2-2.36s1.83.47,1.86,2.28c0,1.22,0,2.44,0,3.69Zm-95.7,26.13c3.48,0,6.87-.05,10.26,0,1.13,0,1.47-.28,1.47-1.45q-.06-21.73,0-43.49c0-.28.09-.61,0-.83s-.47-.66-.72-.67c-3.44,0-6.87,0-10.31,0-.23,0-.61.43-.64.69a15.42,15.42,0,0,0,0,2C169.28,108.09,169.28,122.58,169.28,137.27Zm-62.82-.07V124.26c0-7.91,0-15.81,0-23.72,0-1-.24-1.34-1.34-1.3-3.08.1-6.15.08-9.23,0-.94,0-1.23.17-1.23,1.15,0,11.9,0,23.8,0,35.69,0,.35,0,.7.07,1.11Zm141.17,22.09.31.32a2.34,2.34,0,0,0,.66-.13c1.56-.8,3.13-1.58,4.64-2.45,2.94-1.69,5.83-3.45,8.75-5.16a10.31,10.31,0,0,1,1.66-.55,18.94,18.94,0,0,1-.78,2c-.87,1.66-1.83,3.27-2.68,4.94-.71,1.38-1.42,2.84-.67,4.42.2.44.86.66,1.31,1,.22-.53.71-1.11.63-1.58a4,4,0,0,1,.55-3c1-1.56,2-3.08,2.88-4.68a10.33,10.33,0,0,0,1.2-3.09c.35-1.9-.57-2.69-2.39-2.07a34.69,34.69,0,0,0-4.47,1.94c-1.48.74-2.91,1.59-4.43,2.44-.42-1.24-.73-2.39-1.21-3.47a1.63,1.63,0,0,0-2.36-.93c-3.11,1.4-6.82,1.91-8.43,5.58a1.74,1.74,0,0,1-.31.37c-1.19,1.44-2.42,2.86-3.56,4.34a7.7,7.7,0,0,0-.79,1.72l.34.28a14,14,0,0,0,2-1.16c1.05-.86,2-1.85,3-2.74q3.36-3,6.75-5.9c.65-.56,1.16-.43,1.39.44.07.27.15.53.2.8a3.65,3.65,0,0,1-1.33,3.18C249.51,157.19,248.58,158.25,247.63,159.29Zm-22.39,2.35,0-.12c1.08-.08,2.16-.1,3.23-.25a16.3,16.3,0,0,0,6.92-2.42,4.64,4.64,0,0,0,.55-7.57c-2.13-1.9-4.7-2.06-7.31-1.51a20.25,20.25,0,0,0-9.85,4.82c-2.42,2.25-1.76,5.24,1.39,6.18A40.2,40.2,0,0,0,225.24,161.64ZM215.32,160l-.15-.44a17.68,17.68,0,0,1-3.23,1c-3.05.35-6.11.57-9.17.77a7.52,7.52,0,0,1-2.25-.29c-3.67-.89-4.72-4-2.23-6.87a17,17,0,0,1,8.38-5,17.25,17.25,0,0,1,3.06-.3l.11.38a22.86,22.86,0,0,0-1.4,2.17c-.16.32-.18,1,0,1.14a2.43,2.43,0,0,0,1.48.41,1.34,1.34,0,0,0,.9-.72,23.44,23.44,0,0,0,1.55-4.08c.3-1.35-.82-2.2-2.16-1.71-2.73,1-5.47,2-8.09,3.2a13.29,13.29,0,0,0-6.25,5.2c-1.94,3.33-.4,6.6,3.39,7.24a28.86,28.86,0,0,0,12.09-.7C212.71,161,214,160.43,215.32,160ZM191,162a11,11,0,0,1,2-.86c1.06-.23,1.29-.87,1.2-2-.92,0-1.81,0-2.7,0-1.08.06-1.31.74-1.06,1.66A9.91,9.91,0,0,0,191,162Z"/><path class="cls-1" d="M269.73,198.85c.39.77.79,1.53,1.17,2.3,1.67,3.4,3.37,6.78,5,10.2.72,1.51.17,2.08-1.43,2.43-1.75.38-2.49-.31-3.16-1.79-2.51-5.51-5.14-11-7.68-16.45-1-2.1-1.83-4.25-2.77-6.35-.35-.78-.15-1.13.66-1.39a4.43,4.43,0,0,1,5.14,1.28c2.65,2.81,5.54,5.39,8.35,8.06a16.7,16.7,0,0,0,1.48,1.15l.29-.17a10.58,10.58,0,0,0-.42-1.46c-2.05-4.62-4.11-9.24-6.22-13.84-.32-.71-.14-1,.49-1.29.44-.18.87-.4,1.31-.57,1.32-.47,1.9-.27,2.51,1q5.37,11.19,10.72,22.41a1.51,1.51,0,0,1,.11.22c1.23,2.86,1.11,3.14-1.91,3.81a2.25,2.25,0,0,1-1.64-.4c-3.32-2.62-6.58-5.3-9.87-7.95-.61-.5-1.27-.94-1.9-1.41Z"/><path class="cls-1" d="M223.37,203.2c-3.1,2.09-3.26,5.39-.5,7.51,1.83,1.41,3.79,2.66,5.61,4.08a10.88,10.88,0,0,1,3.9,5.18,4.28,4.28,0,0,1,.23.92c.42,5.19-5.39,9.33-10.1,7.16-1.9-.88-4-1.66-5-3.66a9.48,9.48,0,0,1-.83-2.79c0-.19.7-.76,1-.69a10.21,10.21,0,0,1,2.5,1c1.22.66,2.34,1.51,3.57,2.15a2.12,2.12,0,0,0,2.57-.15,2.47,2.47,0,0,0,.6-2.54,7.11,7.11,0,0,0-3-4.15c-1.22-1-2.52-1.82-3.8-2.71-4.67-3.23-5-8.72-1.94-13.06,2.31-3.29,3.83-3.52,7.47-1.76,3.3,1.59,4.33,4.36,4.49,7.68.07,1.52-.9,2.24-2.42,1.92-1.9-.41-2.83-1.79-3.4-3.51C224,205,223.69,204.15,223.37,203.2Z"/><path class="cls-1" d="M250.35,221.13c-2.8,1.22-5.59,2.47-8.41,3.64a3.14,3.14,0,0,1-3.77-1.64c-1.1-3.32-2.14-6.67-3.06-10C234,209,233,204.9,232,200.8c-.12-.5-.14-1-.23-1.53-.32-1.84-.16-2,1.68-2.2a5.34,5.34,0,0,0,1.44-.53c1.43-.6,2.83-1.27,4.29-1.8a3.2,3.2,0,0,1,3.83,2.69,1.34,1.34,0,0,1-.7,1c-1.52.7-3.06,1.35-4.63,1.92-.78.29-1.07.58-.81,1.48.49,1.71.82,3.47,1.26,5.4.53-.14,1-.23,1.48-.39,1.09-.38,2.15-.83,3.25-1.18a2.2,2.2,0,0,1,3,1.35c1,2.09.92,2.16-1.24,3-1.42.54-2.82,1.09-4.24,1.62a1.09,1.09,0,0,0-.76,1.57c.53,1.79,1,3.61,1.41,5.43.22.89.65,1.1,1.47.72,1.19-.55,2.4-1.07,3.61-1.58a2.59,2.59,0,0,1,3.59,1.64Z"/><path class="cls-1" d="M267.05,215.24c-2.71,1.46-5.41,3-8.18,4.37a3.1,3.1,0,0,1-3.92-1.56c-1.3-3.13-2.55-6.28-3.67-9.47-1.53-4.31-2.92-8.68-4.36-13a9.19,9.19,0,0,1-.31-1.28c-.18-1,.15-1.5,1.22-1.6a4.88,4.88,0,0,0,1.65-.59c1.53-.75,3.06-1.53,4.57-2.34,1.34-.72,3.6,1,3.81,2.55.05.31-.43.84-.79,1-1.42.78-2.88,1.52-4.36,2.2-.7.32-1,.62-.67,1.45.51,1.37.9,2.8,1.31,4.22.27.94.62,1.36,1.67.75a21.14,21.14,0,0,1,3.6-1.61,3,3,0,0,1,3.55,2.94c-.05.3-.46.63-.78.79-1.6.81-3.22,1.59-4.84,2.35-.85.4-1.18.87-.75,1.87.66,1.53,1.15,3.14,1.68,4.73s.55,1.59,2,.81c1-.53,2-1.13,3.05-1.66a2.61,2.61,0,0,1,3.74,1.31C266.55,214,266.77,214.56,267.05,215.24Z"/><path class="cls-1" d="M184.22,214.74c-.1.07,0,0,.07-.06.91-1.1,1.88-1.9,3.48-1.35a4.67,4.67,0,0,1,3.5,3.83,22.2,22.2,0,0,1-.79,10.73,9.84,9.84,0,0,1-.94,1.93c-1.3,2.08-3,2.61-5.33,1.9-.94-.29-2-.22-3-.47a1.68,1.68,0,0,1-1.1-.95,16.22,16.22,0,0,1-.43-3.67c.11-7.13.29-14.27.45-21.4,0-.64.09-1.28.07-1.91-.05-1.35.1-1.5,1.47-1.44,2,.1,2.51.61,2.51,2.63Zm2.82,1.87a.66.66,0,0,0-.25,0,.75.75,0,0,0-.27.23,19.32,19.32,0,0,0-2.73,11,1.46,1.46,0,0,0,.84,1c.26.08.79-.3,1-.6a4.46,4.46,0,0,0,.66-1.39c1.08-3.24,1-6.59.92-9.94C187.23,216.78,187.1,216.69,187,216.61Z"/><path class="cls-1" d="M117.63,204.72a20,20,0,0,1,2.8.79,10.43,10.43,0,0,1,2.69,1.64,1.91,1.91,0,0,1,.37,2.42,1.77,1.77,0,0,1-2.22,1.11c-1.22-.34-2.46-.62-3.68-1-.74-.22-1.09,0-1.3.72-.88,3.06-1.79,6.11-2.71,9.16A5.33,5.33,0,0,1,113,221a1.5,1.5,0,0,1-.89.66c-1.52.27-3.16-1.76-2.76-3.23,1.54-5.64,3-11.29,4.56-16.93.71-2.65,1.46-5.3,2.27-7.92.1-.33.68-.8.94-.74,2.72.56,5.43,1.14,8.11,1.88a3.34,3.34,0,0,1,2.18,3.34c-.06,1.42-.54,1.81-1.89,1.46-1.55-.4-3.08-.85-4.62-1.26-1.35-.37-1.53-.16-1.81,1.2s-.81,2.9-1.23,4.35Z"/><path class="cls-1" d="M138.45,220.26c1.46-3.72,2.9-7.44,4.38-11.15.67-1.7.93-1.76,2.5-.79.31.19.59.41.89.6a1.36,1.36,0,0,1,.59,2q-2.7,5.93-5.27,11.91c-1.88,4.39-3.7,8.8-5.55,13.21-.48,1.14-.72,1.26-1.72.54-1.71-1.23-2.26-1.76-1.39-3.71,1-2.22,1.88-4.48,2.78-6.73.12-.31.16-.91,0-1a3.53,3.53,0,0,1-1.28-3.21c.1-4.34.35-8.68.55-13,.05-1,.51-1.16,1.42-.78,2,.85,2.09.81,2,3-.1,2.66-.27,5.33-.38,8a5.86,5.86,0,0,0,.15,1.16Z"/><path class="cls-1" d="M205,220.8c.19,1.15-.32,1.53-1.43,1.7-1.57.23-3.1.7-4.65,1.05a1.21,1.21,0,0,0-1.07,1.46c.06.6.1,1.19.18,1.79.16,1.14,1,1.59,1.83.84,1.16-1,2.08-2.27,3.16-3.37.33-.34,1-.79,1.26-.66a3.05,3.05,0,0,1,1.39,1.5c.5,1.83-2.71,6.11-4.32,6.37a5.16,5.16,0,0,1-2.31-.16c-3.18-1-5-3-5.14-6.33a24.79,24.79,0,0,1,1.58-10.31c.95-2.45,2.08-2.87,4.67-2.39,2.87.53,3.92,2.46,4.4,5C204.75,218.42,204.84,219.62,205,220.8Zm-5.11-5.52-.46-.05L198.19,220l.45.35c.76-.45,2.05-.8,2.17-1.39A4.86,4.86,0,0,0,199.87,215.28Z"/><path class="cls-1" d="M124,222.76c.73-3.14,1.4-6.3,2.19-9.42,1.41-5.56,2.88-11.1,4.34-16.64.39-1.49.56-1.56,2-1.06,2,.72,2.45,1.56,1.87,3.62-1.37,4.86-2.78,9.71-4.07,14.6-.84,3.19-1.5,6.43-2.22,9.65-.18.84-.27,1.76-1.4,1.73A3.25,3.25,0,0,1,124,222.76Z"/><path class="cls-1" d="M289.72,196.79a3.6,3.6,0,0,1-1-.83c-1.54-2.46-3.1-4.91-4.5-7.45-1.72-3.1-3.27-6.29-4.92-9.42-.45-.84-.35-1.52.51-1.87a15.29,15.29,0,0,1,3.29-1c.35-.06,1,.48,1.17.87,1.82,6,5,11.36,7.47,17C292.51,195.93,292.05,196.79,289.72,196.79Z"/><path class="cls-1" d="M164.33,222.55c-2.18-.18-4.08-.3-6-.51-1-.11-2.1-2.43-1.55-3.28a1,1,0,0,1,.81-.3c2.42.21,4.85.43,7.26.71,1.09.13,2,2.16,1.43,3.1a1,1,0,0,1-.7.27C165.09,222.57,164.57,222.55,164.33,222.55Z"/><path class="cls-1" d="M290.42,200.77c.13-2.78.61-3.39,2.61-3.3a3.33,3.33,0,0,1,3.35,3.45,2.71,2.71,0,0,1-2.82,2.75A3,3,0,0,1,290.42,200.77Z"/><path class="cls-2" d="M78.88,101.46V96.91c0-1.68,0-3.36,0-5,0-.76.19-1.07,1-1.06,3.08,0,6.16.05,9.23,0,1,0,1.25.27,1.24,1.22,0,3.84,0,7.67,0,11.51v31.51c0,.4-.06.8,0,1.2.08.77-.19,1-1,1-3.08,0-6.16-.06-9.23,0-.94,0-1.35-.2-1.2-1.19a11.57,11.57,0,0,0,0-1.6c-.57.44-.9.67-1.21.94-3.09,2.65-7,3.23-10.21,1.48A5.94,5.94,0,0,1,64,131.56c0-9-.07-18,0-27,0-2.86,2.9-5.45,6-5.77a9.61,9.61,0,0,1,8,2.31A3.71,3.71,0,0,0,78.88,101.46ZM75.26,118.2h0c0,3.43,0,6.86,0,10.3a3.55,3.55,0,0,0,.26,1.74,2.08,2.08,0,0,0,1.4,1,2.29,2.29,0,0,0,1.48-.94,2.43,2.43,0,0,0,.25-1.38q.09-8.31.13-16.64c0-1.79,0-3.59-.14-5.38-.06-1.19-.66-1.71-1.74-1.68s-1.63.71-1.64,2.2C75.24,111,75.26,114.6,75.26,118.2Z"/><path class="cls-2" d="M150.14,99.28l-.14,3.26a13,13,0,0,0,1-.87,8.39,8.39,0,0,1,12.5-.51c1.36,1.48,1.48,3.32,1.56,5.14q.18,4,.16,8c0,5,0,10.06-.17,15.09-.05,2.14-.19,4.34-1.73,6.09-2.49,2.86-7.41,3.25-10.68.81-.82-.61-1.53-1.36-2.53-2.27v8.61h-6.29c-1.32,0-2.65-.08-4,0-1,.07-1.25-.31-1.25-1.28,0-10,0-19.9,0-29.85,0-3.68,0-7.35,0-11,0-1,.24-1.3,1.29-1.28C143.22,99.33,146.57,99.28,150.14,99.28Zm3.37,18.94h0q0-5.75,0-11.49a1.32,1.32,0,0,0-1.35-1.5,1.5,1.5,0,0,0-1.81,1.33,14.51,14.51,0,0,0-.22,2.37q0,8.92,0,17.86c0,.95.11,1.91.19,2.86s.59,1.66,1.67,1.64,1.56-.65,1.56-1.7Q153.51,123.91,153.51,118.22Z"/><path class="cls-2" d="M184.91,113.84c-.15-3-.2-5.94.79-8.67,1.26-3.48,4.12-5.23,7.52-6a20.07,20.07,0,0,1,11.23.42,8.27,8.27,0,0,1,5.74,6.06,12.9,12.9,0,0,1,.12,1.76c.13,1.63.27,3.26.41,4.9,0,.27.06.55.06.83q0,11.8,0,23.61c0,.12,0,.23-.07.45h-11v-3c-.45.33-.7.44-.82.64-2.08,3.16-6,3.56-9.32,2.52s-4.55-3.71-4.69-6.9c-.11-2.54.05-5.1.18-7.65a4.9,4.9,0,0,1,3.08-4.36c2.53-1.18,5.1-2.28,7.66-3.4,3.57-1.56,3.67-1.7,3.6-5.62a20.9,20.9,0,0,0-.21-2.5c-.19-1.34-.81-1.83-2.08-1.78s-1.47.84-1.49,1.87c0,2-.11,3.91-.15,5.87,0,.54-.07.93-.76.92C191.52,113.83,188.29,113.84,184.91,113.84Zm14.29,5.38c-1.33,1.13-2.88,2-3.09,3.52a47.15,47.15,0,0,0-.17,7.33c0,.85.8,1.26,1.64,1.24s1.6-.43,1.61-1.41C199.22,126.45,199.2,123,199.2,119.22Z"/><path class="cls-2" d="M215.5,136.64c.9,0,1.73.06,2.55,0,1.43-.12,1.91-.77,1.64-2.14q-1.89-9.55-3.81-19.1-1.51-7.6-3-15.23c0-.23-.07-.47-.11-.77a2.55,2.55,0,0,1,.57-.15c2.92,0,5.83,0,8.75,0,.73,0,1,.27,1.05.94.67,4.7,1.37,9.39,2.06,14.08.41,2.79.81,5.6,1.22,8.39a6.29,6.29,0,0,0,.44,1.08,6.28,6.28,0,0,0,.43-1.28c.27-3.58.5-7.16.75-10.74.26-3.74.56-7.48.78-11.22.06-1,.39-1.24,1.39-1.21,2.91.08,5.82,0,8.9,0-.1,1.11-.17,2.16-.29,3.21-.58,4.7-1.18,9.41-1.75,14.11-.53,4.47-1,9-1.58,13.42a53.9,53.9,0,0,1-1.26,6.8,7.42,7.42,0,0,1-7.27,5.55c-3.43.14-6.86.14-10.29.25-.89,0-1.21-.23-1.17-1.14C215.55,139.93,215.5,138.38,215.5,136.64Z"/><path class="cls-2" d="M124.21,111.21c0-1.4.05-2.63,0-3.86-.06-1,0-2.08-1.46-2.17s-2.15.27-2.36,1.86c-.36,2.79,0,4.28,2.08,5.52a75.24,75.24,0,0,0,6.7,3.69c5.11,2.42,6.61,6.59,6,11.84a19.78,19.78,0,0,1-.83,4.2,7.33,7.33,0,0,1-4.67,4.51,19.41,19.41,0,0,1-13.58-.11c-3.89-1.39-5.48-4.38-5.72-8.28-.07-1.16,0-2.32-.07-3.48,0-.61.2-.84.84-.84,2.79,0,5.59,0,8.39,0,.71,0,.85.32.86,1,0,1.55.11,3.11.2,4.66a1.56,1.56,0,0,0,1.66,1.66c1,0,2.17-.06,2.25-1.4a25.78,25.78,0,0,0-.16-4.73c-.06-.5-.71-1-1.22-1.35-2.65-1.62-5.34-3.18-8-4.76-3.37-2-5.19-4.86-5-8.85,0-1.43.12-2.86.26-4.29.3-3.16,2.16-5.1,5-6.25,3.26-1.32,6.66-1.25,10-.89a11.22,11.22,0,0,1,6.23,2.54,6.79,6.79,0,0,1,2.67,5c.05,1.32.05,2.63.1,4,0,.58-.15.88-.81.88C130.49,111.19,127.46,111.21,124.21,111.21Z"/><path class="cls-2" d="M265,111.14h-10.1c0-1.25,0-2.47,0-3.69,0-1.81-.42-2.27-1.86-2.28s-1.82.72-2,2.36c-.41,3.06,1.18,4.76,3.63,6,2,1,3.94,2.11,5.93,3.13a9.2,9.2,0,0,1,5.31,9.26c-.06,1.31-.07,2.64-.24,3.94-.51,4-2.89,6.37-6.68,7.39a19.74,19.74,0,0,1-11.09-.2c-4.69-1.45-6.55-4-6.83-9.07-.07-1.26,0-2.53,0-3.91h10c0,1.21,0,2.32,0,3.42,0,.72.09,1.43.16,2.14a1.7,1.7,0,0,0,2,1.7c1.33-.05,1.93-.42,2.05-1.81a16.46,16.46,0,0,0-.19-4.15,2.88,2.88,0,0,0-1.35-1.55c-2.33-1.45-4.73-2.8-7.1-4.2-.42-.24-.81-.51-1.22-.76a9.05,9.05,0,0,1-4.68-8.33,41.7,41.7,0,0,1,.45-5.58,6.4,6.4,0,0,1,4.33-5,18.83,18.83,0,0,1,14.66.15,7.43,7.43,0,0,1,4.83,7.3Z"/><path class="cls-2" d="M169.28,137.27c0-14.69,0-29.18,0-43.67a15.42,15.42,0,0,1,0-2c0-.26.41-.69.64-.69,3.44-.05,6.87-.05,10.31,0,.25,0,.57.39.72.67s0,.55,0,.83q0,21.75,0,43.49c0,1.17-.34,1.47-1.47,1.45C176.15,137.22,172.76,137.27,169.28,137.27Z"/><path class="cls-2" d="M106.46,137.2H94.78c0-.41-.07-.76-.07-1.11,0-11.89,0-23.79,0-35.69,0-1,.29-1.17,1.23-1.15,3.08.07,6.15.09,9.23,0,1.1,0,1.34.27,1.34,1.3,0,7.91,0,15.81,0,23.72Z"/><path class="cls-3" d="M247.63,159.29c1-1,1.88-2.1,2.85-3.11a3.65,3.65,0,0,0,1.33-3.18c-.05-.27-.13-.53-.2-.8-.23-.87-.74-1-1.39-.44q-3.39,2.93-6.75,5.9c-1,.89-1.95,1.88-3,2.74a14,14,0,0,1-2,1.16l-.34-.28a7.7,7.7,0,0,1,.79-1.72c1.14-1.48,2.37-2.9,3.56-4.34a1.74,1.74,0,0,0,.31-.37c1.61-3.67,5.32-4.18,8.43-5.58a1.63,1.63,0,0,1,2.36.93c.48,1.08.79,2.23,1.21,3.47,1.52-.85,2.95-1.7,4.43-2.44a34.69,34.69,0,0,1,4.47-1.94c1.82-.62,2.74.17,2.39,2.07a10.33,10.33,0,0,1-1.2,3.09c-.88,1.6-1.92,3.12-2.88,4.68a4,4,0,0,0-.55,3c.08.47-.41,1.05-.63,1.58-.45-.32-1.11-.54-1.31-1-.75-1.58,0-3,.67-4.42.85-1.67,1.81-3.28,2.68-4.94a18.94,18.94,0,0,0,.78-2,10.31,10.31,0,0,0-1.66.55c-2.92,1.71-5.81,3.47-8.75,5.16-1.51.87-3.08,1.65-4.64,2.45a2.34,2.34,0,0,1-.66.13Z"/><path class="cls-3" d="M225.24,161.64a40.2,40.2,0,0,1-5-.87c-3.15-.94-3.81-3.93-1.39-6.18a20.25,20.25,0,0,1,9.85-4.82c2.61-.55,5.18-.39,7.31,1.51a4.64,4.64,0,0,1-.55,7.57,16.3,16.3,0,0,1-6.92,2.42c-1.07.15-2.15.17-3.23.25ZM219.13,158a19.67,19.67,0,0,0,4.12,1.86A15.25,15.25,0,0,0,234,157.72a3,3,0,0,0-.83-5.74,10.82,10.82,0,0,0-6.67.46A14.14,14.14,0,0,0,219.13,158Z"/><path class="cls-3" d="M215.32,160c-1.32.46-2.61,1-4,1.36a28.86,28.86,0,0,1-12.09.7c-3.79-.64-5.33-3.91-3.39-7.24a13.29,13.29,0,0,1,6.25-5.2c2.62-1.23,5.36-2.21,8.09-3.2,1.34-.49,2.46.36,2.16,1.71a23.44,23.44,0,0,1-1.55,4.08,1.34,1.34,0,0,1-.9.72,2.43,2.43,0,0,1-1.48-.41c-.19-.13-.17-.82,0-1.14a22.86,22.86,0,0,1,1.4-2.17l-.11-.38a17.25,17.25,0,0,0-3.06.3,17,17,0,0,0-8.38,5c-2.49,2.84-1.44,6,2.23,6.87a7.52,7.52,0,0,0,2.25.29c3.06-.2,6.12-.42,9.17-.77a17.68,17.68,0,0,0,3.23-1Z"/><path class="cls-2" d="M102.62,90.8a20.8,20.8,0,0,0,2.37,0c1.18-.13,1.61.25,1.54,1.49a11.05,11.05,0,0,0,.43,2.57l-.82,1.8H94.71c0-1.76,0-3.43.05-5.1,0-.25.61-.66.94-.67,2.08,0,4.15,0,6.23,0A5.46,5.46,0,0,0,102.62,90.8Z"/><path class="cls-3" d="M191,162a9.91,9.91,0,0,1-.57-1.21c-.25-.92,0-1.6,1.06-1.66.89-.05,1.78,0,2.7,0,.09,1.15-.14,1.79-1.2,2A11,11,0,0,0,191,162Z"/><path class="cls-2" d="M187,216.61c.06.08.19.17.2.26.11,3.35.16,6.7-.92,9.94a4.46,4.46,0,0,1-.66,1.39c-.24.3-.77.68-1,.6a1.46,1.46,0,0,1-.84-1,19.32,19.32,0,0,1,2.73-11,.75.75,0,0,1,.27-.23A.66.66,0,0,1,187,216.61Z"/><path class="cls-2" d="M199.87,215.28a4.86,4.86,0,0,1,.94,3.72c-.12.59-1.41.94-2.17,1.39l-.45-.35,1.22-4.81Z"/><path class="cls-1" d="M120.91,60.26c0,3.75,0,7.5,0,11.25a2.09,2.09,0,0,1-1.44,2.24,1.92,1.92,0,0,1-2.67-1.57,16.05,16.05,0,0,1-.26-2.49c0-6.11,0-12.22,0-18.33a15.26,15.26,0,0,1,.38-3.08,2,2,0,0,1,2.21-1.6,1.72,1.72,0,0,1,1.78,1.84c0,3.91,0,7.82,0,11.73Z"/><path class="cls-1" d="M81.5,64.68c0,4.76,0,9.18,0,13.6a1.91,1.91,0,0,1-2,2.19c-1.21.07-2.29-.52-2.32-1.73a63.46,63.46,0,0,1,.2-9.15C77.62,67.36,79.71,66.25,81.5,64.68Z"/><path class="cls-1" d="M75.26,118.2c0-3.6,0-7.19,0-10.78,0-1.49.56-2.17,1.64-2.2s1.68.49,1.74,1.68c.09,1.79.15,3.59.14,5.38q0,8.32-.13,16.64a2.43,2.43,0,0,1-.25,1.38,2.29,2.29,0,0,1-1.48.94,2.08,2.08,0,0,1-1.4-1,3.55,3.55,0,0,1-.26-1.74c0-3.44,0-6.87,0-10.3Z"/><path class="cls-1" d="M153.51,118.22q0,5.69,0,11.37c0,1-.47,1.68-1.56,1.7s-1.58-.62-1.67-1.64-.18-1.91-.19-2.86q0-8.94,0-17.86a14.51,14.51,0,0,1,.22-2.37,1.5,1.5,0,0,1,1.81-1.33,1.32,1.32,0,0,1,1.35,1.5q0,5.74,0,11.49Z"/><path class="cls-1" d="M199.2,119.22c0,3.79,0,7.23,0,10.68,0,1-.72,1.38-1.61,1.41s-1.63-.39-1.64-1.24a47.15,47.15,0,0,1,.17-7.33C196.32,121.18,197.87,120.35,199.2,119.22Z"/><path class="cls-1" d="M219.13,158a14.14,14.14,0,0,1,7.37-5.54,10.82,10.82,0,0,1,6.67-.46,3,3,0,0,1,.83,5.74,15.25,15.25,0,0,1-10.75,2.12A19.67,19.67,0,0,1,219.13,158Z"/></g></g></svg>