<?xml version="1.0" encoding="UTF-8"?>
<svg width="16px" height="16px" viewBox="0 0 16 16" version="1.1" xmlns="http://www.w3.org/2000/svg" xmlns:xlink="http://www.w3.org/1999/xlink">
    <title>Fill</title>
    <g id="MP-B3-BITOKYO20-2352" stroke="none" stroke-width="1" fill="none" fill-rule="evenodd">
        <g id="BITOKYO20-2352--Tablet-Hospitals-and-clinics-Needs-to-be-Verified" transform="translate(-717.000000, -482.000000)" fill="#FFFFFF">
            <path d="M723.553312,482 C727.172606,482 730.106623,484.934018 730.106623,488.553312 C730.106623,490.162253 729.5268,491.63577 728.564709,492.776306 L732.836553,497.047818 C733.054504,497.265801 733.054479,497.619196 732.836496,497.837148 C732.642734,498.030883 732.341979,498.052389 732.124462,497.90168 L732.047167,497.837092 L727.776306,493.564709 C726.63577,494.5268 725.162253,495.106623 723.553312,495.106623 C719.934018,495.106623 717,492.172606 717,488.553312 C717,484.934018 719.934018,482 723.553312,482 Z M723.553312,483.116281 C720.550522,483.116281 718.116281,485.550522 718.116281,488.553312 C718.116281,491.556101 720.550522,493.990343 723.553312,493.990343 C726.556101,493.990343 728.990343,491.556101 728.990343,488.553312 C728.990343,485.550522 726.556101,483.116281 723.553312,483.116281 Z" id="Fill"></path>
        </g>
    </g>
</svg>