<svg xmlns="http://www.w3.org/2000/svg" viewBox="0 0 307.44 246.48"><defs><style>.cls-1{fill:#fefefe;}.cls-2{fill:#044ea2;}.cls-3{fill:#b2b1fc;}</style></defs><g id="Layer_2" data-name="Layer 2"><g id="Layer_1-2" data-name="Layer 1"><path class="cls-1" d="M307.44,246.48H0V0H307.44ZM47,17.17c-.47.17-.78.26-1,.39-2.46,1.23-5,2.39-7.35,3.72A74.55,74.55,0,0,0,19.29,36.14,53.73,53.73,0,0,0,4.94,66.77,57.4,57.4,0,0,0,6.67,88.32a79.41,79.41,0,0,0,9.76,21.92,129.58,129.58,0,0,0,26,29.45,192.05,192.05,0,0,0,32.15,22.07,235.25,235.25,0,0,0,34.54,15.56,226.39,226.39,0,0,0,26.72,8c6.9,1.56,13.86,2.86,20.83,4.11,4.07.73,8.19,1.23,12.31,1.63,4.33.42,8.67.8,13,.85,8.06.09,16.14.23,24.18-.23,6.47-.37,12.91-1.46,19.32-2.47a121.7,121.7,0,0,0,21.79-5.69,97.91,97.91,0,0,0,26.24-13.71,67.67,67.67,0,0,0,12.6-12.19,52.93,52.93,0,0,0,11.38-28,56.84,56.84,0,0,0-1.76-20,80.94,80.94,0,0,0-10.52-23.39,127.92,127.92,0,0,0-22-25.43,182,182,0,0,0-29.56-21.62,229.79,229.79,0,0,0-35.66-17.17A256.51,256.51,0,0,0,161.52,11a214.22,214.22,0,0,0-26.26-4.32c-6-.55-12-1.17-18-1.31-6.86-.15-13.74.06-20.6.4-4.76.24-9.52.89-14.26,1.5-3.23.42-6.45,1-9.64,1.69-3.41.72-6.79,1.64-10.29,2.5v82H47Zm227.3,187,.22-.2c.64.46,1.29.91,1.91,1.4,3.29,2.65,6.55,5.34,9.87,7.95a2.21,2.21,0,0,0,1.63.4c3-.67,3.14-.95,1.91-3.81l-.1-.22q-5.36-11.2-10.73-22.41c-.6-1.27-1.18-1.47-2.5-1-.45.16-.87.38-1.32.56-.62.27-.8.59-.48,1.3,2.1,4.6,4.16,9.22,6.22,13.84a11.68,11.68,0,0,1,.42,1.46l-.29.16a16.85,16.85,0,0,1-1.49-1.15c-2.8-2.66-5.69-5.25-8.34-8.06a4.46,4.46,0,0,0-5.14-1.28c-.82.26-1,.61-.66,1.39.94,2.11,1.79,4.26,2.76,6.35,2.55,5.49,5.18,10.95,7.69,16.46.67,1.47,1.41,2.17,3.16,1.78,1.6-.34,2.15-.92,1.43-2.43-1.63-3.41-3.33-6.8-5-10.19C275.09,205.7,274.7,204.94,274.31,204.17ZM228,208.52c.32.95.59,1.77.86,2.58.57,1.72,1.5,3.1,3.4,3.51,1.52.33,2.49-.39,2.42-1.92-.16-3.31-1.19-6.09-4.49-7.68-3.64-1.75-5.17-1.52-7.47,1.77-3,4.34-2.73,9.82,1.94,13.06,1.28.88,2.57,1.75,3.8,2.7a7.26,7.26,0,0,1,3,4.15,2.47,2.47,0,0,1-.6,2.54,2.09,2.09,0,0,1-2.57.15c-1.23-.64-2.35-1.48-3.57-2.15a10.54,10.54,0,0,0-2.5-1c-.27-.07-1,.51-1,.69a9.84,9.84,0,0,0,.82,2.8c1.07,2,3.12,2.77,5,3.65,4.71,2.18,10.52-2,10.1-7.16a5,5,0,0,0-.23-.92,10.94,10.94,0,0,0-3.9-5.18c-1.83-1.42-3.78-2.66-5.62-4.07C224.69,213.92,224.85,210.62,228,208.52Zm27,17.93c-.26-.75-.45-1.27-.63-1.78a2.58,2.58,0,0,0-3.58-1.65c-1.21.51-2.42,1-3.61,1.58-.82.38-1.26.17-1.47-.72-.43-1.82-.88-3.64-1.41-5.43a1.09,1.09,0,0,1,.76-1.57c1.41-.52,2.82-1.08,4.24-1.61,2.16-.81,2.19-.88,1.24-3a2.19,2.19,0,0,0-3-1.35c-1.1.34-2.16.8-3.25,1.17a13.82,13.82,0,0,1-1.48.39c-.44-1.93-.77-3.69-1.26-5.4-.26-.89,0-1.19.81-1.47,1.57-.58,3.11-1.23,4.63-1.92a1.34,1.34,0,0,0,.69-1,3.2,3.2,0,0,0-3.82-2.7c-1.46.54-2.86,1.2-4.29,1.8a5.47,5.47,0,0,1-1.44.53c-1.85.19-2,.36-1.68,2.2.09.51.11,1,.23,1.54,1,4.09,2,8.2,3.09,12.27.92,3.38,2,6.73,3.06,10.06a3.15,3.15,0,0,0,3.77,1.63C249.34,228.93,252.12,227.67,254.93,226.45Zm16.7-5.89c-.28-.67-.5-1.21-.74-1.74a2.61,2.61,0,0,0-3.74-1.32c-1,.53-2,1.13-3,1.67-1.5.77-1.53.74-2.05-.82s-1-3.19-1.68-4.73c-.43-1-.1-1.46.75-1.86,1.62-.77,3.24-1.54,4.83-2.36.32-.16.74-.49.78-.79a2.94,2.94,0,0,0-3.55-2.93,21.35,21.35,0,0,0-3.59,1.6c-1.06.61-1.4.2-1.68-.75-.4-1.42-.79-2.84-1.31-4.22-.31-.82,0-1.13.67-1.45q2.22-1,4.37-2.2c.36-.2.83-.72.79-1-.22-1.56-2.48-3.27-3.81-2.55-1.51.81-3,1.58-4.57,2.34a4.94,4.94,0,0,1-1.65.58c-1.07.1-1.4.63-1.22,1.6a10.39,10.39,0,0,0,.3,1.28c1.44,4.35,2.84,8.71,4.36,13,1.13,3.19,2.38,6.34,3.68,9.46a3.1,3.1,0,0,0,3.92,1.56C266.21,223.53,268.92,222,271.63,220.56Zm-82.84-.5V209.83c0-2-.48-2.53-2.5-2.63-1.37-.06-1.52.1-1.48,1.44,0,.63-.05,1.27-.06,1.91-.16,7.14-.34,14.27-.45,21.41a15.65,15.65,0,0,0,.43,3.66,1.69,1.69,0,0,0,1.1,1c1,.25,2,.18,3,.46,2.36.71,4,.19,5.33-1.9a10.31,10.31,0,0,0,.93-1.92,22,22,0,0,0,.79-10.73,4.65,4.65,0,0,0-3.5-3.84c-1.59-.55-2.57.25-3.47,1.35C188.81,220.09,188.69,220.13,188.79,220.06Zm-66.58-10c.11-.4.17-.65.25-.91.41-1.45.92-2.88,1.23-4.35s.46-1.56,1.81-1.2c1.54.42,3.07.87,4.61,1.26,1.35.35,1.84,0,1.9-1.45a3.36,3.36,0,0,0-2.18-3.35c-2.68-.74-5.4-1.32-8.11-1.88-.27,0-.85.42-1,.74-.8,2.63-1.55,5.27-2.27,7.92-1.53,5.64-3,11.3-4.55,16.93-.4,1.48,1.24,3.51,2.75,3.24a1.52,1.52,0,0,0,.9-.66,6,6,0,0,0,.56-1.44c.91-3.05,1.83-6.11,2.71-9.17.21-.74.56-.94,1.3-.71,1.21.37,2.45.65,3.68,1a1.77,1.77,0,0,0,2.22-1.1,1.92,1.92,0,0,0-.37-2.42,10.63,10.63,0,0,0-2.7-1.65A18.6,18.6,0,0,0,122.21,210.05ZM143,225.58l-.34,0a6.67,6.67,0,0,1-.14-1.17c.11-2.67.28-5.33.38-8,.08-2.23,0-2.19-2-3-.92-.39-1.38-.24-1.42.77-.21,4.34-.45,8.68-.55,13a3.56,3.56,0,0,0,1.28,3.22c.17.12.13.72,0,1-.9,2.26-1.79,4.52-2.78,6.73-.88,1.95-.32,2.48,1.38,3.71,1,.72,1.25.61,1.73-.54,1.85-4.4,3.67-8.82,5.55-13.21q2.56-6,5.26-11.91a1.35,1.35,0,0,0-.58-2c-.3-.19-.58-.42-.89-.61-1.57-1-1.83-.91-2.5.79C145.93,218.14,144.49,221.86,143,225.58Zm66.53.55c-.15-1.19-.23-2.39-.46-3.56-.48-2.5-1.52-4.42-4.39-5-2.6-.48-3.72-.06-4.67,2.4a24.77,24.77,0,0,0-1.59,10.31c.16,3.3,2,5.31,5.15,6.32a5.15,5.15,0,0,0,2.31.16c1.61-.25,4.82-4.54,4.31-6.36a3,3,0,0,0-1.38-1.51c-.22-.13-.93.33-1.26.67-1.08,1.09-2,2.37-3.16,3.36-.87.76-1.67.3-1.83-.84-.09-.59-.12-1.19-.18-1.79a1.21,1.21,0,0,1,1.07-1.46c1.55-.35,3.08-.82,4.65-1.05C209.24,227.66,209.75,227.27,209.56,226.13Zm-81,2a3.28,3.28,0,0,0,2.69,2.48c1.13,0,1.21-.89,1.4-1.73.71-3.23,1.38-6.46,2.22-9.66,1.29-4.88,2.7-9.74,4.07-14.6.58-2.05.16-2.89-1.87-3.61-1.42-.5-1.59-.43-2,1.06-1.46,5.54-2.93,11.08-4.34,16.63C129.93,221.79,129.25,224.94,128.53,228.09Zm165.77-26c2.33,0,2.79-.87,2-2.64-2.5-5.66-5.64-11-7.46-17a1.53,1.53,0,0,0-1.18-.87,15,15,0,0,0-3.28,1c-.87.35-1,1-.52,1.88,1.66,3.13,3.21,6.31,4.93,9.41,1.4,2.54,3,5,4.5,7.45A3.52,3.52,0,0,0,294.3,202.12ZM168.9,227.87c.24,0,.76,0,1.28,0,.24,0,.59-.09.69-.26.58-.95-.33-3-1.42-3.11-2.42-.28-4.84-.5-7.26-.7a1,1,0,0,0-.81.29c-.56.85.53,3.18,1.55,3.29C164.82,227.57,166.73,227.69,168.9,227.87ZM295,206.1a3,3,0,0,0,3.14,2.9,2.72,2.72,0,0,0,2.82-2.75,3.34,3.34,0,0,0-3.35-3.46C295.61,202.7,295.13,203.31,295,206.1Z"/><path class="cls-2" d="M47,17.17V93.46H62.47v-82C66,10.6,69.35,9.68,72.76,9,76,8.28,79.17,7.69,82.4,7.27c4.74-.61,9.5-1.26,14.26-1.5,6.86-.34,13.74-.55,20.6-.4,6,.14,12,.76,18,1.31A214.22,214.22,0,0,1,161.52,11a256.51,256.51,0,0,1,36.53,10.92,229.79,229.79,0,0,1,35.66,17.17,182,182,0,0,1,29.56,21.62,127.92,127.92,0,0,1,22,25.43,80.94,80.94,0,0,1,10.52,23.39,56.84,56.84,0,0,1,1.76,20,52.93,52.93,0,0,1-11.38,28,67.67,67.67,0,0,1-12.6,12.19,97.91,97.91,0,0,1-26.24,13.71,121.7,121.7,0,0,1-21.79,5.69c-6.41,1-12.85,2.1-19.32,2.47-8,.46-16.12.32-24.18.23-4.34-.05-8.68-.43-13-.85-4.12-.4-8.24-.9-12.31-1.63-7-1.25-13.93-2.55-20.83-4.11a226.39,226.39,0,0,1-26.72-8,235.25,235.25,0,0,1-34.54-15.56,192.05,192.05,0,0,1-32.15-22.07,129.58,129.58,0,0,1-26-29.45A79.41,79.41,0,0,1,6.67,88.32,57.4,57.4,0,0,1,4.94,66.77,53.73,53.73,0,0,1,19.29,36.14,74.55,74.55,0,0,1,38.61,21.28C41,20,43.5,18.79,46,17.56,46.23,17.43,46.54,17.34,47,17.17Zm60.19,79a4.1,4.1,0,0,1-.69.1c-2.08,0-4.16-.07-6.23,0-.34,0-.93.43-1,.68-.08,1.66,0,3.34,0,5.09h11.43l.82-1.79a52.74,52.74,0,0,0,6,1.59,31,31,0,0,0,14.65-1.1c4.85-1.66,8.5-5.74,8.45-11.58-.14-14.59,0-29.17,0-43.75,0-.38-.08-.76-.12-1.18-4.4,0-8.68,0-13,0a1.36,1.36,0,0,0-.95.75c-.37.89-.6,1.83-.92,2.87-.32-.28-.51-.42-.67-.59a10.85,10.85,0,0,0-7.57-3.87c-5.46-.4-9.74,1.58-10.8,7.49a41.53,41.53,0,0,0-.65,6.3c-.09,4.71-.05,9.43,0,14.14,0,2.35.11,4.71.26,7.06.26,3.9,1.82,7.12,5.63,8.58A12.63,12.63,0,0,0,125,85.15c.25-.2.52-.38.79-.57,0,2.37.13,4.6-.05,6.81-.12,1.51-1.18,2.13-2.71,2.06a2.38,2.38,0,0,1-2.38-2.25c-.05-.31-.09-.61-.14-1H105.82ZM86.55,93.51h14.51a1.77,1.77,0,0,0,.1-.4c-.14-12.7-.22-25.4-.46-38.09a11,11,0,0,0-8-10.52A26.46,26.46,0,0,0,78.22,44c-4.24,1-7.89,3.18-9.62,7.46-1.52,3.75-1.24,7.74-1.18,11.74.4,0,.71.08,1,.08,3.91,0,7.83,0,11.74,0,1,0,1.19-.35,1.19-1.24,0-2.72.08-5.43.2-8.14A1.91,1.91,0,0,1,84,52a2,2,0,0,1,1.83,1.94A60.85,60.85,0,0,1,86,61.18a3,3,0,0,1-1.42,2c-1.69,1-3.52,1.68-5.29,2.5C76.5,67,73.68,68.16,71,69.52a5.94,5.94,0,0,0-3.28,5.35c-.18,3.14-.32,6.3-.24,9.44.15,5.79,2.12,8.39,7.31,9.77,4.15,1.1,9,.11,11.33-4.16.06-.11.21-.16.48-.36Zm-3.09,13.27a4,4,0,0,1-.9-.4,9.55,9.55,0,0,0-8-2.31c-3.06.32-5.93,2.91-6,5.76-.09,9-.07,18,0,27.05A5.94,5.94,0,0,0,72,142.24c3.22,1.75,7.13,1.17,10.22-1.48.3-.26.64-.49,1.21-.93a13.26,13.26,0,0,1,0,1.59c-.16,1,.26,1.21,1.2,1.19,3.07-.06,6.15-.05,9.22,0,.82,0,1.09-.26,1-1a11.81,11.81,0,0,1,0-1.19V108.87c0-3.83,0-7.67,0-11.5,0-1-.3-1.24-1.24-1.23-3.08,0-6.15,0-9.23,0-.81,0-1,.29-1,1,0,1.68,0,3.36,0,5ZM44,33.33c-1.17,0-2.28-.06-3.39,0a88.53,88.53,0,0,0-9.51.75,6.23,6.23,0,0,0-5.49,6.64,26,26,0,0,1-.18,3.94,1.09,1.09,0,0,1-.76.73c-2.29.22-2.29.2-2.29,2.47v5.34H25.5V93.5h15V53.13H44V45.42c-1.81,0-3.56,0-5.31,0-.33,0-.86-.16-1-.39a2.84,2.84,0,0,1,2.43-4c1.26-.09,2.53-.12,3.84-.18ZM154.72,104.6c-3.57,0-6.92.05-10.27,0-1,0-1.3.31-1.29,1.28,0,3.67,0,7.35,0,11,0,9.95,0,19.9,0,29.85,0,1,.21,1.35,1.25,1.28,1.31-.09,2.64,0,4,0h6.3v-8.61c1,.91,1.71,1.66,2.53,2.27,3.27,2.44,8.18,2.05,10.68-.81,1.54-1.75,1.68-3.94,1.73-6.08.13-5,.15-10.07.17-15.1,0-2.67,0-5.35-.16-8-.08-1.83-.2-3.67-1.56-5.15a8.41,8.41,0,0,0-12.51.51,12.85,12.85,0,0,1-1,.88Zm34.77,14.56c3.37,0,6.6,0,9.84,0,.68,0,.75-.39.76-.93,0-1.95.12-3.91.15-5.87,0-1,.24-1.83,1.48-1.87a1.75,1.75,0,0,1,2.08,1.78,21.09,21.09,0,0,1,.22,2.5c.07,3.92,0,4.06-3.61,5.63-2.55,1.12-5.12,2.21-7.65,3.39a4.91,4.91,0,0,0-3.08,4.37c-.13,2.54-.29,5.1-.18,7.65.14,3.18,1.26,5.81,4.69,6.89s7.23.64,9.31-2.52a4.7,4.7,0,0,1,.82-.64v2.95h11a4.27,4.27,0,0,0,.07-.45q0-11.81,0-23.61c0-.28,0-.55-.06-.83-.14-1.63-.28-3.26-.41-4.89a11.53,11.53,0,0,0-.13-1.77,8.27,8.27,0,0,0-5.74-6.06,19.94,19.94,0,0,0-11.22-.41c-3.4.78-6.27,2.53-7.52,6C189.28,113.23,189.33,116.12,189.49,119.16ZM220.08,142c0,1.75,0,3.3,0,4.84,0,.91.28,1.18,1.17,1.15,3.43-.11,6.86-.12,10.29-.25a7.45,7.45,0,0,0,7.27-5.55,54,54,0,0,0,1.25-6.81c.59-4.46,1.05-8.94,1.59-13.41.57-4.71,1.17-9.41,1.74-14.12.13-1,.2-2.09.3-3.21-3.09,0-6,.06-8.9,0-1,0-1.34.23-1.39,1.22-.22,3.74-.52,7.47-.78,11.21-.25,3.58-.49,7.16-.75,10.74a7,7,0,0,1-.43,1.28A6.3,6.3,0,0,1,231,128c-.42-2.8-.81-5.6-1.22-8.4-.69-4.69-1.4-9.38-2.07-14.07-.09-.67-.32-1-1.05-1-2.91,0-5.83,0-8.74,0a2.49,2.49,0,0,0-.57.16c0,.3.07.53.11.76q1.5,7.62,3,15.24,1.89,9.54,3.81,19.09c.27,1.37-.21,2-1.64,2.15C221.81,142,221,142,220.08,142Zm-91.29-25.43c3.25,0,6.28,0,9.31,0,.66,0,.82-.3.8-.87,0-1.32,0-2.64-.09-4a6.75,6.75,0,0,0-2.67-5,11.14,11.14,0,0,0-6.23-2.54c-3.37-.36-6.77-.44-10,.88-2.86,1.15-4.71,3.09-5,6.25-.14,1.43-.21,2.86-.26,4.29-.15,4,1.68,6.87,5,8.85,2.68,1.58,5.37,3.14,8,4.76.51.32,1.16.86,1.22,1.35a26.81,26.81,0,0,1,.15,4.74c-.07,1.34-1.21,1.4-2.24,1.39a1.55,1.55,0,0,1-1.66-1.66c-.1-1.55-.18-3.1-.2-4.66,0-.63-.15-1-.87-1q-4.18,0-8.39,0c-.63,0-.85.23-.83.85,0,1.16,0,2.32.07,3.47.24,3.9,1.83,6.89,5.72,8.28a19.36,19.36,0,0,0,13.58.11,7.35,7.35,0,0,0,4.67-4.51,20.46,20.46,0,0,0,.83-4.19c.61-5.25-.89-9.43-6-11.85-2.3-1.09-4.52-2.37-6.71-3.68s-2.43-2.74-2.07-5.52c.2-1.59.86-2,2.35-1.86s1.41,1.2,1.47,2.17C128.84,113.9,128.79,115.13,128.79,116.53Zm140.77-.07v-3.74a7.41,7.41,0,0,0-4.83-7.29,18.86,18.86,0,0,0-14.67-.16,6.41,6.41,0,0,0-4.32,5,40.12,40.12,0,0,0-.46,5.58,9.09,9.09,0,0,0,4.69,8.34c.4.25.8.52,1.21.76,2.38,1.39,4.77,2.74,7.11,4.19a2.88,2.88,0,0,1,1.35,1.55,16.48,16.48,0,0,1,.19,4.15c-.12,1.4-.73,1.77-2.05,1.82a1.7,1.7,0,0,1-2-1.7c-.07-.72-.14-1.43-.16-2.14,0-1.11,0-2.21,0-3.43h-10c0,1.38-.06,2.65,0,3.91.28,5.1,2.14,7.63,6.83,9.07a19.65,19.65,0,0,0,11.09.2c3.78-1,6.17-3.39,6.68-7.39.17-1.3.18-2.62.23-3.94a9.19,9.19,0,0,0-5.3-9.26c-2-1-3.95-2.09-5.93-3.12-2.45-1.27-4-3-3.63-6,.22-1.63.64-2.36,2-2.35s1.82.46,1.86,2.28c0,1.22,0,2.44,0,3.68Zm-95.71,26.13c3.49,0,6.88,0,10.26,0,1.14,0,1.48-.27,1.48-1.44q-.06-21.75,0-43.5c0-.28.09-.61,0-.83s-.47-.66-.72-.66c-3.44,0-6.88,0-10.31,0-.23,0-.61.43-.65.7a17.19,17.19,0,0,0,0,2ZM111,142.52V129.58c0-7.9,0-15.81,0-23.71,0-1-.23-1.34-1.34-1.31-3.07.11-6.15.09-9.22,0-.95,0-1.23.17-1.23,1.16,0,11.89,0,23.79,0,35.69,0,.34,0,.69.06,1.1Zm141.18,22.09.31.33a2.76,2.76,0,0,0,.66-.14c1.56-.8,3.13-1.58,4.64-2.45,2.93-1.69,5.83-3.45,8.75-5.15a9.4,9.4,0,0,1,1.66-.55,20.8,20.8,0,0,1-.78,2c-.87,1.65-1.83,3.26-2.68,4.93-.71,1.39-1.42,2.85-.68,4.42.21.44.86.66,1.31,1,.23-.54.72-1.11.64-1.59a4,4,0,0,1,.55-3c1-1.55,2-3.07,2.88-4.67a10.72,10.72,0,0,0,1.2-3.09c.35-1.91-.57-2.7-2.4-2.08a36.66,36.66,0,0,0-4.46,1.94c-1.49.74-2.91,1.6-4.43,2.44-.43-1.24-.74-2.39-1.21-3.46a1.64,1.64,0,0,0-2.37-.94c-3.1,1.4-6.81,1.92-8.42,5.59-.06.14-.21.24-.31.36-1.19,1.44-2.42,2.86-3.57,4.34a8.71,8.71,0,0,0-.79,1.72l.34.28a13.2,13.2,0,0,0,2-1.16c1-.85,2-1.84,3-2.74q3.36-3,6.75-5.89c.65-.57,1.15-.44,1.38.43a8,8,0,0,1,.2.81,3.61,3.61,0,0,1-1.32,3.17C254.08,162.51,253.16,163.57,252.21,164.61ZM229.82,167l0-.13c1.08-.08,2.16-.09,3.22-.24a16.43,16.43,0,0,0,6.93-2.42,4.64,4.64,0,0,0,.55-7.57c-2.13-1.91-4.71-2.07-7.32-1.51a20.25,20.25,0,0,0-9.85,4.82c-2.41,2.25-1.76,5.23,1.4,6.18A42.1,42.1,0,0,0,229.82,167Zm-9.92-1.67-.16-.44a17.4,17.4,0,0,1-3.23,1c-3,.36-6.1.57-9.16.77a7.85,7.85,0,0,1-2.25-.28c-3.67-.9-4.72-4-2.23-6.87a16.81,16.81,0,0,1,8.38-5,17.16,17.16,0,0,1,3.06-.31l.11.38a21.8,21.8,0,0,0-1.4,2.18c-.16.31-.18,1,0,1.14a2.49,2.49,0,0,0,1.48.4,1.32,1.32,0,0,0,.89-.72,22.11,22.11,0,0,0,1.55-4.07c.3-1.35-.82-2.21-2.15-1.72-2.73,1-5.47,2-8.1,3.2a13.37,13.37,0,0,0-6.24,5.2c-1.94,3.33-.4,6.6,3.39,7.24a28.7,28.7,0,0,0,12.09-.7C217.28,166.31,218.58,165.75,219.9,165.3Zm-24.36,2a12.13,12.13,0,0,1,2-.86c1.05-.23,1.29-.86,1.2-2-.92,0-1.82,0-2.71,0-1.07.06-1.31.75-1.05,1.66A8,8,0,0,0,195.54,167.27Z"/><path class="cls-2" d="M274.31,204.17c.39.77.78,1.53,1.16,2.31,1.68,3.39,3.38,6.78,5,10.19.72,1.51.17,2.09-1.43,2.43-1.75.39-2.49-.31-3.16-1.78-2.51-5.51-5.14-11-7.69-16.46-1-2.09-1.82-4.24-2.76-6.35-.35-.78-.16-1.13.66-1.39a4.46,4.46,0,0,1,5.14,1.28c2.65,2.81,5.54,5.4,8.34,8.06a16.85,16.85,0,0,0,1.49,1.15l.29-.16a11.68,11.68,0,0,0-.42-1.46c-2.06-4.62-4.12-9.24-6.22-13.84-.32-.71-.14-1,.48-1.3.45-.18.87-.4,1.32-.56,1.32-.48,1.9-.28,2.5,1q5.39,11.21,10.73,22.41l.1.22c1.23,2.86,1.12,3.14-1.91,3.81a2.21,2.21,0,0,1-1.63-.4c-3.32-2.61-6.58-5.3-9.87-7.95-.62-.49-1.27-.94-1.91-1.4Z"/><path class="cls-2" d="M228,208.52c-3.1,2.1-3.26,5.4-.51,7.52,1.84,1.41,3.79,2.65,5.62,4.07a10.94,10.94,0,0,1,3.9,5.18,5,5,0,0,1,.23.92c.42,5.2-5.39,9.34-10.1,7.16-1.91-.88-4-1.65-5-3.65a9.84,9.84,0,0,1-.82-2.8c0-.18.7-.76,1-.69a10.54,10.54,0,0,1,2.5,1c1.22.67,2.34,1.51,3.57,2.15a2.09,2.09,0,0,0,2.57-.15,2.47,2.47,0,0,0,.6-2.54,7.26,7.26,0,0,0-3-4.15c-1.23-.95-2.52-1.82-3.8-2.7-4.67-3.24-5-8.72-1.94-13.06,2.3-3.29,3.83-3.52,7.47-1.77,3.3,1.59,4.33,4.37,4.49,7.68.07,1.53-.9,2.25-2.42,1.92-1.9-.41-2.83-1.79-3.4-3.51C228.54,210.29,228.27,209.47,228,208.52Z"/><path class="cls-2" d="M254.93,226.45c-2.81,1.22-5.59,2.48-8.41,3.64a3.15,3.15,0,0,1-3.77-1.63c-1.1-3.33-2.14-6.68-3.06-10.06-1.11-4.07-2.08-8.18-3.09-12.27-.12-.5-.14-1-.23-1.54-.32-1.84-.17-2,1.68-2.2a5.47,5.47,0,0,0,1.44-.53c1.43-.6,2.83-1.26,4.29-1.8a3.2,3.2,0,0,1,3.82,2.7,1.34,1.34,0,0,1-.69,1c-1.52.69-3.06,1.34-4.63,1.92-.78.28-1.07.58-.81,1.47.49,1.71.82,3.47,1.26,5.4a13.82,13.82,0,0,0,1.48-.39c1.09-.37,2.15-.83,3.25-1.17a2.19,2.19,0,0,1,3,1.35c.95,2.09.92,2.16-1.24,3-1.42.53-2.83,1.09-4.24,1.61a1.09,1.09,0,0,0-.76,1.57c.53,1.79,1,3.61,1.41,5.43.21.89.65,1.1,1.47.72,1.19-.55,2.4-1.07,3.61-1.58a2.58,2.58,0,0,1,3.58,1.65C254.48,225.18,254.67,225.7,254.93,226.45Z"/><path class="cls-2" d="M271.63,220.56c-2.71,1.46-5.42,3-8.18,4.37a3.1,3.1,0,0,1-3.92-1.56c-1.3-3.12-2.55-6.27-3.68-9.46-1.52-4.32-2.92-8.68-4.36-13a10.39,10.39,0,0,1-.3-1.28c-.18-1,.15-1.5,1.22-1.6a4.94,4.94,0,0,0,1.65-.58c1.53-.76,3.06-1.53,4.57-2.34,1.33-.72,3.59,1,3.81,2.55,0,.31-.43.83-.79,1q-2.14,1.18-4.37,2.2c-.7.32-1,.63-.67,1.45.52,1.38.91,2.8,1.31,4.22.28.95.62,1.36,1.68.75a21.35,21.35,0,0,1,3.59-1.6,2.94,2.94,0,0,1,3.55,2.93c0,.3-.46.63-.78.79-1.59.82-3.21,1.59-4.83,2.36-.85.4-1.18.86-.75,1.86.66,1.54,1.15,3.15,1.68,4.73s.55,1.59,2.05.82c1-.54,2-1.14,3-1.67a2.61,2.61,0,0,1,3.74,1.32C271.13,219.35,271.35,219.89,271.63,220.56Z"/><path class="cls-2" d="M188.79,220.06c-.1.07,0,0,.08-.06.9-1.1,1.88-1.9,3.47-1.35a4.65,4.65,0,0,1,3.5,3.84,22,22,0,0,1-.79,10.73,10.31,10.31,0,0,1-.93,1.92c-1.3,2.09-3,2.61-5.33,1.9-.95-.28-2-.21-3-.46a1.69,1.69,0,0,1-1.1-1,15.65,15.65,0,0,1-.43-3.66c.11-7.14.29-14.27.45-21.41,0-.64.09-1.28.06-1.91,0-1.34.11-1.5,1.48-1.44,2,.1,2.5.61,2.5,2.63Zm2.83,1.87c-.1,0-.19,0-.25,0a.64.64,0,0,0-.27.22,19.34,19.34,0,0,0-2.73,11,1.42,1.42,0,0,0,.84,1c.25.09.79-.29,1-.6a4.46,4.46,0,0,0,.66-1.39c1.08-3.23,1-6.58.91-9.93C191.81,222.1,191.68,222,191.62,221.93Z"/><path class="cls-2" d="M122.21,210.05a18.6,18.6,0,0,1,2.79.78,10.63,10.63,0,0,1,2.7,1.65,1.92,1.92,0,0,1,.37,2.42,1.77,1.77,0,0,1-2.22,1.1c-1.23-.33-2.47-.61-3.68-1-.74-.23-1.09,0-1.3.71-.88,3.06-1.8,6.12-2.71,9.17a6,6,0,0,1-.56,1.44,1.52,1.52,0,0,1-.9.66c-1.51.27-3.15-1.76-2.75-3.24,1.54-5.63,3-11.29,4.55-16.93.72-2.65,1.47-5.29,2.27-7.92.1-.32.68-.79,1-.74,2.71.56,5.43,1.14,8.11,1.88A3.36,3.36,0,0,1,132,203.4c-.06,1.41-.55,1.8-1.9,1.45-1.54-.39-3.07-.84-4.61-1.26-1.35-.36-1.53-.15-1.81,1.2s-.82,2.9-1.23,4.35C122.38,209.4,122.32,209.65,122.21,210.05Z"/><path class="cls-2" d="M143,225.58c1.46-3.72,2.9-7.44,4.38-11.15.67-1.7.93-1.76,2.5-.79.31.19.59.42.89.61a1.35,1.35,0,0,1,.58,2q-2.69,5.92-5.26,11.91c-1.88,4.39-3.7,8.81-5.55,13.21-.48,1.15-.72,1.26-1.73.54-1.7-1.23-2.26-1.76-1.38-3.71,1-2.21,1.88-4.47,2.78-6.73.12-.31.16-.91,0-1a3.56,3.56,0,0,1-1.28-3.22c.1-4.34.34-8.68.55-13,0-1,.5-1.16,1.42-.77,2,.85,2.09.81,2,3-.1,2.67-.27,5.33-.38,8a6.67,6.67,0,0,0,.14,1.17Z"/><path class="cls-2" d="M209.56,226.13c.19,1.14-.32,1.53-1.43,1.69-1.57.23-3.1.7-4.65,1.05a1.21,1.21,0,0,0-1.07,1.46c.06.6.09,1.2.18,1.79.16,1.14,1,1.6,1.83.84,1.16-1,2.08-2.27,3.16-3.36.33-.34,1-.8,1.26-.67a3,3,0,0,1,1.38,1.51c.51,1.82-2.7,6.11-4.31,6.36a5.15,5.15,0,0,1-2.31-.16c-3.18-1-5-3-5.15-6.32A24.77,24.77,0,0,1,200,220c1-2.46,2.07-2.88,4.67-2.4,2.87.54,3.91,2.46,4.39,5C209.33,223.74,209.41,224.94,209.56,226.13Zm-5.11-5.53-.46,0-1.22,4.8.45.35c.76-.45,2-.79,2.17-1.38A4.87,4.87,0,0,0,204.45,220.6Z"/><path class="cls-2" d="M128.53,228.09c.72-3.15,1.4-6.3,2.19-9.43,1.41-5.55,2.88-11.09,4.34-16.63.39-1.49.56-1.56,2-1.06,2,.72,2.45,1.56,1.87,3.61-1.37,4.86-2.78,9.72-4.07,14.6-.84,3.2-1.51,6.43-2.22,9.66-.19.84-.27,1.76-1.4,1.73A3.28,3.28,0,0,1,128.53,228.09Z"/><path class="cls-2" d="M294.3,202.12a3.52,3.52,0,0,1-1-.84c-1.54-2.45-3.1-4.91-4.5-7.45-1.72-3.1-3.27-6.28-4.93-9.41-.44-.84-.35-1.53.52-1.88a15,15,0,0,1,3.28-1,1.53,1.53,0,0,1,1.18.87c1.82,6,5,11.37,7.46,17C297.09,201.25,296.63,202.11,294.3,202.12Z"/><path class="cls-2" d="M168.9,227.87c-2.17-.18-4.08-.3-6-.5-1-.11-2.11-2.44-1.55-3.29a1,1,0,0,1,.81-.29c2.42.2,4.84.42,7.26.7,1.09.13,2,2.16,1.42,3.11-.1.17-.45.24-.69.26C169.66,227.9,169.14,227.87,168.9,227.87Z"/><path class="cls-2" d="M295,206.1c.13-2.79.61-3.4,2.61-3.31a3.34,3.34,0,0,1,3.35,3.46,2.72,2.72,0,0,1-2.82,2.75A3,3,0,0,1,295,206.1Z"/><path class="cls-1" d="M107.2,96.12l-1.38-5.88h14.69c0,.35.09.65.14,1A2.38,2.38,0,0,0,123,93.45c1.53.07,2.59-.55,2.71-2.06.18-2.21.05-4.44.05-6.81-.27.19-.54.37-.79.57a12.63,12.63,0,0,1-13.08,1.77c-3.81-1.46-5.37-4.68-5.63-8.58-.15-2.35-.24-4.71-.26-7.06,0-4.71-.08-9.43,0-14.14a41.53,41.53,0,0,1,.65-6.3c1.06-5.91,5.34-7.89,10.8-7.49a10.85,10.85,0,0,1,7.57,3.87c.16.17.35.31.67.59.32-1,.55-2,.92-2.87a1.36,1.36,0,0,1,.95-.75c4.27,0,8.55,0,13,0,0,.42.12.8.12,1.18,0,14.58-.19,29.16,0,43.75,0,5.84-3.6,9.92-8.45,11.58a31,31,0,0,1-14.65,1.1,52.74,52.74,0,0,1-6-1.59,11.72,11.72,0,0,1-.44-2.58c.07-1.23-.36-1.62-1.54-1.48A20.63,20.63,0,0,1,107.2,96.12Zm18.29-30.54h0c0-3.91,0-7.82,0-11.73A1.73,1.73,0,0,0,123.69,52a2,2,0,0,0-2.2,1.6,16,16,0,0,0-.39,3.08q0,9.16,0,18.33a14,14,0,0,0,.26,2.5A1.91,1.91,0,0,0,124,79.07a2.09,2.09,0,0,0,1.44-2.24C125.52,73.08,125.49,69.33,125.49,65.58Z"/><path class="cls-1" d="M86.55,93.51v-4c-.27.2-.42.25-.48.36-2.29,4.27-7.18,5.26-11.33,4.16-5.19-1.38-7.16-4-7.31-9.77-.08-3.14.06-6.3.24-9.44A5.94,5.94,0,0,1,71,69.52c2.73-1.36,5.55-2.57,8.32-3.84,1.77-.82,3.6-1.54,5.29-2.5a3,3,0,0,0,1.42-2,60.85,60.85,0,0,0-.16-7.27A2,2,0,0,0,84,52a1.91,1.91,0,0,0-2.42,2c-.12,2.71-.18,5.42-.2,8.14,0,.89-.19,1.25-1.19,1.24-3.91-.06-7.83,0-11.74,0-.31,0-.62-.05-1-.08-.06-4-.34-8,1.18-11.74C70.33,47.17,74,45,78.22,44a26.46,26.46,0,0,1,14.52.51,11,11,0,0,1,8,10.52c.24,12.69.32,25.39.46,38.09a1.77,1.77,0,0,1-.1.4ZM86.08,70c-1.8,1.57-3.89,2.69-4.14,4.91a62.06,62.06,0,0,0-.21,9.15c0,1.21,1.12,1.8,2.33,1.73a1.91,1.91,0,0,0,2-2.19C86.12,79.18,86.08,74.76,86.08,70Z"/><path class="cls-3" d="M83.46,106.78v-4.55c0-1.67,0-3.35,0-5,0-.76.19-1.07,1-1,3.08,0,6.15,0,9.23,0,.94,0,1.25.27,1.24,1.23,0,3.83,0,7.67,0,11.5v31.52a11.81,11.81,0,0,0,0,1.19c.08.77-.19,1-1,1-3.07-.05-6.15-.06-9.22,0-.94,0-1.36-.2-1.2-1.19a13.26,13.26,0,0,0,0-1.59c-.57.44-.91.67-1.21.93-3.09,2.65-7,3.23-10.22,1.48a5.94,5.94,0,0,1-3.45-5.36c0-9-.07-18,0-27,0-2.85,2.9-5.44,6-5.76a9.55,9.55,0,0,1,8,2.31A4,4,0,0,0,83.46,106.78Zm-3.63,16.74h0c0,3.43,0,6.87,0,10.3a3.65,3.65,0,0,0,.25,1.74,2.06,2.06,0,0,0,1.41,1,2.32,2.32,0,0,0,1.48-.93,2.37,2.37,0,0,0,.24-1.38c.06-5.55.12-11.1.14-16.64,0-1.8,0-3.59-.14-5.38-.07-1.2-.67-1.72-1.74-1.69s-1.63.71-1.64,2.2C79.82,116.33,79.83,119.93,79.83,123.52Z"/><path class="cls-1" d="M44,33.33V40.8c-1.31.06-2.58.09-3.84.18a2.84,2.84,0,0,0-2.43,4c.1.23.63.39,1,.39,1.75,0,3.5,0,5.31,0v7.71H40.5V93.5h-15V53.21H22.41V47.87c0-2.27,0-2.25,2.29-2.47a1.09,1.09,0,0,0,.76-.73,26,26,0,0,0,.18-3.94,6.23,6.23,0,0,1,5.49-6.64,88.53,88.53,0,0,1,9.51-.75C41.75,33.27,42.86,33.33,44,33.33Z"/><path class="cls-3" d="M154.72,104.6l-.15,3.27a12.85,12.85,0,0,0,1-.88,8.41,8.41,0,0,1,12.51-.51c1.36,1.48,1.48,3.32,1.56,5.15.12,2.67.16,5.35.16,8,0,5,0,10.07-.17,15.1,0,2.14-.19,4.33-1.73,6.08-2.5,2.86-7.41,3.25-10.68.81-.82-.61-1.53-1.36-2.53-2.27V148h-6.3c-1.31,0-2.64-.07-4,0-1,.07-1.26-.31-1.25-1.28,0-9.95,0-19.9,0-29.85,0-3.67,0-7.35,0-11,0-1,.24-1.31,1.29-1.28C147.8,104.65,151.15,104.6,154.72,104.6Zm3.37,18.94h0c0-3.83,0-7.66,0-11.49a1.33,1.33,0,0,0-1.35-1.5,1.51,1.51,0,0,0-1.81,1.33,15.73,15.73,0,0,0-.23,2.38q0,8.92,0,17.85c0,.95.11,1.91.19,2.86s.59,1.66,1.67,1.65,1.55-.66,1.55-1.71Z"/><path class="cls-3" d="M189.49,119.16c-.16-3-.21-5.93.79-8.67,1.25-3.48,4.12-5.23,7.52-6a19.94,19.94,0,0,1,11.22.41,8.27,8.27,0,0,1,5.74,6.06,11.53,11.53,0,0,1,.13,1.77c.13,1.63.27,3.26.41,4.89,0,.28.06.55.06.83q0,11.81,0,23.61a4.27,4.27,0,0,1-.07.45h-11v-2.95a4.7,4.7,0,0,0-.82.64c-2.08,3.16-6,3.56-9.31,2.52s-4.55-3.71-4.69-6.89c-.11-2.55.05-5.11.18-7.65a4.91,4.91,0,0,1,3.08-4.37c2.53-1.18,5.1-2.27,7.65-3.39,3.57-1.57,3.68-1.71,3.61-5.63a21.09,21.09,0,0,0-.22-2.5,1.75,1.75,0,0,0-2.08-1.78c-1.24,0-1.46.84-1.48,1.87,0,2-.11,3.92-.15,5.87,0,.54-.08.93-.76.93C196.09,119.15,192.86,119.16,189.49,119.16Zm14.29,5.39c-1.33,1.13-2.88,2-3.09,3.51a48.52,48.52,0,0,0-.18,7.34c0,.84.81,1.26,1.65,1.23s1.6-.43,1.61-1.41C203.8,131.78,203.78,128.33,203.78,124.55Z"/><path class="cls-3" d="M220.08,142c.9,0,1.73.06,2.55,0,1.43-.13,1.91-.78,1.64-2.15q-1.91-9.56-3.81-19.09-1.52-7.62-3-15.24c0-.23-.07-.46-.11-.76a2.49,2.49,0,0,1,.57-.16c2.91,0,5.83,0,8.74,0,.73,0,1,.28,1.05,1,.67,4.69,1.38,9.38,2.07,14.07.41,2.8.8,5.6,1.22,8.4a6.3,6.3,0,0,0,.44,1.07,7,7,0,0,0,.43-1.28c.26-3.58.5-7.16.75-10.74.26-3.74.56-7.47.78-11.21.05-1,.39-1.25,1.39-1.22,2.9.09,5.81,0,8.9,0-.1,1.12-.17,2.17-.3,3.21-.57,4.71-1.17,9.41-1.74,14.12-.54,4.47-1,8.95-1.59,13.41a54,54,0,0,1-1.25,6.81,7.45,7.45,0,0,1-7.27,5.55c-3.43.13-6.86.14-10.29.25-.89,0-1.21-.24-1.17-1.15C220.13,145.26,220.08,143.71,220.08,142Z"/><path class="cls-3" d="M128.79,116.53c0-1.4.05-2.63,0-3.85-.06-1,0-2.08-1.47-2.17s-2.15.27-2.35,1.86c-.36,2.78,0,4.27,2.07,5.52s4.41,2.59,6.71,3.68c5.11,2.42,6.61,6.6,6,11.85a20.46,20.46,0,0,1-.83,4.19,7.35,7.35,0,0,1-4.67,4.51,19.36,19.36,0,0,1-13.58-.11c-3.89-1.39-5.48-4.38-5.72-8.28-.08-1.15,0-2.31-.07-3.47,0-.62.2-.85.83-.85q4.2,0,8.39,0c.72,0,.85.32.87,1,0,1.56.1,3.11.2,4.66a1.55,1.55,0,0,0,1.66,1.66c1,0,2.17-.05,2.24-1.39a26.81,26.81,0,0,0-.15-4.74c-.06-.49-.71-1-1.22-1.35-2.65-1.62-5.34-3.18-8-4.76-3.37-2-5.2-4.86-5-8.85,0-1.43.12-2.86.26-4.29.3-3.16,2.15-5.1,5-6.25,3.26-1.32,6.66-1.24,10-.88a11.14,11.14,0,0,1,6.23,2.54,6.75,6.75,0,0,1,2.67,5c.05,1.32.05,2.64.09,4,0,.57-.14.87-.8.87C135.07,116.52,132,116.53,128.79,116.53Z"/><path class="cls-3" d="M269.56,116.46h-10.1c0-1.24,0-2.46,0-3.68,0-1.82-.43-2.28-1.86-2.28s-1.82.72-2,2.35c-.41,3.06,1.18,4.77,3.63,6,2,1,3.94,2.1,5.93,3.12a9.19,9.19,0,0,1,5.3,9.26c-.05,1.32-.06,2.64-.23,3.94-.51,4-2.9,6.37-6.68,7.39a19.65,19.65,0,0,1-11.09-.2c-4.69-1.44-6.55-4-6.83-9.07-.07-1.26,0-2.53,0-3.91h10c0,1.22,0,2.32,0,3.43,0,.71.09,1.42.16,2.14a1.7,1.7,0,0,0,2,1.7c1.32-.05,1.93-.42,2.05-1.82a16.48,16.48,0,0,0-.19-4.15,2.88,2.88,0,0,0-1.35-1.55c-2.34-1.45-4.73-2.8-7.11-4.19-.41-.24-.81-.51-1.21-.76a9.09,9.09,0,0,1-4.69-8.34,40.12,40.12,0,0,1,.46-5.58,6.41,6.41,0,0,1,4.32-5,18.86,18.86,0,0,1,14.67.16,7.41,7.41,0,0,1,4.83,7.29Z"/><path class="cls-3" d="M173.85,142.59V98.92a17.19,17.19,0,0,1,0-2c0-.27.42-.69.65-.7,3.43,0,6.87,0,10.31,0,.25,0,.57.38.72.66s0,.55,0,.83q0,21.75,0,43.5c0,1.17-.34,1.46-1.48,1.44C180.73,142.55,177.34,142.59,173.85,142.59Z"/><path class="cls-3" d="M111,142.52H99.35c0-.41-.06-.76-.06-1.1,0-11.9,0-23.8,0-35.69,0-1,.28-1.18,1.23-1.16,3.07.08,6.15.1,9.22,0,1.11,0,1.35.27,1.34,1.31,0,7.9,0,15.81,0,23.71Z"/><path class="cls-1" d="M252.21,164.61c.95-1,1.87-2.1,2.85-3.11a3.61,3.61,0,0,0,1.32-3.17,8,8,0,0,0-.2-.81c-.23-.87-.73-1-1.38-.43q-3.39,2.92-6.75,5.89c-1,.9-2,1.89-3,2.74a13.2,13.2,0,0,1-2,1.16l-.34-.28a8.71,8.71,0,0,1,.79-1.72c1.15-1.48,2.38-2.9,3.57-4.34.1-.12.25-.22.31-.36,1.61-3.67,5.32-4.19,8.42-5.59a1.64,1.64,0,0,1,2.37.94c.47,1.07.78,2.22,1.21,3.46,1.52-.84,2.94-1.7,4.43-2.44a36.66,36.66,0,0,1,4.46-1.94c1.83-.62,2.75.17,2.4,2.08a10.72,10.72,0,0,1-1.2,3.09c-.88,1.6-1.92,3.12-2.88,4.67a4,4,0,0,0-.55,3c.08.48-.41,1.05-.64,1.59-.45-.33-1.1-.55-1.31-1-.74-1.57,0-3,.68-4.42.85-1.67,1.81-3.28,2.68-4.93a20.8,20.8,0,0,0,.78-2,9.4,9.4,0,0,0-1.66.55c-2.92,1.7-5.82,3.46-8.75,5.15-1.51.87-3.08,1.65-4.64,2.45a2.76,2.76,0,0,1-.66.14Z"/><path class="cls-1" d="M229.82,167a42.1,42.1,0,0,1-5-.87c-3.16-.95-3.81-3.93-1.4-6.18a20.25,20.25,0,0,1,9.85-4.82c2.61-.56,5.19-.4,7.32,1.51a4.64,4.64,0,0,1-.55,7.57,16.43,16.43,0,0,1-6.93,2.42c-1.06.15-2.14.16-3.22.24Zm-6.11-3.66a21,21,0,0,0,4.11,1.86A15.28,15.28,0,0,0,238.58,163a3,3,0,0,0-.83-5.74,10.84,10.84,0,0,0-6.68.47A14.05,14.05,0,0,0,223.71,163.31Z"/><path class="cls-1" d="M219.9,165.3c-1.32.45-2.62,1-4,1.35a28.7,28.7,0,0,1-12.09.7c-3.79-.64-5.33-3.91-3.39-7.24a13.37,13.37,0,0,1,6.24-5.2c2.63-1.22,5.37-2.2,8.1-3.2,1.33-.49,2.45.37,2.15,1.72a22.11,22.11,0,0,1-1.55,4.07,1.32,1.32,0,0,1-.89.72,2.49,2.49,0,0,1-1.48-.4c-.19-.14-.17-.83,0-1.14a21.8,21.8,0,0,1,1.4-2.18l-.11-.38a17.16,17.16,0,0,0-3.06.31,16.81,16.81,0,0,0-8.38,5c-2.49,2.83-1.44,6,2.23,6.87a7.85,7.85,0,0,0,2.25.28c3.06-.2,6.12-.41,9.16-.77a17.4,17.4,0,0,0,3.23-1Z"/><path class="cls-3" d="M107.2,96.12a20.63,20.63,0,0,0,2.36,0c1.18-.14,1.61.25,1.54,1.48a11.72,11.72,0,0,0,.44,2.58l-.82,1.79H99.29c0-1.75,0-3.43,0-5.09,0-.25.61-.67,1-.68,2.07,0,4.15,0,6.23,0A4.1,4.1,0,0,0,107.2,96.12Z"/><path class="cls-1" d="M195.54,167.27a8,8,0,0,1-.56-1.21c-.26-.91,0-1.6,1.05-1.66.89-.05,1.79,0,2.71,0,.09,1.16-.15,1.79-1.2,2A12.13,12.13,0,0,0,195.54,167.27Z"/><path class="cls-3" d="M191.62,221.93c.06.08.19.17.19.27.12,3.35.17,6.7-.91,9.93a4.46,4.46,0,0,1-.66,1.39c-.24.31-.78.69-1,.6a1.42,1.42,0,0,1-.84-1,19.34,19.34,0,0,1,2.73-11,.64.64,0,0,1,.27-.22C191.43,221.91,191.52,221.93,191.62,221.93Z"/><path class="cls-3" d="M204.45,220.6a4.87,4.87,0,0,1,.94,3.73c-.13.59-1.41.93-2.17,1.38l-.45-.35,1.22-4.8Z"/><path class="cls-2" d="M125.49,65.58c0,3.75,0,7.5,0,11.25A2.09,2.09,0,0,1,124,79.07a1.91,1.91,0,0,1-2.67-1.56,14,14,0,0,1-.26-2.5q0-9.17,0-18.33a16,16,0,0,1,.39-3.08,2,2,0,0,1,2.2-1.6,1.73,1.73,0,0,1,1.79,1.85c0,3.91,0,7.82,0,11.73Z"/><path class="cls-2" d="M86.08,70c0,4.76,0,9.18,0,13.6a1.91,1.91,0,0,1-2,2.19c-1.21.07-2.29-.52-2.33-1.73a62.06,62.06,0,0,1,.21-9.15C82.19,72.69,84.28,71.57,86.08,70Z"/><path class="cls-2" d="M79.83,123.52c0-3.59,0-7.19,0-10.78,0-1.49.55-2.16,1.64-2.2s1.67.49,1.74,1.69c.09,1.79.15,3.58.14,5.38,0,5.54-.08,11.09-.14,16.64a2.37,2.37,0,0,1-.24,1.38,2.32,2.32,0,0,1-1.48.93,2.06,2.06,0,0,1-1.41-1,3.65,3.65,0,0,1-.25-1.74c0-3.43,0-6.87,0-10.3Z"/><path class="cls-2" d="M158.09,123.54v11.37c0,1.05-.47,1.69-1.55,1.71S155,136,154.87,135s-.19-1.91-.19-2.86q0-8.93,0-17.85a15.73,15.73,0,0,1,.23-2.38,1.51,1.51,0,0,1,1.81-1.33,1.33,1.33,0,0,1,1.35,1.5c0,3.83,0,7.66,0,11.49Z"/><path class="cls-2" d="M203.78,124.55c0,3.78,0,7.23,0,10.67,0,1-.72,1.39-1.61,1.41s-1.63-.39-1.65-1.23a48.52,48.52,0,0,1,.18-7.34C200.9,126.5,202.45,125.68,203.78,124.55Z"/><path class="cls-2" d="M223.71,163.31a14.05,14.05,0,0,1,7.36-5.54,10.84,10.84,0,0,1,6.68-.47,3,3,0,0,1,.83,5.74,15.28,15.28,0,0,1-10.76,2.13A21,21,0,0,1,223.71,163.31Z"/></g></g></svg>