<svg width="1024" height="1024" viewBox="0 0 1024 1024" fill="none" xmlns="http://www.w3.org/2000/svg">
<g filter="url(#filter0_dii_1_4)">
<path fill-rule="evenodd" clip-rule="evenodd" d="M924 356.627C924 346.845 924.004 337.062 923.944 327.279C923.895 319.038 923.8 310.799 923.576 302.562C923.092 284.609 922.033 266.502 918.84 248.749C915.602 230.741 910.314 213.98 901.981 197.617C893.789 181.534 883.088 166.817 870.32 154.058C857.555 141.299 842.834 130.605 826.746 122.418C810.366 114.083 793.587 108.797 775.558 105.56C757.803 102.372 739.691 101.315 721.738 100.83C713.495 100.607 705.253 100.513 697.008 100.462C687.22 100.402 677.432 100.407 667.644 100.407L553.997 100H468.997L357.361 100.407C347.554 100.407 337.747 100.402 327.94 100.462C319.678 100.513 311.42 100.607 303.161 100.83C285.167 101.315 267.014 102.373 249.217 105.565C231.164 108.801 214.36 114.085 197.958 122.414C181.835 130.602 167.083 141.297 154.291 154.058C141.501 166.816 130.78 181.53 122.573 197.61C114.217 213.981 108.919 230.752 105.673 248.77C102.477 266.516 101.418 284.617 100.931 302.562C100.709 310.8 100.613 319.039 100.563 327.279C100.503 337.063 100 349.216 100 358.999L100.003 469.089L100 554.998L100.508 667.427C100.508 677.223 100.504 687.019 100.563 696.815C100.613 705.067 100.709 713.317 100.932 721.566C101.418 739.542 102.479 757.675 105.678 775.452C108.923 793.484 114.22 810.269 122.569 826.653C130.777 842.759 141.5 857.495 154.291 870.272C167.082 883.049 181.83 893.757 197.95 901.956C214.362 910.302 231.174 915.595 249.238 918.836C267.027 922.029 285.174 923.088 303.161 923.573C311.42 923.796 319.679 923.891 327.941 923.941C337.748 924.001 347.554 923.997 357.361 923.997L470.006 924H555.217L667.644 923.996C677.432 923.996 687.22 924.001 697.008 923.941C705.253 923.891 713.495 923.796 721.738 923.573C739.698 923.087 757.816 922.027 775.579 918.832C793.597 915.591 810.368 910.3 826.739 901.959C842.831 893.761 857.554 883.051 870.32 870.272C883.086 857.497 893.786 842.763 901.978 826.66C910.316 810.268 915.604 793.475 918.844 775.431C922.034 757.661 923.092 739.535 923.577 721.566C923.8 713.316 923.895 705.066 923.944 696.815C924.005 687.019 924 677.223 924 667.427C924 667.427 923.994 556.983 923.994 554.998V468.999C923.994 467.533 924 356.627 924 356.627" fill="url(#paint0_linear_1_4)"/>
</g>
<path d="M413.5 330.983L549.551 501.381C571.016 528.265 566.623 567.461 539.738 588.926C512.854 610.392 473.658 605.999 452.192 579.114L233.726 305.495C290.516 265.271 369.525 275.906 413.5 330.983Z" stroke="url(#paint1_linear_1_4)" stroke-width="57.7595"/>
<path d="M588.5 330.983L452.449 501.381C430.984 528.265 435.377 567.461 462.262 588.926C489.146 610.392 528.342 605.999 549.808 579.114L768.274 305.495C711.484 265.271 632.475 275.906 588.5 330.983Z" stroke="url(#paint2_linear_1_4)" stroke-width="57.7595"/>
<mask id="path-4-inside-1_1_4" fill="white">
<path d="M266.2 696L268 725.8L266 724C267.6 714.533 270.733 707.533 275.4 703C280.2 698.333 286.667 696 294.8 696H315.4V708H294.8C289.333 708 284.667 709.267 280.8 711.8C277.067 714.2 274.2 717.733 272.2 722.4C270.333 726.933 269.4 732.4 269.4 738.8V802H256V696H266.2ZM263.4 696V708.2H228V696H263.4ZM304.8 789.8V802H228V789.8H304.8ZM344.322 727.2C346.189 717.2 350.922 709.133 358.522 703C366.255 696.733 375.589 693.6 386.522 693.6C399.589 693.6 409.789 697.4 417.122 705C424.455 712.467 428.122 723.467 428.122 738V781.6C428.122 784.4 428.722 786.467 429.922 787.8C431.122 789.133 432.922 789.8 435.322 789.8H439.522V802H434.722C428.855 802 424.189 800.467 420.722 797.4C417.255 794.2 415.255 789.6 414.722 783.6C412.189 789.733 407.789 794.733 401.522 798.6C395.255 802.333 387.922 804.267 379.522 804.4C372.455 804.4 366.122 803.2 360.522 800.8C354.922 798.267 350.522 794.8 347.322 790.4C344.122 785.867 342.522 780.667 342.522 774.8C342.522 768.133 344.122 762.8 347.322 758.8C350.655 754.667 355.055 751.467 360.522 749.2C365.989 746.933 372.922 745 381.322 743.4L414.522 737.2C414.389 726.933 411.855 719.267 406.922 714.2C402.122 709.133 395.322 706.6 386.522 706.6C379.189 706.6 373.055 708.6 368.122 712.6C363.322 716.467 360.255 721.733 358.922 728.4L344.322 727.2ZM356.722 774.8C356.722 780.133 358.855 784.467 363.122 787.8C367.522 791 373.722 792.467 381.722 792.2C387.989 792.2 393.655 790.733 398.722 787.8C403.789 784.867 407.789 780.733 410.722 775.4C413.655 770.067 415.055 763.933 414.922 757V749.2L387.722 754L383.522 754.8C377.522 755.867 372.655 757 368.922 758.2C365.322 759.4 362.389 761.333 360.122 764C357.855 766.667 356.722 770.267 356.722 774.8ZM538.044 660H551.444V802H539.644L539.044 783.4C535.844 789.933 531.244 795.067 525.244 798.8C519.244 802.533 512.244 804.4 504.244 804.4C494.644 804.4 486.444 802 479.644 797.2C472.977 792.267 467.977 785.6 464.644 777.2C461.31 768.8 459.644 759.4 459.644 749C459.644 738.6 461.31 729.267 464.644 721C467.977 712.6 472.977 706 479.644 701.2C486.444 696.267 494.644 693.8 504.244 693.8C511.977 693.8 518.777 695.6 524.644 699.2C530.644 702.667 535.11 707.467 538.044 713.6V660ZM535.444 770.2C537.977 763.667 539.244 756.6 539.244 749C539.244 741.267 537.977 734.133 535.444 727.6C532.91 721.067 529.177 715.867 524.244 712C519.444 708.133 513.577 706.2 506.644 706.2C495.844 706.2 487.644 710.2 482.044 718.2C476.444 726.2 473.644 736.467 473.644 749C473.644 761.4 476.444 771.6 482.044 779.6C487.644 787.6 495.844 791.6 506.644 791.6C513.577 791.6 519.444 789.667 524.244 785.8C529.177 781.8 532.91 776.6 535.444 770.2ZM642.566 696V802H628.966V696H642.566ZM642.566 696V708.2H590.566V696H642.566ZM679.166 789.8V802H586.566V789.8H679.166ZM642.566 660V678.2H627.566V660H642.566ZM794.488 696L757.288 748.2L796.088 802H779.688L748.688 758.2L717.688 802H701.088L740.087 748L702.888 696H719.488L748.688 738L777.888 696H794.488Z"/>
</mask>
<path d="M266.2 696L323.854 692.518L320.576 638.241H266.2V696ZM268 725.8L229.361 768.732L334.155 863.047L325.654 722.318L268 725.8ZM266 724L209.048 714.374L203.756 745.688L227.361 766.932L266 724ZM275.4 703L315.646 744.43L315.654 744.421L315.663 744.413L275.4 703ZM315.4 696H373.159V638.241H315.4V696ZM315.4 708V765.759H373.159V708H315.4ZM280.8 711.8L312.034 760.386L312.244 760.251L312.454 760.114L280.8 711.8ZM272.2 722.4L219.111 699.647L218.948 700.027L218.791 700.408L272.2 722.4ZM269.4 802V859.759H327.159V802H269.4ZM256 802H198.241V859.759H256V802ZM256 696V638.241H198.241V696H256ZM263.4 696H321.159V638.241H263.4V696ZM263.4 708.2V765.959H321.159V708.2H263.4ZM228 708.2H170.241V765.959H228V708.2ZM228 696V638.241H170.241V696H228ZM304.8 789.8H362.559V732.041H304.8V789.8ZM304.8 802V859.759H362.559V802H304.8ZM228 802H170.241V859.759H228V802ZM228 789.8V732.041H170.241V789.8H228ZM208.546 699.482L210.346 729.282L325.654 722.318L323.854 692.518L208.546 699.482ZM306.639 682.868L304.639 681.068L227.361 766.932L229.361 768.732L306.639 682.868ZM322.952 733.626C323.132 732.558 323.125 733.335 322.269 735.248C321.37 737.256 319.411 740.772 315.646 744.43L235.154 661.57C218.383 677.862 211.766 698.295 209.048 714.374L322.952 733.626ZM315.663 744.413C312.013 747.962 307.733 750.537 303.454 752.081C299.367 753.556 296.223 753.759 294.8 753.759V638.241C275.06 638.241 252.951 644.268 235.137 661.587L315.663 744.413ZM294.8 753.759H315.4V638.241H294.8V753.759ZM257.641 696V708H373.159V696H257.641ZM315.4 650.241H294.8V765.759H315.4V650.241ZM294.8 650.241C280.177 650.241 264.027 653.737 249.146 663.486L312.454 760.114C305.306 764.796 298.49 765.759 294.8 765.759V650.241ZM249.566 663.214C234.785 672.716 224.979 685.955 219.111 699.647L325.289 745.153C323.421 749.512 319.348 755.684 312.034 760.386L249.566 663.214ZM218.791 700.408C213.321 713.693 211.641 727.049 211.641 738.8H327.159C327.159 737.751 327.346 740.173 325.609 744.392L218.791 700.408ZM211.641 738.8V802H327.159V738.8H211.641ZM269.4 744.241H256V859.759H269.4V744.241ZM313.759 802V696H198.241V802H313.759ZM256 753.759H266.2V638.241H256V753.759ZM205.641 696V708.2H321.159V696H205.641ZM263.4 650.441H228V765.959H263.4V650.441ZM285.759 708.2V696H170.241V708.2H285.759ZM228 753.759H263.4V638.241H228V753.759ZM247.041 789.8V802H362.559V789.8H247.041ZM304.8 744.241H228V859.759H304.8V744.241ZM285.759 802V789.8H170.241V802H285.759ZM228 847.559H304.8V732.041H228V847.559ZM344.322 727.2L287.543 716.601L275.798 779.522L339.59 784.765L344.322 727.2ZM358.522 703L394.796 747.948L394.841 747.912L394.886 747.875L358.522 703ZM417.122 705L375.557 745.106L375.734 745.29L375.913 745.473L417.122 705ZM429.922 787.8L386.99 826.439L386.99 826.439L429.922 787.8ZM439.522 789.8H497.281V732.041H439.522V789.8ZM439.522 802V859.759H497.281V802H439.522ZM420.722 797.4L381.545 839.842L381.994 840.257L382.452 840.662L420.722 797.4ZM414.722 783.6L472.255 778.486L361.337 761.55L414.722 783.6ZM401.522 798.6L431.083 848.221L431.469 847.991L431.852 847.755L401.522 798.6ZM379.522 804.4V862.159H379.98L380.439 862.152L379.522 804.4ZM360.522 800.8L336.715 853.425L337.24 853.662L337.769 853.889L360.522 800.8ZM347.322 790.4L300.134 823.709L300.37 824.042L300.61 824.372L347.322 790.4ZM347.322 758.8L302.361 722.541L302.29 722.63L302.219 722.718L347.322 758.8ZM360.522 749.2L382.645 802.555L382.645 802.555L360.522 749.2ZM381.322 743.4L370.719 686.622L370.617 686.641L370.514 686.661L381.322 743.4ZM414.522 737.2L425.125 793.978L472.908 785.055L472.276 736.45L414.522 737.2ZM406.922 714.2L364.991 753.924L365.263 754.211L365.539 754.494L406.922 714.2ZM368.122 712.6L404.356 757.58L404.428 757.523L404.499 757.465L368.122 712.6ZM358.922 728.4L354.19 785.965L405.469 790.18L415.56 739.728L358.922 728.4ZM363.122 787.8L327.563 833.316L328.346 833.928L329.149 834.512L363.122 787.8ZM381.722 792.2V734.441H380.759L379.798 734.473L381.722 792.2ZM398.722 787.8L369.782 737.813L369.782 737.813L398.722 787.8ZM410.722 775.4L360.112 747.565L360.112 747.565L410.722 775.4ZM414.922 757H357.162V757.555L357.173 758.111L414.922 757ZM414.922 749.2H472.681V680.355L404.884 692.319L414.922 749.2ZM387.722 754L377.684 697.119L377.299 697.187L376.914 697.261L387.722 754ZM383.522 754.8L393.632 811.668L393.981 811.606L394.329 811.539L383.522 754.8ZM368.922 758.2L351.247 703.211L350.951 703.306L350.657 703.405L368.922 758.2ZM360.122 764L316.113 726.592L316.113 726.592L360.122 764ZM401.101 737.799C400.916 738.789 400.387 740.669 399.088 742.881C397.772 745.125 396.179 746.832 394.796 747.948L322.248 658.052C303.463 673.211 291.82 693.688 287.543 716.601L401.101 737.799ZM394.886 747.875C393.457 749.033 391.646 750.054 389.704 750.706C387.83 751.335 386.62 751.359 386.522 751.359V635.841C363.738 635.841 341.207 642.688 322.157 658.125L394.886 747.875ZM386.522 751.359C387.514 751.359 386.308 751.507 383.808 750.575C381.071 749.556 378.073 747.714 375.557 745.106L458.687 664.894C437.993 643.447 411.301 635.841 386.522 635.841V751.359ZM375.913 745.473C372.781 742.283 371.22 739.044 370.576 737.115C370.022 735.451 370.362 735.438 370.362 738H485.881C485.881 714.301 479.828 686.416 458.33 664.527L375.913 745.473ZM370.362 738V781.6H485.881V738H370.362ZM370.362 781.6C370.362 791.005 372.128 809.926 386.99 826.439L472.854 749.161C485.316 763.008 485.881 777.795 485.881 781.6H370.362ZM386.99 826.439C402.505 843.678 422.355 847.559 435.322 847.559V732.041C443.489 732.041 459.739 734.589 472.854 749.161L386.99 826.439ZM435.322 847.559H439.522V732.041H435.322V847.559ZM381.762 789.8V802H497.281V789.8H381.762ZM439.522 744.241H434.722V859.759H439.522V744.241ZM434.722 744.241C439.06 744.241 449.307 745.571 458.992 754.138L382.452 840.662C399.07 855.362 418.651 859.759 434.722 859.759V744.241ZM459.899 754.958C469.645 763.954 471.881 774.284 472.255 778.486L357.189 788.714C358.629 804.916 364.866 824.446 381.545 839.842L459.899 754.958ZM361.337 761.55C362.51 758.709 364.171 756.054 366.161 753.792C368.112 751.576 369.97 750.199 371.192 749.445L431.852 847.755C447.275 838.239 460.426 824.246 468.107 805.65L361.337 761.55ZM371.96 748.979C373.639 747.979 375.26 747.352 376.597 746.999C377.894 746.657 378.637 746.647 378.605 746.648L380.439 862.152C397.382 861.883 414.901 857.862 431.083 848.221L371.96 748.979ZM379.522 746.641C379.039 746.641 380.628 746.576 383.274 747.711L337.769 853.889C351.616 859.824 365.872 862.159 379.522 862.159V746.641ZM384.328 748.175C386.647 749.224 390.613 751.723 394.034 756.428L300.61 824.372C310.431 837.877 323.197 847.31 336.715 853.425L384.328 748.175ZM394.51 757.091C396.356 759.707 397.897 762.767 398.927 766.114C399.948 769.431 400.281 772.425 400.281 774.8H284.762C284.762 791.871 289.65 808.856 300.134 823.709L394.51 757.091ZM400.281 774.8C400.281 777.258 399.604 785.907 392.424 794.882L302.219 722.718C288.639 739.693 284.762 759.009 284.762 774.8H400.281ZM392.283 795.059C388.883 799.275 385.06 801.553 382.645 802.555L338.399 695.845C325.051 701.38 312.428 710.059 302.361 722.541L392.283 795.059ZM382.645 802.555C383.249 802.304 386.055 801.296 392.129 800.139L370.514 686.661C359.788 688.704 348.728 691.563 338.399 695.845L382.645 802.555ZM391.925 800.178L425.125 793.978L403.919 680.422L370.719 686.622L391.925 800.178ZM472.276 736.45C472.037 718.03 467.408 693.526 448.305 673.906L365.539 754.494C356.302 745.007 356.74 735.837 356.767 737.95L472.276 736.45ZM448.853 674.476C430.451 655.053 406.787 648.841 386.522 648.841V764.359C385.458 764.359 382.318 764.213 378.058 762.625C373.536 760.941 368.896 758.045 364.991 753.924L448.853 674.476ZM386.522 648.841C368.096 648.841 348.523 654.131 331.745 667.735L404.499 757.465C401.388 759.987 397.874 761.858 394.329 763.014C390.883 764.137 388.118 764.359 386.522 764.359V648.841ZM331.888 667.62C315.452 680.859 305.977 698.606 302.284 717.072L415.56 739.728C415.121 741.921 414.154 745.049 412.136 748.514C410.079 752.047 407.386 755.14 404.356 757.58L331.888 667.62ZM363.653 670.835L349.053 669.635L339.59 784.765L354.19 785.965L363.653 670.835ZM298.962 774.8C298.962 798.228 309.534 819.231 327.563 833.316L398.681 742.284C402.57 745.322 406.922 749.998 410.142 756.539C413.375 763.106 414.481 769.554 414.481 774.8H298.962ZM329.149 834.512C347.851 848.114 368.618 850.428 383.646 849.927L379.798 734.473C379.801 734.472 379.897 734.469 380.081 734.473C380.265 734.477 380.548 734.489 380.923 734.521C381.661 734.583 382.842 734.731 384.368 735.092C387.465 735.824 392.134 737.481 397.094 741.088L329.149 834.512ZM381.722 849.959C397.41 849.959 413.181 846.17 427.661 837.787L369.782 737.813C371.779 736.657 373.963 735.762 376.199 735.183C378.414 734.61 380.315 734.441 381.722 734.441V849.959ZM427.661 837.787C442.205 829.366 453.538 817.405 461.332 803.235L360.112 747.565C360.975 745.996 362.245 744.163 364.016 742.333C365.797 740.492 367.776 738.975 369.782 737.813L427.661 837.787ZM461.332 803.235C469.783 787.869 472.971 771.499 472.671 755.889L357.173 758.111C357.14 756.368 357.527 752.264 360.112 747.565L461.332 803.235ZM472.681 757V749.2H357.162V757H472.681ZM404.884 692.319L377.684 697.119L397.76 810.881L424.96 806.081L404.884 692.319ZM376.914 697.261L372.714 698.061L394.329 811.539L398.529 810.739L376.914 697.261ZM373.412 697.932C366.087 699.234 358.418 700.906 351.247 703.211L386.597 813.189C386.582 813.194 386.727 813.147 387.059 813.057C387.387 812.967 387.853 812.848 388.472 812.704C389.728 812.412 391.426 812.06 393.632 811.668L373.412 697.932ZM350.657 703.405C337.922 707.649 325.784 715.214 316.113 726.592L404.131 801.408C398.993 807.453 392.722 811.151 387.187 812.995L350.657 703.405ZM316.113 726.592C302.621 742.465 298.962 760.686 298.962 774.8H414.481C414.481 779.847 413.09 790.868 404.131 801.408L316.113 726.592ZM538.044 660V602.241H480.284V660H538.044ZM551.444 660H609.203V602.241H551.444V660ZM551.444 802V859.759H609.203V802H551.444ZM539.644 802L481.914 803.862L483.717 859.759H539.644V802ZM539.044 783.4L596.773 781.538L487.172 757.993L539.044 783.4ZM525.244 798.8L555.758 847.841L555.758 847.841L525.244 798.8ZM479.644 797.2L445.286 843.629L445.806 844.014L446.335 844.388L479.644 797.2ZM464.644 777.2L518.331 755.896L518.331 755.896L464.644 777.2ZM464.644 721L518.212 742.6L518.272 742.452L518.331 742.304L464.644 721ZM479.644 701.2L513.393 748.074L513.477 748.013L513.562 747.952L479.644 701.2ZM524.644 699.2L494.435 748.43L495.086 748.83L495.748 749.212L524.644 699.2ZM538.044 713.6L485.937 738.521L595.803 713.6H538.044ZM535.444 770.2L589.149 791.458L589.223 791.27L589.296 791.082L535.444 770.2ZM535.444 727.6L481.591 748.482L481.591 748.482L535.444 727.6ZM524.244 712L488.01 756.98L488.31 757.222L488.613 757.46L524.244 712ZM482.044 718.2L529.362 751.323L529.362 751.323L482.044 718.2ZM482.044 779.6L529.362 746.477L529.362 746.477L482.044 779.6ZM524.244 785.8L560.478 830.78L560.549 830.723L560.621 830.665L524.244 785.8ZM538.044 717.759H551.444V602.241H538.044V717.759ZM493.684 660V802H609.203V660H493.684ZM551.444 744.241H539.644V859.759H551.444V744.241ZM597.373 800.138L596.773 781.538L481.314 785.262L481.914 803.862L597.373 800.138ZM487.172 757.993C487.777 756.758 488.745 755.203 490.178 753.604C491.619 751.996 493.205 750.708 494.729 749.759L555.758 847.841C571.233 838.212 583.1 824.762 590.915 808.807L487.172 757.993ZM494.729 749.759C496.699 748.534 498.735 747.691 500.611 747.191C502.441 746.703 503.736 746.641 504.244 746.641V862.159C521.568 862.159 539.434 857.998 555.758 847.841L494.729 749.759ZM504.244 746.641C504.267 746.641 505.343 746.647 507.118 747.166C508.965 747.706 511.013 748.643 512.953 750.012L446.335 844.388C464.318 857.082 484.607 862.159 504.244 862.159V746.641ZM514.002 750.771C515.19 751.65 516.259 752.721 517.101 753.844C517.923 754.94 518.266 755.732 518.331 755.896L410.957 798.504C417.894 815.987 429.188 831.717 445.286 843.629L514.002 750.771ZM518.331 755.896C518.062 755.219 517.403 753.193 517.403 749H401.884C401.884 765.607 404.559 782.381 410.957 798.504L518.331 755.896ZM517.403 749C517.403 744.786 518.068 742.957 518.212 742.6L411.075 699.4C404.553 715.576 401.884 732.414 401.884 749H517.403ZM518.331 742.304C518.247 742.514 517.857 743.409 516.933 744.629C515.985 745.88 514.769 747.083 513.393 748.074L445.895 654.326C429.391 666.209 417.936 682.108 410.957 699.696L518.331 742.304ZM513.562 747.952C511.62 749.36 509.509 750.366 507.532 750.961C505.627 751.534 504.407 751.559 504.244 751.559V636.041C484.268 636.041 463.757 641.367 445.726 654.448L513.562 747.952ZM504.244 751.559C503.611 751.559 502.238 751.483 500.364 750.986C498.447 750.479 496.4 749.636 494.435 748.43L554.853 649.97C538.81 640.126 521.289 636.041 504.244 636.041V751.559ZM495.748 749.212C494.063 748.239 492.101 746.78 490.21 744.748C488.311 742.707 486.901 740.536 485.937 738.521L590.151 688.679C582.087 671.818 569.424 658.366 553.539 649.188L495.748 749.212ZM595.803 713.6V660H480.284V713.6H595.803ZM589.296 791.082C594.623 777.346 597.003 763.135 597.003 749H481.484C481.484 749.581 481.437 749.829 481.44 749.809C481.441 749.804 481.451 749.75 481.477 749.657C481.504 749.563 481.541 749.448 481.591 749.318L589.296 791.082ZM597.003 749C597.003 734.864 594.666 720.567 589.296 706.718L481.591 748.482C481.529 748.321 481.486 748.186 481.458 748.085C481.43 747.985 481.422 747.936 481.424 747.948C481.427 747.966 481.484 748.293 481.484 749H597.003ZM589.296 706.718C583.463 691.674 573.915 677.545 559.874 666.54L488.613 757.46C486.687 755.951 485.076 754.229 483.824 752.486C482.595 750.773 481.921 749.333 481.591 748.482L589.296 706.718ZM560.478 667.02C544.133 653.853 525.018 648.441 506.644 648.441V763.959C504.712 763.959 501.732 763.683 498.166 762.507C494.517 761.305 491.03 759.414 488.01 756.98L560.478 667.02ZM506.644 648.441C479.327 648.441 452.405 659.821 434.725 685.077L529.362 751.323C526.951 754.768 523.041 758.515 517.717 761.112C512.608 763.605 508.419 763.959 506.644 763.959V648.441ZM434.725 685.077C420.631 705.212 415.884 727.969 415.884 749H531.403C531.403 746.983 531.633 746.492 531.468 747.098C531.276 747.803 530.703 749.408 529.362 751.323L434.725 685.077ZM415.884 749C415.884 770.047 420.699 792.685 434.725 812.723L529.362 746.477C530.66 748.331 531.237 749.911 531.443 750.66C531.621 751.311 531.403 750.898 531.403 749H415.884ZM434.725 812.723C452.405 837.979 479.327 849.359 506.644 849.359V733.841C508.419 733.841 512.608 734.195 517.717 736.688C523.041 739.285 526.951 743.032 529.362 746.477L434.725 812.723ZM506.644 849.359C525.018 849.359 544.133 843.947 560.478 830.78L488.01 740.82C491.03 738.386 494.517 736.495 498.166 735.293C501.732 734.117 504.712 733.841 506.644 733.841V849.359ZM560.621 830.665C573.9 819.898 583.278 806.29 589.149 791.458L481.739 748.942C482.085 748.066 482.729 746.74 483.824 745.214C484.934 743.668 486.305 742.201 487.867 740.935L560.621 830.665ZM642.566 696H700.325V638.241H642.566V696ZM642.566 802V859.759H700.325V802H642.566ZM628.966 802H571.206V859.759H628.966V802ZM628.966 696V638.241H571.206V696H628.966ZM642.566 696H700.325V638.241H642.566V696ZM642.566 708.2V765.959H700.325V708.2H642.566ZM590.566 708.2H532.806V765.959H590.566V708.2ZM590.566 696V638.241H532.806V696H590.566ZM679.166 789.8H736.925V732.041H679.166V789.8ZM679.166 802V859.759H736.925V802H679.166ZM586.566 802H528.806V859.759H586.566V802ZM586.566 789.8V732.041H528.806V789.8H586.566ZM642.566 660H700.325V602.241H642.566V660ZM642.566 678.2V735.959H700.325V678.2H642.566ZM627.566 678.2H569.806V735.959H627.566V678.2ZM627.566 660V602.241H569.806V660H627.566ZM584.806 696V802H700.325V696H584.806ZM642.566 744.241H628.966V859.759H642.566V744.241ZM686.725 802V696H571.206V802H686.725ZM628.966 753.759H642.566V638.241H628.966V753.759ZM584.806 696V708.2H700.325V696H584.806ZM642.566 650.441H590.566V765.959H642.566V650.441ZM648.325 708.2V696H532.806V708.2H648.325ZM590.566 753.759H642.566V638.241H590.566V753.759ZM621.406 789.8V802H736.925V789.8H621.406ZM679.166 744.241H586.566V859.759H679.166V744.241ZM644.325 802V789.8H528.806V802H644.325ZM586.566 847.559H679.166V732.041H586.566V847.559ZM584.806 660V678.2H700.325V660H584.806ZM642.566 620.441H627.566V735.959H642.566V620.441ZM685.325 678.2V660H569.806V678.2H685.325ZM627.566 717.759H642.566V602.241H627.566V717.759ZM794.488 696L841.525 729.521L906.575 638.241H794.488V696ZM757.288 748.2L710.25 714.679L686.219 748.401L710.44 781.986L757.288 748.2ZM796.088 802V859.759H908.956L842.935 768.214L796.088 802ZM779.688 802L732.542 835.368L749.805 859.759H779.688V802ZM748.688 758.2L795.833 724.832L748.688 658.219L701.542 724.832L748.688 758.2ZM717.688 802V859.759H747.57L764.833 835.368L717.688 802ZM701.088 802L654.263 768.182L588.124 859.759H701.088V802ZM740.087 748L786.912 781.818L811.22 748.16L787.064 714.394L740.087 748ZM702.888 696V638.241H590.55L655.911 729.606L702.888 696ZM719.488 696L766.912 663.029L749.678 638.241H719.488V696ZM748.688 738L701.263 770.971L748.688 839.184L796.112 770.971L748.688 738ZM777.888 696V638.241H747.697L730.463 663.029L777.888 696ZM747.45 662.479L710.25 714.679L804.325 781.721L841.525 729.521L747.45 662.479ZM710.44 781.986L749.24 835.786L842.935 768.214L804.135 714.414L710.44 781.986ZM796.088 744.241H779.688V859.759H796.088V744.241ZM826.833 768.632L795.833 724.832L701.542 791.568L732.542 835.368L826.833 768.632ZM701.542 724.832L670.542 768.632L764.833 835.368L795.833 791.568L701.542 724.832ZM717.688 744.241H701.088V859.759H717.688V744.241ZM747.912 835.818L786.912 781.818L693.263 714.182L654.263 768.182L747.912 835.818ZM787.064 714.394L749.864 662.394L655.911 729.606L693.111 781.606L787.064 714.394ZM702.888 753.759H719.488V638.241H702.888V753.759ZM672.063 728.971L701.263 770.971L796.112 705.029L766.912 663.029L672.063 728.971ZM796.112 770.971L825.312 728.971L730.463 663.029L701.263 705.029L796.112 770.971ZM777.888 753.759H794.488V638.241H777.888V753.759Z" fill="#6F2CF4" mask="url(#path-4-inside-1_1_4)"/>
<defs>
<filter id="filter0_dii_1_4" x="90" y="97" width="844" height="847" filterUnits="userSpaceOnUse" color-interpolation-filters="sRGB">
<feFlood flood-opacity="0" result="BackgroundImageFix"/>
<feColorMatrix in="SourceAlpha" type="matrix" values="0 0 0 0 0 0 0 0 0 0 0 0 0 0 0 0 0 0 127 0" result="hardAlpha"/>
<feOffset dy="10"/>
<feGaussianBlur stdDeviation="5"/>
<feColorMatrix type="matrix" values="0 0 0 0 0 0 0 0 0 0 0 0 0 0 0 0 0 0 0.2 0"/>
<feBlend mode="normal" in2="BackgroundImageFix" result="effect1_dropShadow_1_4"/>
<feBlend mode="normal" in="SourceGraphic" in2="effect1_dropShadow_1_4" result="shape"/>
<feColorMatrix in="SourceAlpha" type="matrix" values="0 0 0 0 0 0 0 0 0 0 0 0 0 0 0 0 0 0 127 0" result="hardAlpha"/>
<feOffset dy="4"/>
<feGaussianBlur stdDeviation="1"/>
<feComposite in2="hardAlpha" operator="arithmetic" k2="-1" k3="1"/>
<feColorMatrix type="matrix" values="0 0 0 0 1 0 0 0 0 1 0 0 0 0 1 0 0 0 1 0"/>
<feBlend mode="normal" in2="shape" result="effect2_innerShadow_1_4"/>
<feColorMatrix in="SourceAlpha" type="matrix" values="0 0 0 0 0 0 0 0 0 0 0 0 0 0 0 0 0 0 127 0" result="hardAlpha"/>
<feOffset dy="-3"/>
<feGaussianBlur stdDeviation="2"/>
<feComposite in2="hardAlpha" operator="arithmetic" k2="-1" k3="1"/>
<feColorMatrix type="matrix" values="0 0 0 0 0 0 0 0 0 0 0 0 0 0 0 0 0 0 0.25 0"/>
<feBlend mode="normal" in2="effect2_innerShadow_1_4" result="effect3_innerShadow_1_4"/>
</filter>
<linearGradient id="paint0_linear_1_4" x1="512" y1="100" x2="512" y2="924" gradientUnits="userSpaceOnUse">
<stop stop-color="white"/>
<stop offset="1" stop-color="#FAFAFA"/>
</linearGradient>
<linearGradient id="paint1_linear_1_4" x1="264.248" y1="243.886" x2="557.758" y2="611.495" gradientUnits="userSpaceOnUse">
<stop stop-color="#F5B7D2"/>
<stop offset="0.3" stop-color="#E744F6"/>
<stop offset="1" stop-color="#6F2CF4"/>
</linearGradient>
<linearGradient id="paint2_linear_1_4" x1="737.752" y1="243.886" x2="444.242" y2="611.495" gradientUnits="userSpaceOnUse">
<stop stop-color="#F5B7D2"/>
<stop offset="0.304063" stop-color="#E744F6"/>
<stop offset="1" stop-color="#6F2CF4"/>
</linearGradient>
</defs>
</svg>
